<svg xmlns="http://www.w3.org/2000/svg" xmlns:xlink="http://www.w3.org/1999/xlink" width="500" zoomAndPan="magnify" viewBox="0 0 375 374.999991" height="500" preserveAspectRatio="xMidYMid meet" version="1.0"><defs><g/><clipPath id="8fae6d9889"><path d="M 113 115 L 262.5 115 L 262.5 260.625 L 113 260.625 Z M 113 115 " clip-rule="nonzero"/></clipPath></defs><g clip-path="url(#8fae6d9889)"><path fill="#5271ff" d="M 126.074219 258.359375 C 128.761719 258.003906 125.363281 254.253906 124.566406 253.339844 C 123.183594 251.765625 121.710938 250.257812 120.117188 248.898438 C 119.304688 248.214844 115.898438 246.148438 115.546875 248.394531 C 115.246094 250.292969 116.511719 252.132812 117.742188 253.449219 C 119.78125 255.617188 122.882812 258.429688 126.074219 258.359375 Z M 127.351562 253.511719 C 129.160156 251.628906 130.972656 249.761719 132.804688 247.914062 C 129.433594 246.5 126.066406 245.054688 122.332031 245.21875 C 122.265625 245.21875 122.210938 245.214844 122.140625 245.203125 C 121.648438 245.695312 121.171875 246.199219 120.707031 246.71875 C 122.617188 248.125 125.484375 250.84375 127.351562 253.511719 Z M 134.429688 246.277344 C 136.578125 244.113281 138.742188 241.972656 140.917969 239.855469 C 138.308594 237.90625 135.285156 236.371094 132.03125 235.964844 C 131.964844 235.960938 131.898438 235.9375 131.835938 235.921875 C 130.816406 236.933594 129.808594 237.949219 128.804688 238.976562 C 127.386719 240.425781 125.867188 241.765625 124.371094 243.113281 C 127.894531 243.4375 131.136719 244.917969 134.429688 246.277344 Z M 150.503906 230.785156 C 147.421875 229.398438 144.34375 227.808594 140.925781 227.613281 C 140.738281 227.601562 140.574219 227.550781 140.4375 227.472656 C 138.195312 229.683594 135.933594 231.882812 133.683594 234.097656 C 136.917969 234.8125 139.824219 236.351562 142.484375 238.355469 C 145.128906 235.804688 147.800781 233.285156 150.503906 230.785156 Z M 152.214844 229.210938 C 154.007812 227.554688 155.820312 225.921875 157.644531 224.289062 C 154.492188 222.585938 151.453125 220.820312 147.839844 220.242188 C 145.992188 222.019531 144.160156 223.808594 142.335938 225.613281 C 145.832031 226.144531 148.949219 227.824219 152.214844 229.210938 Z M 164.402344 218.355469 C 164.3125 218.296875 164.226562 218.230469 164.140625 218.136719 C 161.964844 215.585938 159.164062 213.496094 155.820312 212.84375 C 155.796875 212.84375 155.785156 212.832031 155.773438 212.828125 C 153.742188 214.675781 151.738281 216.542969 149.753906 218.433594 C 153.214844 219.261719 156.214844 221.089844 159.363281 222.765625 C 161.03125 221.285156 162.714844 219.8125 164.402344 218.355469 Z M 165.910156 217.0625 C 167.03125 216.097656 168.144531 215.125 169.273438 214.171875 C 166.898438 211.800781 164.183594 209.800781 161.804688 207.441406 C 160.417969 208.648438 159.042969 209.859375 157.675781 211.085938 C 160.808594 212.042969 163.5625 214.140625 165.671875 216.605469 C 165.792969 216.75 165.867188 216.910156 165.910156 217.0625 Z M 260.027344 130.480469 C 260.773438 125.257812 257.074219 122.167969 252.90625 119.9375 C 249.3125 118.015625 247.222656 117.875 243.75 120.277344 C 236.753906 125.113281 231.800781 132.191406 225.578125 137.894531 C 217.714844 145.117188 210.128906 152.589844 202.535156 160.085938 C 188.820312 173.625 180.273438 191.71875 165.488281 204.234375 C 164.792969 204.820312 164.121094 205.425781 163.4375 206.023438 C 165.835938 208.378906 168.566406 210.394531 170.933594 212.792969 C 175.488281 208.980469 180.09375 205.238281 184.785156 201.566406 C 194.867188 193.6875 205.765625 186.917969 215.617188 178.753906 C 225.519531 170.5625 234.753906 161.601562 243.644531 152.324219 C 247.09375 148.71875 250.660156 145.171875 253.878906 141.339844 C 256.4375 138.285156 259.433594 134.5625 260.027344 130.480469 Z M 262.296875 128.246094 C 262.476562 135.367188 256.9375 141.355469 252.382812 146.226562 C 244.785156 154.351562 237.074219 162.386719 228.910156 169.945312 C 212.714844 184.957031 194.019531 196.566406 177.019531 210.578125 C 162.539062 222.523438 148.785156 234.933594 135.59375 248.171875 C 135.503906 248.359375 135.355469 248.511719 135.167969 248.597656 C 132.9375 250.84375 130.710938 253.117188 128.5 255.417969 C 129.695312 257.832031 129.550781 259.894531 126.410156 260.457031 C 126.3125 260.488281 126.195312 260.507812 126.074219 260.519531 C 125.933594 260.535156 125.820312 260.523438 125.714844 260.503906 C 121.316406 260.367188 116.109375 256.058594 114.25 252.300781 C 113.441406 250.65625 112.605469 247.707031 114.324219 246.261719 C 115.609375 245.171875 117.277344 245.054688 118.808594 245.621094 C 120.75 243.453125 123.058594 241.964844 125.035156 239.832031 C 127.597656 237.082031 130.3125 234.488281 132.984375 231.839844 C 138.660156 226.199219 144.304688 220.515625 150.128906 215.023438 C 155.753906 209.722656 161.9375 204.964844 167.425781 199.535156 C 172.304688 194.714844 176.601562 189.378906 180.675781 183.871094 C 184.601562 178.558594 188.386719 173.128906 192.539062 167.988281 C 196.816406 162.714844 201.640625 158.195312 206.410156 153.394531 C 211.875 147.886719 217.359375 142.515625 223.078125 137.269531 C 227.535156 133.183594 231.316406 128.566406 235.609375 124.351562 C 238.722656 121.300781 245.195312 114.335938 250.253906 116.308594 C 255.328125 118.292969 262.136719 122.003906 262.296875 128.246094 " fill-opacity="1" fill-rule="nonzero"/></g><path fill="#5271ff" d="M 255.894531 133.210938 C 256.019531 133.316406 255.105469 134.609375 253.328125 136.839844 C 252.4375 137.949219 251.34375 139.296875 250.078125 140.875 C 248.804688 142.441406 247.363281 144.261719 245.695312 146.203125 C 243.988281 148.09375 242.152344 150.214844 240.078125 152.390625 C 239.03125 153.46875 237.945312 154.574219 236.824219 155.722656 C 236.261719 156.289062 235.695312 156.871094 235.117188 157.464844 C 234.53125 158.03125 233.925781 158.613281 233.316406 159.195312 C 232.09375 160.363281 230.847656 161.558594 229.566406 162.78125 C 228.269531 163.988281 226.921875 165.179688 225.566406 166.417969 C 222.863281 168.910156 219.9375 171.34375 216.992188 173.890625 C 214 176.367188 211.078125 178.828125 208.207031 181.085938 C 207.492188 181.664062 206.785156 182.230469 206.082031 182.792969 C 205.730469 183.074219 205.378906 183.351562 205.035156 183.632812 L 204.773438 183.839844 L 204.605469 183.972656 L 204.472656 184.066406 L 203.925781 184.453125 C 202.484375 185.480469 201.082031 186.507812 199.6875 187.453125 C 194.132812 191.285156 189.074219 194.589844 184.976562 197.570312 C 183.941406 198.292969 182.976562 199.015625 182.070312 199.703125 C 181.167969 200.398438 180.304688 201.042969 179.5 201.648438 C 177.964844 202.925781 176.601562 203.980469 175.519531 204.902344 C 173.410156 206.820312 172.179688 207.816406 172.070312 207.707031 C 171.941406 207.582031 172.945312 206.351562 174.855469 204.242188 C 175.832031 203.207031 177.140625 202.019531 178.625 200.613281 C 179.390625 199.9375 180.230469 199.25 181.113281 198.5 C 182 197.75 182.929688 196.96875 183.953125 196.199219 C 187.957031 193.015625 192.949219 189.539062 198.402344 185.632812 C 199.773438 184.660156 201.132812 183.628906 202.558594 182.589844 L 203.085938 182.203125 L 203.207031 182.109375 L 203.21875 182.101562 L 203.246094 182.082031 L 203.308594 182.03125 L 203.570312 181.8125 C 203.910156 181.53125 204.253906 181.246094 204.605469 180.964844 C 205.304688 180.398438 206.007812 179.824219 206.714844 179.242188 C 209.570312 176.945312 212.441406 174.5 215.433594 172.039062 C 218.359375 169.5 221.273438 167.089844 223.984375 164.640625 C 225.347656 163.433594 226.683594 162.242188 228 161.078125 C 229.285156 159.882812 230.550781 158.714844 231.777344 157.574219 C 232.386719 157.011719 233 156.449219 233.605469 155.886719 C 234.1875 155.320312 234.761719 154.761719 235.328125 154.210938 C 236.460938 153.105469 237.574219 152.023438 238.640625 150.980469 C 240.753906 148.886719 242.644531 146.859375 244.425781 145.054688 C 246.15625 143.203125 247.664062 141.476562 249.039062 140 C 249.386719 139.628906 249.714844 139.269531 250.03125 138.925781 C 250.355469 138.578125 250.671875 138.238281 250.972656 137.925781 C 251.574219 137.300781 252.121094 136.730469 252.617188 136.21875 C 254.609375 134.175781 255.773438 133.105469 255.894531 133.210938 " fill-opacity="1" fill-rule="nonzero"/><g fill="#ffde59" fill-opacity="1"><g transform="translate(205.578281, 173.809015)"><g><path d="M 1.953125 -1.015625 C 1.503906 -0.597656 1.050781 -0.328125 0.59375 -0.203125 C 0.132812 -0.0859375 -0.296875 -0.0976562 -0.703125 -0.234375 C -1.117188 -0.378906 -1.484375 -0.625 -1.796875 -0.96875 C -2.035156 -1.226562 -2.207031 -1.519531 -2.3125 -1.84375 C -2.425781 -2.175781 -2.460938 -2.503906 -2.421875 -2.828125 C -2.378906 -3.148438 -2.234375 -3.421875 -1.984375 -3.640625 C -1.890625 -3.734375 -1.804688 -3.738281 -1.734375 -3.65625 C -1.503906 -3.414062 -1.210938 -3.304688 -0.859375 -3.328125 C -0.515625 -3.359375 -0.1875 -3.515625 0.125 -3.796875 C 0.332031 -3.992188 0.503906 -4.265625 0.640625 -4.609375 C 0.785156 -4.953125 0.859375 -5.351562 0.859375 -5.8125 C 0.859375 -6.269531 0.753906 -6.769531 0.546875 -7.3125 C 0.347656 -7.820312 0.148438 -8.335938 -0.046875 -8.859375 C -0.242188 -9.390625 -0.398438 -9.828125 -0.515625 -10.171875 C -0.890625 -9.960938 -1.179688 -9.695312 -1.390625 -9.375 C -1.597656 -9.0625 -1.695312 -8.738281 -1.6875 -8.40625 C -1.675781 -8.070312 -1.535156 -7.757812 -1.265625 -7.46875 C -1.140625 -7.320312 -0.992188 -7.226562 -0.828125 -7.1875 C -0.671875 -7.15625 -0.539062 -7.1875 -0.4375 -7.28125 C -0.289062 -7.21875 -0.171875 -7.09375 -0.078125 -6.90625 C 0.015625 -6.726562 0.0664062 -6.515625 0.078125 -6.265625 C 0.0859375 -6.023438 0.0390625 -5.773438 -0.0625 -5.515625 C -0.164062 -5.253906 -0.335938 -5.015625 -0.578125 -4.796875 C -0.847656 -4.554688 -1.128906 -4.410156 -1.421875 -4.359375 C -1.710938 -4.316406 -1.992188 -4.347656 -2.265625 -4.453125 C -2.546875 -4.566406 -2.789062 -4.734375 -3 -4.953125 C -3.394531 -5.390625 -3.679688 -5.878906 -3.859375 -6.421875 C -4.035156 -6.972656 -4.085938 -7.546875 -4.015625 -8.140625 C -3.953125 -8.742188 -3.769531 -9.335938 -3.46875 -9.921875 C -3.175781 -10.515625 -2.75 -11.0625 -2.1875 -11.5625 C -1.5 -12.195312 -0.925781 -12.4375 -0.46875 -12.28125 C -0.0195312 -12.132812 0.347656 -11.707031 0.640625 -11 C 0.742188 -10.757812 0.867188 -10.472656 1.015625 -10.140625 C 1.160156 -9.816406 1.3125 -9.460938 1.46875 -9.078125 C 1.632812 -8.691406 1.796875 -8.316406 1.953125 -7.953125 C 2.117188 -7.585938 2.265625 -7.265625 2.390625 -6.984375 C 3.003906 -5.554688 3.269531 -4.375 3.1875 -3.4375 C 3.101562 -2.5 2.691406 -1.691406 1.953125 -1.015625 Z M 1.953125 -1.015625 "/></g></g></g><g fill="#ffde59" fill-opacity="1"><g transform="translate(210.756325, 169.100572)"><g><path d="M 2.5 -7.265625 C 2.488281 -7.359375 2.53125 -7.4375 2.625 -7.5 C 2.726562 -7.5625 2.835938 -7.59375 2.953125 -7.59375 C 3.066406 -7.59375 3.132812 -7.535156 3.15625 -7.421875 C 3.25 -7.128906 3.316406 -6.8125 3.359375 -6.46875 C 3.410156 -6.125 3.390625 -5.78125 3.296875 -5.4375 C 3.203125 -5.09375 2.988281 -4.769531 2.65625 -4.46875 L 2.546875 -4.359375 C 2.597656 -3.796875 2.546875 -3.253906 2.390625 -2.734375 C 2.234375 -2.222656 1.972656 -1.800781 1.609375 -1.46875 C 1.160156 -1.050781 0.65625 -0.859375 0.09375 -0.890625 C -0.46875 -0.929688 -0.988281 -1.207031 -1.46875 -1.71875 C -1.800781 -2.09375 -2.078125 -2.539062 -2.296875 -3.0625 C -2.515625 -3.582031 -2.648438 -4.113281 -2.703125 -4.65625 C -2.765625 -5.207031 -2.71875 -5.734375 -2.5625 -6.234375 C -2.414062 -6.742188 -2.140625 -7.179688 -1.734375 -7.546875 C -1.460938 -7.796875 -1.164062 -7.960938 -0.84375 -8.046875 C -0.519531 -8.128906 -0.179688 -8.101562 0.171875 -7.96875 C 0.535156 -7.832031 0.910156 -7.554688 1.296875 -7.140625 C 1.617188 -6.785156 1.875 -6.40625 2.0625 -6 L 2.140625 -6.0625 C 2.285156 -6.1875 2.390625 -6.34375 2.453125 -6.53125 C 2.515625 -6.726562 2.53125 -6.972656 2.5 -7.265625 Z M 0.296875 -4.03125 C 0.460938 -4.1875 0.5625 -4.375 0.59375 -4.59375 C 0.632812 -4.8125 0.625 -5.023438 0.5625 -5.234375 C 0.5 -5.441406 0.40625 -5.613281 0.28125 -5.75 C 0.144531 -5.894531 -0.0078125 -5.976562 -0.1875 -6 C -0.363281 -6.03125 -0.550781 -5.957031 -0.75 -5.78125 C -0.90625 -5.632812 -1 -5.457031 -1.03125 -5.25 C -1.070312 -5.039062 -1.0625 -4.832031 -1 -4.625 C -0.9375 -4.425781 -0.835938 -4.25 -0.703125 -4.09375 C -0.578125 -3.945312 -0.425781 -3.859375 -0.25 -3.828125 C -0.0703125 -3.796875 0.109375 -3.863281 0.296875 -4.03125 Z M 0.296875 -4.03125 "/></g></g></g><g fill="#ffde59" fill-opacity="1"><g transform="translate(215.505358, 164.782233)"><g><path d="M 1.953125 -1.015625 C 1.503906 -0.597656 1.050781 -0.328125 0.59375 -0.203125 C 0.132812 -0.0859375 -0.296875 -0.0976562 -0.703125 -0.234375 C -1.117188 -0.378906 -1.484375 -0.625 -1.796875 -0.96875 C -2.035156 -1.226562 -2.207031 -1.519531 -2.3125 -1.84375 C -2.425781 -2.175781 -2.460938 -2.503906 -2.421875 -2.828125 C -2.378906 -3.148438 -2.234375 -3.421875 -1.984375 -3.640625 C -1.890625 -3.734375 -1.804688 -3.738281 -1.734375 -3.65625 C -1.503906 -3.414062 -1.210938 -3.304688 -0.859375 -3.328125 C -0.515625 -3.359375 -0.1875 -3.515625 0.125 -3.796875 C 0.332031 -3.992188 0.503906 -4.265625 0.640625 -4.609375 C 0.785156 -4.953125 0.859375 -5.351562 0.859375 -5.8125 C 0.859375 -6.269531 0.753906 -6.769531 0.546875 -7.3125 C 0.347656 -7.820312 0.148438 -8.335938 -0.046875 -8.859375 C -0.242188 -9.390625 -0.398438 -9.828125 -0.515625 -10.171875 C -0.890625 -9.960938 -1.179688 -9.695312 -1.390625 -9.375 C -1.597656 -9.0625 -1.695312 -8.738281 -1.6875 -8.40625 C -1.675781 -8.070312 -1.535156 -7.757812 -1.265625 -7.46875 C -1.140625 -7.320312 -0.992188 -7.226562 -0.828125 -7.1875 C -0.671875 -7.15625 -0.539062 -7.1875 -0.4375 -7.28125 C -0.289062 -7.21875 -0.171875 -7.09375 -0.078125 -6.90625 C 0.015625 -6.726562 0.0664062 -6.515625 0.078125 -6.265625 C 0.0859375 -6.023438 0.0390625 -5.773438 -0.0625 -5.515625 C -0.164062 -5.253906 -0.335938 -5.015625 -0.578125 -4.796875 C -0.847656 -4.554688 -1.128906 -4.410156 -1.421875 -4.359375 C -1.710938 -4.316406 -1.992188 -4.347656 -2.265625 -4.453125 C -2.546875 -4.566406 -2.789062 -4.734375 -3 -4.953125 C -3.394531 -5.390625 -3.679688 -5.878906 -3.859375 -6.421875 C -4.035156 -6.972656 -4.085938 -7.546875 -4.015625 -8.140625 C -3.953125 -8.742188 -3.769531 -9.335938 -3.46875 -9.921875 C -3.175781 -10.515625 -2.75 -11.0625 -2.1875 -11.5625 C -1.5 -12.195312 -0.925781 -12.4375 -0.46875 -12.28125 C -0.0195312 -12.132812 0.347656 -11.707031 0.640625 -11 C 0.742188 -10.757812 0.867188 -10.472656 1.015625 -10.140625 C 1.160156 -9.816406 1.3125 -9.460938 1.46875 -9.078125 C 1.632812 -8.691406 1.796875 -8.316406 1.953125 -7.953125 C 2.117188 -7.585938 2.265625 -7.265625 2.390625 -6.984375 C 3.003906 -5.554688 3.269531 -4.375 3.1875 -3.4375 C 3.101562 -2.5 2.691406 -1.691406 1.953125 -1.015625 Z M 1.953125 -1.015625 "/></g></g></g><g fill="#ffde59" fill-opacity="1"><g transform="translate(220.683402, 160.073791)"><g><path d="M 2.5 -7.265625 C 2.488281 -7.359375 2.53125 -7.4375 2.625 -7.5 C 2.726562 -7.5625 2.835938 -7.59375 2.953125 -7.59375 C 3.066406 -7.59375 3.132812 -7.535156 3.15625 -7.421875 C 3.25 -7.128906 3.316406 -6.8125 3.359375 -6.46875 C 3.410156 -6.125 3.390625 -5.78125 3.296875 -5.4375 C 3.203125 -5.09375 2.988281 -4.769531 2.65625 -4.46875 L 2.546875 -4.359375 C 2.597656 -3.796875 2.546875 -3.253906 2.390625 -2.734375 C 2.234375 -2.222656 1.972656 -1.800781 1.609375 -1.46875 C 1.160156 -1.050781 0.65625 -0.859375 0.09375 -0.890625 C -0.46875 -0.929688 -0.988281 -1.207031 -1.46875 -1.71875 C -1.800781 -2.09375 -2.078125 -2.539062 -2.296875 -3.0625 C -2.515625 -3.582031 -2.648438 -4.113281 -2.703125 -4.65625 C -2.765625 -5.207031 -2.71875 -5.734375 -2.5625 -6.234375 C -2.414062 -6.742188 -2.140625 -7.179688 -1.734375 -7.546875 C -1.460938 -7.796875 -1.164062 -7.960938 -0.84375 -8.046875 C -0.519531 -8.128906 -0.179688 -8.101562 0.171875 -7.96875 C 0.535156 -7.832031 0.910156 -7.554688 1.296875 -7.140625 C 1.617188 -6.785156 1.875 -6.40625 2.0625 -6 L 2.140625 -6.0625 C 2.285156 -6.1875 2.390625 -6.34375 2.453125 -6.53125 C 2.515625 -6.726562 2.53125 -6.972656 2.5 -7.265625 Z M 0.296875 -4.03125 C 0.460938 -4.1875 0.5625 -4.375 0.59375 -4.59375 C 0.632812 -4.8125 0.625 -5.023438 0.5625 -5.234375 C 0.5 -5.441406 0.40625 -5.613281 0.28125 -5.75 C 0.144531 -5.894531 -0.0078125 -5.976562 -0.1875 -6 C -0.363281 -6.03125 -0.550781 -5.957031 -0.75 -5.78125 C -0.90625 -5.632812 -1 -5.457031 -1.03125 -5.25 C -1.070312 -5.039062 -1.0625 -4.832031 -1 -4.625 C -0.9375 -4.425781 -0.835938 -4.25 -0.703125 -4.09375 C -0.578125 -3.945312 -0.425781 -3.859375 -0.25 -3.828125 C -0.0703125 -3.796875 0.109375 -3.863281 0.296875 -4.03125 Z M 0.296875 -4.03125 "/></g></g></g><g fill="#ffde59" fill-opacity="1"><g transform="translate(225.432435, 155.755452)"><g/></g></g><g fill="#ffde59" fill-opacity="1"><g transform="translate(229.024141, 152.489481)"><g><path d="M 1.75 -10.40625 L 0.75 -9.5 C 0.9375 -9.101562 1.113281 -8.722656 1.28125 -8.359375 C 1.445312 -7.992188 1.601562 -7.648438 1.75 -7.328125 L 2.59375 -8.109375 L 2.875 -7.8125 L 1.9375 -6.9375 C 2.34375 -6.050781 2.65625 -5.320312 2.875 -4.75 C 3.09375 -4.1875 3.222656 -3.75 3.265625 -3.4375 C 3.304688 -3.132812 3.253906 -2.921875 3.109375 -2.796875 C 2.890625 -2.597656 2.6875 -2.601562 2.5 -2.8125 C 2.300781 -3.03125 2.078125 -3.425781 1.828125 -4 C 1.585938 -4.570312 1.320312 -5.28125 1.03125 -6.125 L 0.046875 -5.234375 C 0.421875 -4.304688 0.707031 -3.550781 0.90625 -2.96875 C 1.113281 -2.394531 1.234375 -1.953125 1.265625 -1.640625 C 1.304688 -1.328125 1.253906 -1.109375 1.109375 -0.984375 C 0.890625 -0.773438 0.6875 -0.773438 0.5 -0.984375 C 0.300781 -1.203125 0.0859375 -1.609375 -0.140625 -2.203125 C -0.367188 -2.796875 -0.613281 -3.523438 -0.875 -4.390625 L -1.421875 -3.890625 L -1.703125 -4.1875 L -1.015625 -4.8125 L -1.734375 -7.25 L -2.546875 -6.5 L -2.828125 -6.796875 L -1.859375 -7.671875 L -2.8125 -11 L -2.515625 -11.125 L -1.265625 -8.21875 L -0.03125 -9.34375 C -0.164062 -9.851562 -0.316406 -10.382812 -0.484375 -10.9375 C -0.660156 -11.488281 -0.835938 -12.054688 -1.015625 -12.640625 L -0.734375 -12.75 L 0.5625 -9.890625 L 1.46875 -10.703125 Z M 0.875 -6.53125 L 0.109375 -8.921875 L -1.078125 -7.828125 C -0.910156 -7.421875 -0.742188 -7.03125 -0.578125 -6.65625 C -0.421875 -6.289062 -0.269531 -5.945312 -0.125 -5.625 Z M 0.875 -6.53125 "/></g></g></g><g fill="#ffde59" fill-opacity="1"><g transform="translate(234.780854, 147.25485)"><g><path d="M 1.71875 -1.546875 C 1.289062 -1.148438 0.867188 -0.984375 0.453125 -1.046875 C 0.0351562 -1.109375 -0.328125 -1.3125 -0.640625 -1.65625 C -0.898438 -1.9375 -1.101562 -2.296875 -1.25 -2.734375 C -1.394531 -3.179688 -1.476562 -3.742188 -1.5 -4.421875 C -1.53125 -5.117188 -1.507812 -5.75 -1.4375 -6.3125 C -1.375 -6.875 -1.300781 -7.351562 -1.21875 -7.75 C -1.144531 -8.15625 -1.085938 -8.472656 -1.046875 -8.703125 C -1.003906 -8.929688 -1.023438 -9.070312 -1.109375 -9.125 C -1.179688 -9.164062 -1.234375 -9.148438 -1.265625 -9.078125 C -1.304688 -9.003906 -1.351562 -8.890625 -1.40625 -8.734375 C -1.46875 -8.578125 -1.5625 -8.410156 -1.6875 -8.234375 C -1.820312 -8.066406 -2.023438 -7.914062 -2.296875 -7.78125 C -2.597656 -7.625 -2.8125 -7.472656 -2.9375 -7.328125 C -3.0625 -7.191406 -3.140625 -7.054688 -3.171875 -6.921875 C -3.210938 -6.796875 -3.242188 -6.675781 -3.265625 -6.5625 C -3.285156 -6.445312 -3.347656 -6.34375 -3.453125 -6.25 C -3.503906 -6.195312 -3.582031 -6.175781 -3.6875 -6.1875 C -3.800781 -6.195312 -3.890625 -6.285156 -3.953125 -6.453125 L -4.671875 -8.28125 C -4.878906 -8.84375 -4.753906 -9.328125 -4.296875 -9.734375 C -3.828125 -10.160156 -3.414062 -10.492188 -3.0625 -10.734375 C -2.707031 -10.972656 -2.398438 -11.160156 -2.140625 -11.296875 C -1.890625 -11.441406 -1.695312 -11.578125 -1.5625 -11.703125 C -1.4375 -11.816406 -1.363281 -11.925781 -1.34375 -12.03125 C -1.332031 -12.132812 -1.328125 -12.226562 -1.328125 -12.3125 C -1.328125 -12.394531 -1.289062 -12.472656 -1.21875 -12.546875 C -1.132812 -12.617188 -1.035156 -12.65625 -0.921875 -12.65625 C -0.804688 -12.664062 -0.671875 -12.582031 -0.515625 -12.40625 C -0.328125 -12.195312 -0.191406 -11.894531 -0.109375 -11.5 C -0.0351562 -11.101562 -0.00390625 -10.644531 -0.015625 -10.125 C -0.0234375 -9.601562 -0.0390625 -9.0625 -0.0625 -8.5 C -0.09375 -7.945312 -0.101562 -7.398438 -0.09375 -6.859375 C -0.0820312 -6.359375 -0.0234375 -5.957031 0.078125 -5.65625 C 0.191406 -5.363281 0.320312 -5.171875 0.46875 -5.078125 C 0.613281 -4.984375 0.738281 -4.984375 0.84375 -5.078125 C 0.945312 -5.171875 0.988281 -5.253906 0.96875 -5.328125 C 0.945312 -5.398438 0.96875 -5.46875 1.03125 -5.53125 C 1.125 -5.613281 1.226562 -5.59375 1.34375 -5.46875 C 1.457031 -5.332031 1.59375 -5.148438 1.75 -4.921875 C 1.90625 -4.703125 2.039062 -4.453125 2.15625 -4.171875 C 2.269531 -3.890625 2.34375 -3.59375 2.375 -3.28125 C 2.414062 -2.96875 2.390625 -2.660156 2.296875 -2.359375 C 2.203125 -2.066406 2.007812 -1.796875 1.71875 -1.546875 Z M 1.71875 -1.546875 "/></g></g></g></svg>