<svg xmlns="http://www.w3.org/2000/svg" xmlns:xlink="http://www.w3.org/1999/xlink" width="500" zoomAndPan="magnify" viewBox="0 0 375 374.999991" height="500" preserveAspectRatio="xMidYMid meet" version="1.0"><defs><g/><clipPath id="d342ebc400"><path d="M 130 113 L 245.875 113 L 245.875 261 L 130 261 Z M 130 113 " clip-rule="nonzero"/></clipPath></defs><g clip-path="url(#d342ebc400)"><path fill="#5271ff" d="M 195.3125 260.941406 C 194.6875 260.941406 194.171875 260.441406 194.148438 259.820312 C 194.128906 259.171875 194.625 258.632812 195.269531 258.613281 C 212.015625 257.96875 217.175781 251.578125 218.023438 250.320312 C 218.074219 242.082031 219.945312 234.972656 221.925781 227.460938 C 224.335938 218.3125 226.832031 208.847656 226.832031 195.5 C 226.726562 193.878906 226.949219 192.273438 227.488281 190.726562 L 242.59375 148.261719 C 243.597656 145.445312 242.117188 142.347656 239.3125 141.34375 C 236.488281 140.339844 233.390625 141.820312 232.394531 144.632812 C 228.90625 154.457031 226.304688 161.957031 224.316406 167.667969 C 219.078125 182.761719 218.277344 185.078125 216.5625 185.757812 C 215.640625 186.128906 214.796875 185.695312 214.296875 185.429688 C 211.515625 184.023438 211.515625 184.023438 217.089844 160.910156 C 218.964844 153.148438 221.492188 142.675781 224.824219 128.511719 C 225.5 125.605469 223.691406 122.675781 220.78125 121.996094 C 219.375 121.667969 217.9375 121.902344 216.699219 122.664062 C 215.460938 123.425781 214.605469 124.621094 214.277344 126.027344 L 202.609375 178.816406 C 202.039062 180.140625 200.980469 180.699219 199.890625 180.46875 C 198.910156 180.246094 197.902344 179.304688 197.902344 177.664062 L 197.902344 120.835938 C 197.902344 117.851562 195.480469 115.417969 192.488281 115.417969 C 189.503906 115.417969 187.082031 117.851562 187.082031 120.835938 C 187.082031 179.25 185.304688 180.351562 184.144531 181.082031 C 183.699219 181.355469 183.222656 181.386719 182.703125 181.167969 C 179.097656 181.132812 178.917969 179.90625 175.808594 158.402344 C 174.886719 152.078125 173.714844 143.933594 172.117188 133.421875 C 171.660156 130.46875 168.890625 128.4375 165.941406 128.882812 C 164.492188 129.105469 163.210938 129.878906 162.34375 131.074219 C 161.507812 132.234375 161.167969 133.644531 161.402344 135.027344 C 170.042969 187.480469 168.085938 190.347656 166.023438 193.382812 C 165.398438 194.324219 164.375 194.769531 163.179688 194.652344 C 157.5 194.101562 145.769531 179.75 144.191406 176.058594 C 142.871094 172.925781 139.242188 171.457031 136.113281 172.789062 C 132.992188 174.113281 131.519531 177.738281 132.84375 180.871094 L 132.96875 181.15625 C 136.523438 189.628906 149.363281 218.050781 165.261719 228.351562 C 165.507812 228.5 165.675781 228.742188 165.75 229.019531 C 167.558594 235.648438 167.960938 236.496094 168.171875 236.941406 C 168.308594 237.226562 168.414062 237.4375 168.617188 238.175781 C 169.144531 240.050781 169.050781 240.925781 168.722656 243.847656 C 168.476562 246.058594 168.078125 249.683594 167.683594 256.160156 C 168.011719 256.253906 168.371094 256.347656 168.816406 256.453125 C 168.816406 256.453125 168.828125 256.453125 168.828125 256.464844 C 169.355469 256.570312 169.757812 257.035156 169.757812 257.597656 C 169.757812 258.347656 169.050781 258.941406 168.265625 258.71875 L 168.257812 258.730469 C 167.324219 258.496094 166.699219 258.304688 166.375 258.199219 C 165.867188 258.042969 165.273438 257.46875 165.304688 256.941406 C 165.707031 249.832031 166.140625 245.921875 166.40625 243.59375 C 166.710938 240.820312 166.773438 240.25 166.375 238.789062 C 166.226562 238.292969 166.160156 238.144531 166.066406 237.945312 C 165.769531 237.34375 165.378906 236.507812 163.625 230.054688 C 147.789062 219.507812 135.425781 193.023438 130.8125 182.066406 L 130.695312 181.78125 C 128.867188 177.464844 130.886719 172.460938 135.203125 170.640625 C 137.296875 169.753906 139.601562 169.730469 141.707031 170.589844 C 143.8125 171.433594 145.453125 173.054688 146.339844 175.148438 C 147.777344 178.511719 159.054688 191.914062 163.402344 192.335938 C 163.855469 192.378906 163.992188 192.242188 164.097656 192.082031 C 165.652344 189.785156 167.589844 186.941406 159.097656 135.410156 C 158.769531 133.398438 159.246094 131.367188 160.460938 129.707031 C 161.6875 128.003906 163.515625 126.894531 165.589844 126.578125 C 169.820312 125.933594 173.777344 128.851562 174.421875 133.070312 C 176.019531 143.585938 177.203125 151.742188 178.113281 158.066406 C 180.949219 177.675781 181.222656 178.839844 182.914062 178.839844 C 183.667969 176.46875 184.746094 165.289062 184.746094 120.835938 C 184.746094 116.5625 188.226562 113.089844 192.488281 113.089844 C 196.761719 113.089844 200.242188 116.5625 200.242188 120.835938 L 200.242188 177.664062 C 200.242188 178.035156 200.367188 178.171875 200.398438 178.183594 L 212.003906 125.507812 C 212.480469 123.476562 213.707031 121.777344 215.472656 120.675781 C 217.226562 119.585938 219.324219 119.257812 221.320312 119.722656 C 225.480469 120.707031 228.058594 124.886719 227.085938 129.042969 C 223.753906 143.214844 221.226562 153.699219 219.355469 161.449219 C 215.820312 176.121094 214.351562 182.203125 214.804688 183.058594 C 214.839844 183.089844 215.019531 183.1875 215.15625 183.25 C 215.671875 183.523438 215.789062 183.558594 215.832031 183.566406 C 216.5 183.058594 218.382812 177.664062 222.105469 166.910156 C 224.09375 161.195312 226.707031 153.675781 230.195312 143.851562 C 231.625 139.832031 236.066406 137.714844 240.085938 139.144531 C 244.117188 140.582031 246.21875 145.011719 244.792969 149.03125 L 229.6875 191.511719 C 229.253906 192.75 229.074219 194.039062 229.160156 195.359375 C 229.171875 209.144531 226.515625 219.191406 224.175781 228.054688 C 222.222656 235.523438 220.359375 242.566406 220.359375 250.660156 C 220.359375 250.847656 220.316406 251.027344 220.230469 251.199219 C 220.042969 251.558594 215.34375 260.179688 195.355469 260.941406 C 195.34375 260.941406 195.324219 260.941406 195.3125 260.941406 " fill-opacity="1" fill-rule="nonzero"/></g><path fill="#5271ff" d="M 188.023438 261.636719 C 182.027344 261.636719 175.386719 260.664062 168.308594 258.730469 C 168.289062 258.730469 168.265625 258.730469 168.246094 258.71875 C 167.578125 258.539062 166.921875 258.359375 166.289062 258.167969 L 166.46875 257.003906 L 166.890625 255.914062 C 167.546875 256.105469 168.183594 256.285156 168.828125 256.464844 C 168.847656 256.464844 168.878906 256.464844 168.902344 256.476562 C 177.988281 258.949219 186.320312 259.820312 193.386719 259.015625 C 193.925781 258.949219 194.457031 258.835938 194.941406 258.664062 C 198.441406 257.511719 200.675781 254.023438 200.253906 250.363281 C 199.753906 246.078125 195.875 243.011719 191.601562 243.496094 C 183.242188 244.460938 173.671875 241.902344 167.101562 239.585938 C 166.5 239.371094 166.183594 238.707031 166.394531 238.09375 C 166.605469 237.488281 167.273438 237.171875 167.886719 237.382812 C 173.070312 239.214844 182.988281 242.121094 191.335938 241.179688 C 194.011719 240.863281 196.675781 241.625 198.792969 243.308594 C 200.917969 244.988281 202.261719 247.402344 202.570312 250.097656 C 203.117188 254.847656 200.230469 259.382812 195.671875 260.875 C 195.039062 261.097656 194.359375 261.246094 193.652344 261.332031 C 191.855469 261.53125 189.960938 261.636719 188.023438 261.636719 " fill-opacity="1" fill-rule="nonzero"/><path fill="#5271ff" d="M 164.628906 230.488281 C 164.078125 230.488281 163.582031 230.097656 163.484375 229.546875 C 161 216.441406 163.78125 193.550781 163.910156 192.589844 C 163.984375 191.957031 164.566406 191.488281 165.210938 191.574219 C 165.84375 191.660156 166.300781 192.242188 166.214844 192.875 C 166.195312 193.109375 163.359375 216.367188 165.769531 229.113281 C 165.886719 229.746094 165.472656 230.351562 164.839844 230.464844 C 164.765625 230.488281 164.703125 230.488281 164.628906 230.488281 " fill-opacity="1" fill-rule="nonzero"/><path fill="#5271ff" d="M 227.859375 201.960938 C 227.6875 201.960938 227.519531 201.929688 227.351562 201.84375 C 218.296875 197.421875 202.621094 192.9375 196.308594 191.203125 C 193.925781 190.558594 191.367188 190.390625 188.902344 190.71875 L 165.21875 193.890625 C 164.566406 193.984375 163.992188 193.519531 163.910156 192.886719 C 163.824219 192.25 164.269531 191.660156 164.902344 191.574219 L 188.597656 188.410156 C 191.367188 188.042969 194.253906 188.230469 196.921875 188.960938 C 204.851562 191.128906 219.480469 195.402344 228.375 199.75 C 228.957031 200.027344 229.191406 200.722656 228.90625 201.304688 C 228.703125 201.71875 228.292969 201.960938 227.859375 201.960938 " fill-opacity="1" fill-rule="nonzero"/><path fill="#5271ff" d="M 192.910156 228.785156 C 191.714844 228.785156 190.519531 228.617188 189.335938 228.277344 C 172.011719 223.371094 163.570312 218.125 163.222656 217.902344 C 161.507812 217.277344 144.617188 210.699219 141.875 204.265625 C 141.621094 203.675781 141.898438 202.996094 142.488281 202.742188 C 143.082031 202.480469 143.769531 202.765625 144.023438 203.355469 C 146.011719 208.03125 159.296875 213.945312 164.257812 215.828125 C 164.542969 215.976562 173.015625 221.222656 189.972656 226.035156 C 191.492188 226.46875 193.039062 226.554688 194.582031 226.320312 C 200.199219 225.421875 217.410156 220.511719 225.234375 215.066406 C 225.765625 214.695312 226.484375 214.824219 226.855469 215.351562 C 227.222656 215.878906 227.097656 216.609375 226.566406 216.980469 C 218.601562 222.523438 201.5 227.578125 194.953125 228.617188 C 194.277344 228.730469 193.589844 228.785156 192.910156 228.785156 " fill-opacity="1" fill-rule="nonzero"/><path fill="#5271ff" d="M 195.4375 243.941406 C 194.792969 243.941406 194.277344 243.421875 194.277344 242.777344 C 194.277344 242.132812 194.792969 241.605469 195.4375 241.605469 C 214.257812 241.605469 220.71875 232.253906 220.78125 232.160156 C 221.132812 231.621094 221.859375 231.472656 222.402344 231.832031 C 222.929688 232.179688 223.078125 232.898438 222.730469 233.4375 C 222.441406 233.863281 215.621094 243.941406 195.4375 243.941406 " fill-opacity="1" fill-rule="nonzero"/><path fill="#5271ff" d="M 145.101562 187.195312 C 137.222656 187.195312 132.714844 185.175781 132.472656 185.058594 C 131.890625 184.792969 131.636719 184.105469 131.902344 183.515625 C 132.167969 182.933594 132.855469 182.667969 133.445312 182.941406 C 133.511719 182.976562 140.492188 186.0625 152.167969 184.328125 C 152.8125 184.222656 153.40625 184.667969 153.5 185.300781 C 153.597656 185.9375 153.152344 186.539062 152.515625 186.625 C 149.796875 187.035156 147.3125 187.195312 145.101562 187.195312 " fill-opacity="1" fill-rule="nonzero"/><path fill="#5271ff" d="M 185.855469 137.882812 C 185.582031 137.882812 185.296875 137.789062 185.074219 137.578125 C 184.597656 137.144531 184.566406 136.414062 185 135.9375 C 185.191406 135.726562 189.707031 130.894531 194.425781 131.367188 C 196.699219 131.589844 198.601562 132.964844 200.070312 135.429688 C 200.410156 135.992188 200.230469 136.699219 199.671875 137.027344 C 199.121094 137.367188 198.402344 137.1875 198.074219 136.625 C 196.984375 134.804688 195.714844 133.84375 194.191406 133.683594 C 190.585938 133.292969 186.753906 137.472656 186.722656 137.503906 C 186.492188 137.757812 186.171875 137.882812 185.855469 137.882812 " fill-opacity="1" fill-rule="nonzero"/><path fill="#5271ff" d="M 222.527344 144.421875 C 221.945312 144.421875 221.4375 143.988281 221.375 143.394531 C 221.164062 141.753906 220.527344 140.644531 219.429688 140.011719 C 216.847656 138.496094 212.152344 139.871094 210.566406 140.527344 C 209.960938 140.761719 209.285156 140.488281 209.042969 139.894531 C 208.796875 139.292969 209.074219 138.613281 209.675781 138.371094 C 209.953125 138.253906 216.488281 135.601562 220.601562 137.992188 C 222.347656 139.003906 223.382812 140.730469 223.691406 143.109375 C 223.765625 143.746094 223.308594 144.324219 222.675781 144.410156 C 222.621094 144.410156 222.582031 144.421875 222.527344 144.421875 " fill-opacity="1" fill-rule="nonzero"/><path fill="#5271ff" d="M 238.871094 163.398438 C 238.246094 163.398438 237.726562 162.910156 237.695312 162.277344 C 237.601562 159.820312 236.859375 158.183594 235.515625 157.390625 C 233.03125 155.90625 228.714844 157.453125 227.265625 158.171875 C 226.695312 158.445312 225.988281 158.214844 225.710938 157.644531 C 225.425781 157.0625 225.660156 156.363281 226.238281 156.078125 C 226.492188 155.949219 232.640625 152.96875 236.710938 155.378906 C 238.773438 156.59375 239.882812 158.878906 240.03125 162.179688 C 240.054688 162.824219 239.558594 163.363281 238.921875 163.398438 C 238.902344 163.398438 238.878906 163.398438 238.871094 163.398438 " fill-opacity="1" fill-rule="nonzero"/><path fill="#5271ff" d="M 162.257812 148.96875 C 162.035156 148.96875 161.816406 148.90625 161.625 148.777344 C 161.085938 148.417969 160.9375 147.699219 161.285156 147.160156 C 162.140625 145.871094 164.53125 142.78125 168.257812 142.082031 C 170.699219 141.617188 173.207031 142.273438 175.691406 144.039062 C 176.210938 144.410156 176.335938 145.140625 175.964844 145.660156 C 175.597656 146.1875 174.867188 146.316406 174.335938 145.945312 C 172.390625 144.558594 170.488281 144.03125 168.691406 144.367188 C 165.761719 144.929688 163.769531 147.636719 163.230469 148.449219 C 163.007812 148.789062 162.640625 148.96875 162.257812 148.96875 " fill-opacity="1" fill-rule="nonzero"/><path fill="#5271ff" d="M 187.792969 253.261719 C 178.210938 253.261719 167.261719 250.742188 166.722656 250.617188 C 166.097656 250.46875 165.707031 249.84375 165.855469 249.210938 C 166.003906 248.585938 166.636719 248.195312 167.261719 248.34375 C 167.410156 248.375 182.472656 251.84375 192.328125 250.691406 C 192.933594 250.617188 193.546875 251.070312 193.628906 251.714844 C 193.695312 252.351562 193.238281 252.933594 192.605469 253.007812 C 191.082031 253.1875 189.453125 253.261719 187.792969 253.261719 " fill-opacity="1" fill-rule="nonzero"/><path fill="#5271ff" d="M 172.179688 214.644531 C 171.546875 214.644531 171.015625 214.125 171.015625 213.480469 L 171.015625 198.523438 C 171.015625 197.890625 171.546875 197.359375 172.179688 197.359375 C 172.824219 197.359375 173.355469 197.890625 173.355469 198.523438 L 173.355469 213.480469 C 173.355469 214.125 172.824219 214.644531 172.179688 214.644531 " fill-opacity="1" fill-rule="nonzero"/><path fill="#5271ff" d="M 173.511719 233.96875 C 172.984375 233.96875 172.496094 233.597656 172.382812 233.058594 L 171.046875 227.199219 C 170.910156 226.574219 171.300781 225.949219 171.925781 225.800781 C 172.5625 225.664062 173.175781 226.054688 173.324219 226.679688 L 174.65625 232.539062 C 174.792969 233.164062 174.402344 233.796875 173.777344 233.9375 C 173.683594 233.957031 173.597656 233.96875 173.511719 233.96875 " fill-opacity="1" fill-rule="nonzero"/><g fill="#ffde59" fill-opacity="1"><g transform="translate(175.49034, 209.862147)"><g><path d="M 2.140625 0.5625 C 1.523438 0.5625 1.003906 0.453125 0.578125 0.234375 C 0.160156 0.015625 -0.148438 -0.28125 -0.359375 -0.65625 C -0.566406 -1.039062 -0.671875 -1.460938 -0.671875 -1.921875 C -0.671875 -2.273438 -0.597656 -2.609375 -0.453125 -2.921875 C -0.316406 -3.242188 -0.128906 -3.507812 0.109375 -3.71875 C 0.359375 -3.925781 0.648438 -4.03125 0.984375 -4.03125 C 1.117188 -4.03125 1.1875 -3.976562 1.1875 -3.875 C 1.1875 -3.539062 1.328125 -3.265625 1.609375 -3.046875 C 1.890625 -2.835938 2.238281 -2.734375 2.65625 -2.734375 C 2.945312 -2.734375 3.253906 -2.8125 3.578125 -2.96875 C 3.910156 -3.125 4.226562 -3.375 4.53125 -3.71875 C 4.84375 -4.0625 5.101562 -4.503906 5.3125 -5.046875 C 5.507812 -5.554688 5.710938 -6.070312 5.921875 -6.59375 C 6.140625 -7.113281 6.316406 -7.539062 6.453125 -7.875 C 6.035156 -7.96875 5.644531 -7.96875 5.28125 -7.875 C 4.914062 -7.78125 4.625 -7.601562 4.40625 -7.34375 C 4.1875 -7.09375 4.078125 -6.769531 4.078125 -6.375 C 4.078125 -6.175781 4.125 -6.007812 4.21875 -5.875 C 4.320312 -5.75 4.441406 -5.6875 4.578125 -5.6875 C 4.640625 -5.539062 4.644531 -5.367188 4.59375 -5.171875 C 4.539062 -4.972656 4.4375 -4.78125 4.28125 -4.59375 C 4.125 -4.40625 3.921875 -4.25 3.671875 -4.125 C 3.421875 -4 3.132812 -3.9375 2.8125 -3.9375 C 2.445312 -3.9375 2.140625 -4.019531 1.890625 -4.1875 C 1.640625 -4.351562 1.445312 -4.566406 1.3125 -4.828125 C 1.1875 -5.097656 1.125 -5.382812 1.125 -5.6875 C 1.125 -6.269531 1.242188 -6.820312 1.484375 -7.34375 C 1.722656 -7.875 2.066406 -8.335938 2.515625 -8.734375 C 2.960938 -9.140625 3.492188 -9.457031 4.109375 -9.6875 C 4.722656 -9.914062 5.40625 -10.03125 6.15625 -10.03125 C 7.09375 -10.03125 7.675781 -9.820312 7.90625 -9.40625 C 8.144531 -8.988281 8.132812 -8.421875 7.875 -7.703125 C 7.789062 -7.453125 7.691406 -7.15625 7.578125 -6.8125 C 7.460938 -6.476562 7.335938 -6.113281 7.203125 -5.71875 C 7.066406 -5.332031 6.929688 -4.945312 6.796875 -4.5625 C 6.671875 -4.1875 6.554688 -3.851562 6.453125 -3.5625 C 5.960938 -2.09375 5.367188 -1.035156 4.671875 -0.390625 C 3.984375 0.242188 3.140625 0.5625 2.140625 0.5625 Z M 2.140625 0.5625 "/></g></g></g><g fill="#ffde59" fill-opacity="1"><g transform="translate(182.489024, 209.862147)"><g><path d="M 6.734375 -3.6875 C 6.785156 -3.769531 6.867188 -3.800781 6.984375 -3.78125 C 7.097656 -3.757812 7.195312 -3.707031 7.28125 -3.625 C 7.375 -3.550781 7.390625 -3.460938 7.328125 -3.359375 C 7.203125 -3.085938 7.039062 -2.804688 6.84375 -2.515625 C 6.644531 -2.234375 6.394531 -1.992188 6.09375 -1.796875 C 5.789062 -1.609375 5.414062 -1.515625 4.96875 -1.515625 L 4.8125 -1.515625 C 4.476562 -1.054688 4.078125 -0.6875 3.609375 -0.40625 C 3.148438 -0.132812 2.671875 0 2.171875 0 C 1.566406 0 1.066406 -0.203125 0.671875 -0.609375 C 0.273438 -1.015625 0.078125 -1.566406 0.078125 -2.265625 C 0.078125 -2.765625 0.171875 -3.273438 0.359375 -3.796875 C 0.546875 -4.328125 0.800781 -4.816406 1.125 -5.265625 C 1.457031 -5.710938 1.847656 -6.070312 2.296875 -6.34375 C 2.753906 -6.613281 3.253906 -6.75 3.796875 -6.75 C 4.160156 -6.75 4.488281 -6.671875 4.78125 -6.515625 C 5.082031 -6.367188 5.320312 -6.125 5.5 -5.78125 C 5.675781 -5.4375 5.765625 -4.984375 5.765625 -4.421875 C 5.765625 -3.941406 5.695312 -3.476562 5.5625 -3.03125 L 5.65625 -3.03125 C 5.851562 -3.03125 6.039062 -3.082031 6.21875 -3.1875 C 6.394531 -3.289062 6.566406 -3.457031 6.734375 -3.6875 Z M 2.9375 -2.796875 C 3.164062 -2.796875 3.363281 -2.863281 3.53125 -3 C 3.707031 -3.132812 3.84375 -3.296875 3.9375 -3.484375 C 4.03125 -3.679688 4.078125 -3.875 4.078125 -4.0625 C 4.078125 -4.257812 4.019531 -4.425781 3.90625 -4.5625 C 3.789062 -4.707031 3.601562 -4.78125 3.34375 -4.78125 C 3.125 -4.78125 2.929688 -4.710938 2.765625 -4.578125 C 2.597656 -4.453125 2.46875 -4.289062 2.375 -4.09375 C 2.28125 -3.90625 2.234375 -3.710938 2.234375 -3.515625 C 2.234375 -3.316406 2.285156 -3.144531 2.390625 -3 C 2.503906 -2.863281 2.6875 -2.796875 2.9375 -2.796875 Z M 2.9375 -2.796875 "/></g></g></g><g fill="#ffde59" fill-opacity="1"><g transform="translate(188.907853, 209.862147)"><g><path d="M 2.140625 0.5625 C 1.523438 0.5625 1.003906 0.453125 0.578125 0.234375 C 0.160156 0.015625 -0.148438 -0.28125 -0.359375 -0.65625 C -0.566406 -1.039062 -0.671875 -1.460938 -0.671875 -1.921875 C -0.671875 -2.273438 -0.597656 -2.609375 -0.453125 -2.921875 C -0.316406 -3.242188 -0.128906 -3.507812 0.109375 -3.71875 C 0.359375 -3.925781 0.648438 -4.03125 0.984375 -4.03125 C 1.117188 -4.03125 1.1875 -3.976562 1.1875 -3.875 C 1.1875 -3.539062 1.328125 -3.265625 1.609375 -3.046875 C 1.890625 -2.835938 2.238281 -2.734375 2.65625 -2.734375 C 2.945312 -2.734375 3.253906 -2.8125 3.578125 -2.96875 C 3.910156 -3.125 4.226562 -3.375 4.53125 -3.71875 C 4.84375 -4.0625 5.101562 -4.503906 5.3125 -5.046875 C 5.507812 -5.554688 5.710938 -6.070312 5.921875 -6.59375 C 6.140625 -7.113281 6.316406 -7.539062 6.453125 -7.875 C 6.035156 -7.96875 5.644531 -7.96875 5.28125 -7.875 C 4.914062 -7.78125 4.625 -7.601562 4.40625 -7.34375 C 4.1875 -7.09375 4.078125 -6.769531 4.078125 -6.375 C 4.078125 -6.175781 4.125 -6.007812 4.21875 -5.875 C 4.320312 -5.75 4.441406 -5.6875 4.578125 -5.6875 C 4.640625 -5.539062 4.644531 -5.367188 4.59375 -5.171875 C 4.539062 -4.972656 4.4375 -4.78125 4.28125 -4.59375 C 4.125 -4.40625 3.921875 -4.25 3.671875 -4.125 C 3.421875 -4 3.132812 -3.9375 2.8125 -3.9375 C 2.445312 -3.9375 2.140625 -4.019531 1.890625 -4.1875 C 1.640625 -4.351562 1.445312 -4.566406 1.3125 -4.828125 C 1.1875 -5.097656 1.125 -5.382812 1.125 -5.6875 C 1.125 -6.269531 1.242188 -6.820312 1.484375 -7.34375 C 1.722656 -7.875 2.066406 -8.335938 2.515625 -8.734375 C 2.960938 -9.140625 3.492188 -9.457031 4.109375 -9.6875 C 4.722656 -9.914062 5.40625 -10.03125 6.15625 -10.03125 C 7.09375 -10.03125 7.675781 -9.820312 7.90625 -9.40625 C 8.144531 -8.988281 8.132812 -8.421875 7.875 -7.703125 C 7.789062 -7.453125 7.691406 -7.15625 7.578125 -6.8125 C 7.460938 -6.476562 7.335938 -6.113281 7.203125 -5.71875 C 7.066406 -5.332031 6.929688 -4.945312 6.796875 -4.5625 C 6.671875 -4.1875 6.554688 -3.851562 6.453125 -3.5625 C 5.960938 -2.09375 5.367188 -1.035156 4.671875 -0.390625 C 3.984375 0.242188 3.140625 0.5625 2.140625 0.5625 Z M 2.140625 0.5625 "/></g></g></g><g fill="#ffde59" fill-opacity="1"><g transform="translate(195.906536, 209.862147)"><g><path d="M 6.734375 -3.6875 C 6.785156 -3.769531 6.867188 -3.800781 6.984375 -3.78125 C 7.097656 -3.757812 7.195312 -3.707031 7.28125 -3.625 C 7.375 -3.550781 7.390625 -3.460938 7.328125 -3.359375 C 7.203125 -3.085938 7.039062 -2.804688 6.84375 -2.515625 C 6.644531 -2.234375 6.394531 -1.992188 6.09375 -1.796875 C 5.789062 -1.609375 5.414062 -1.515625 4.96875 -1.515625 L 4.8125 -1.515625 C 4.476562 -1.054688 4.078125 -0.6875 3.609375 -0.40625 C 3.148438 -0.132812 2.671875 0 2.171875 0 C 1.566406 0 1.066406 -0.203125 0.671875 -0.609375 C 0.273438 -1.015625 0.078125 -1.566406 0.078125 -2.265625 C 0.078125 -2.765625 0.171875 -3.273438 0.359375 -3.796875 C 0.546875 -4.328125 0.800781 -4.816406 1.125 -5.265625 C 1.457031 -5.710938 1.847656 -6.070312 2.296875 -6.34375 C 2.753906 -6.613281 3.253906 -6.75 3.796875 -6.75 C 4.160156 -6.75 4.488281 -6.671875 4.78125 -6.515625 C 5.082031 -6.367188 5.320312 -6.125 5.5 -5.78125 C 5.675781 -5.4375 5.765625 -4.984375 5.765625 -4.421875 C 5.765625 -3.941406 5.695312 -3.476562 5.5625 -3.03125 L 5.65625 -3.03125 C 5.851562 -3.03125 6.039062 -3.082031 6.21875 -3.1875 C 6.394531 -3.289062 6.566406 -3.457031 6.734375 -3.6875 Z M 2.9375 -2.796875 C 3.164062 -2.796875 3.363281 -2.863281 3.53125 -3 C 3.707031 -3.132812 3.84375 -3.296875 3.9375 -3.484375 C 4.03125 -3.679688 4.078125 -3.875 4.078125 -4.0625 C 4.078125 -4.257812 4.019531 -4.425781 3.90625 -4.5625 C 3.789062 -4.707031 3.601562 -4.78125 3.34375 -4.78125 C 3.125 -4.78125 2.929688 -4.710938 2.765625 -4.578125 C 2.597656 -4.453125 2.46875 -4.289062 2.375 -4.09375 C 2.28125 -3.90625 2.234375 -3.710938 2.234375 -3.515625 C 2.234375 -3.316406 2.285156 -3.144531 2.390625 -3 C 2.503906 -2.863281 2.6875 -2.796875 2.9375 -2.796875 Z M 2.9375 -2.796875 "/></g></g></g><g fill="#ffde59" fill-opacity="1"><g transform="translate(202.325365, 209.862147)"><g/></g></g><g fill="#ffde59" fill-opacity="1"><g transform="translate(207.179942, 209.862147)"><g><path d="M 8.296875 -6.53125 L 6.953125 -6.53125 C 6.816406 -6.101562 6.6875 -5.695312 6.5625 -5.3125 C 6.445312 -4.9375 6.335938 -4.582031 6.234375 -4.25 L 7.375 -4.25 L 7.375 -3.84375 L 6.09375 -3.84375 C 5.800781 -2.90625 5.546875 -2.148438 5.328125 -1.578125 C 5.109375 -1.015625 4.910156 -0.609375 4.734375 -0.359375 C 4.554688 -0.109375 4.375 0.015625 4.1875 0.015625 C 3.882812 0.015625 3.734375 -0.125 3.734375 -0.40625 C 3.734375 -0.695312 3.832031 -1.132812 4.03125 -1.71875 C 4.238281 -2.3125 4.519531 -3.019531 4.875 -3.84375 L 3.546875 -3.84375 C 3.210938 -2.90625 2.925781 -2.148438 2.6875 -1.578125 C 2.445312 -1.015625 2.234375 -0.609375 2.046875 -0.359375 C 1.859375 -0.109375 1.671875 0.015625 1.484375 0.015625 C 1.179688 0.015625 1.03125 -0.125 1.03125 -0.40625 C 1.03125 -0.695312 1.144531 -1.132812 1.375 -1.71875 C 1.601562 -2.3125 1.910156 -3.019531 2.296875 -3.84375 L 1.5625 -3.84375 L 1.5625 -4.25 L 2.484375 -4.25 L 3.59375 -6.53125 L 2.484375 -6.53125 L 2.484375 -6.9375 L 3.796875 -6.9375 L 5.328125 -10.03125 L 5.609375 -9.921875 L 4.59375 -6.9375 L 6.28125 -6.9375 C 6.507812 -7.40625 6.742188 -7.898438 6.984375 -8.421875 C 7.234375 -8.941406 7.488281 -9.476562 7.75 -10.03125 L 8.03125 -9.921875 L 7.078125 -6.9375 L 8.296875 -6.9375 Z M 5.046875 -4.25 L 6.078125 -6.53125 L 4.46875 -6.53125 C 4.320312 -6.101562 4.179688 -5.695312 4.046875 -5.3125 C 3.921875 -4.9375 3.800781 -4.582031 3.6875 -4.25 Z M 5.046875 -4.25 "/></g></g></g><g fill="#ffde59" fill-opacity="1"><g transform="translate(214.960758, 209.862147)"><g><path d="M 2.3125 0.03125 C 1.726562 0.03125 1.300781 -0.128906 1.03125 -0.453125 C 0.769531 -0.785156 0.640625 -1.1875 0.640625 -1.65625 C 0.640625 -2.03125 0.734375 -2.429688 0.921875 -2.859375 C 1.109375 -3.285156 1.421875 -3.757812 1.859375 -4.28125 C 2.304688 -4.820312 2.742188 -5.273438 3.171875 -5.640625 C 3.597656 -6.015625 3.976562 -6.320312 4.3125 -6.5625 C 4.644531 -6.8125 4.898438 -7.003906 5.078125 -7.140625 C 5.265625 -7.285156 5.347656 -7.40625 5.328125 -7.5 C 5.296875 -7.582031 5.238281 -7.609375 5.15625 -7.578125 C 5.082031 -7.546875 4.972656 -7.488281 4.828125 -7.40625 C 4.679688 -7.332031 4.5 -7.273438 4.28125 -7.234375 C 4.070312 -7.191406 3.820312 -7.210938 3.53125 -7.296875 C 3.207031 -7.390625 2.953125 -7.425781 2.765625 -7.40625 C 2.578125 -7.382812 2.425781 -7.335938 2.3125 -7.265625 C 2.195312 -7.191406 2.09375 -7.117188 2 -7.046875 C 1.90625 -6.984375 1.789062 -6.953125 1.65625 -6.953125 C 1.570312 -6.953125 1.492188 -6.988281 1.421875 -7.0625 C 1.347656 -7.144531 1.34375 -7.269531 1.40625 -7.4375 L 2.125 -9.28125 C 2.34375 -9.820312 2.757812 -10.09375 3.375 -10.09375 C 4.007812 -10.09375 4.535156 -10.0625 4.953125 -10 C 5.378906 -9.9375 5.734375 -9.875 6.015625 -9.8125 C 6.296875 -9.75 6.53125 -9.71875 6.71875 -9.71875 C 6.882812 -9.71875 7.007812 -9.75 7.09375 -9.8125 C 7.175781 -9.875 7.242188 -9.9375 7.296875 -10 C 7.359375 -10.0625 7.441406 -10.09375 7.546875 -10.09375 C 7.660156 -10.09375 7.757812 -10.054688 7.84375 -9.984375 C 7.925781 -9.910156 7.96875 -9.757812 7.96875 -9.53125 C 7.96875 -9.238281 7.859375 -8.921875 7.640625 -8.578125 C 7.429688 -8.234375 7.148438 -7.875 6.796875 -7.5 C 6.453125 -7.125 6.082031 -6.738281 5.6875 -6.34375 C 5.289062 -5.945312 4.910156 -5.546875 4.546875 -5.140625 C 4.210938 -4.765625 3.984375 -4.425781 3.859375 -4.125 C 3.742188 -3.832031 3.707031 -3.601562 3.75 -3.4375 C 3.800781 -3.269531 3.894531 -3.1875 4.03125 -3.1875 C 4.175781 -3.1875 4.265625 -3.21875 4.296875 -3.28125 C 4.328125 -3.351562 4.390625 -3.390625 4.484375 -3.390625 C 4.609375 -3.390625 4.671875 -3.304688 4.671875 -3.140625 C 4.671875 -2.960938 4.648438 -2.738281 4.609375 -2.46875 C 4.578125 -2.195312 4.507812 -1.914062 4.40625 -1.625 C 4.300781 -1.34375 4.15625 -1.070312 3.96875 -0.8125 C 3.789062 -0.5625 3.566406 -0.359375 3.296875 -0.203125 C 3.023438 -0.046875 2.695312 0.03125 2.3125 0.03125 Z M 2.3125 0.03125 "/></g></g></g></svg>