<svg xmlns="http://www.w3.org/2000/svg" xmlns:xlink="http://www.w3.org/1999/xlink" width="500" zoomAndPan="magnify" viewBox="0 0 375 374.999991" height="500" preserveAspectRatio="xMidYMid meet" version="1.0"><defs><g/><clipPath id="1971699534"><path d="M 114 113 L 261 113 L 261 262.5 L 114 262.5 Z M 114 113 " clip-rule="nonzero"/></clipPath></defs><g clip-path="url(#1971699534)"><path fill="#5271ff" d="M 221.828125 205.960938 C 222.320312 207.371094 221.570312 208.910156 220.164062 209.398438 L 215.695312 210.949219 L 217.242188 215.414062 C 217.730469 216.824219 216.984375 218.363281 215.574219 218.851562 C 215.28125 218.953125 214.984375 219 214.691406 219 C 213.574219 219 212.527344 218.300781 212.140625 217.183594 L 210.59375 212.71875 L 206.007812 214.304688 C 205.714844 214.40625 205.414062 214.457031 205.121094 214.457031 C 204.003906 214.457031 202.957031 213.753906 202.570312 212.636719 C 202.082031 211.230469 202.828125 209.691406 204.238281 209.203125 L 208.824219 207.613281 L 207.230469 203.027344 C 206.746094 201.617188 207.488281 200.078125 208.898438 199.589844 C 210.308594 199.101562 211.847656 199.847656 212.335938 201.257812 L 213.925781 205.84375 L 218.394531 204.296875 C 219.804688 203.808594 221.34375 204.554688 221.828125 205.960938 Z M 194.082031 194.820312 L 190.699219 198.125 L 194.003906 201.507812 C 195.046875 202.574219 195.027344 204.28125 193.960938 205.324219 C 193.4375 205.839844 192.753906 206.09375 192.074219 206.09375 C 191.371094 206.09375 190.671875 205.824219 190.140625 205.28125 L 186.835938 201.902344 L 183.367188 205.292969 C 182.84375 205.808594 182.160156 206.0625 181.480469 206.0625 C 180.777344 206.0625 180.078125 205.792969 179.546875 205.25 C 178.503906 204.183594 178.523438 202.472656 179.589844 201.429688 L 183.0625 198.039062 L 179.667969 194.566406 C 178.625 193.5 178.644531 191.792969 179.710938 190.75 C 180.777344 189.707031 182.488281 189.726562 183.53125 190.792969 L 186.921875 194.261719 L 190.304688 190.957031 C 191.375 189.914062 193.082031 189.933594 194.125 191 C 195.167969 192.066406 195.148438 193.777344 194.082031 194.820312 Z M 248.484375 210.414062 C 244.25 222.296875 238.25 233.292969 230.652344 243.09375 C 222.703125 253.351562 207.742188 256.082031 199.53125 256.800781 C 193.90625 257.285156 188.265625 257.113281 182.769531 256.28125 L 182.414062 256.226562 C 177.472656 255.480469 173.207031 254.835938 169.308594 252.285156 C 165.519531 249.808594 162.296875 246.28125 159.378906 242.839844 C 153.652344 236.09375 149.101562 228.460938 145.402344 221.882812 C 136.066406 205.273438 128.023438 187.773438 121.496094 169.871094 C 120.242188 166.429688 119.15625 163.085938 119.671875 160.039062 C 119.988281 158.15625 121.007812 156.683594 122.460938 155.992188 C 122.621094 155.914062 122.785156 155.851562 122.949219 155.800781 C 123 155.78125 123.054688 155.769531 123.105469 155.753906 C 123.21875 155.722656 123.335938 155.691406 123.453125 155.671875 C 123.515625 155.65625 123.574219 155.648438 123.636719 155.640625 C 123.75 155.621094 123.863281 155.609375 123.976562 155.601562 C 124.039062 155.597656 124.101562 155.59375 124.164062 155.59375 C 124.320312 155.589844 124.476562 155.589844 124.632812 155.605469 C 124.65625 155.605469 124.679688 155.609375 124.703125 155.613281 C 124.867188 155.628906 125.03125 155.652344 125.195312 155.6875 C 125.210938 155.691406 125.230469 155.691406 125.246094 155.695312 C 125.417969 155.734375 125.585938 155.78125 125.757812 155.839844 C 125.789062 155.847656 125.824219 155.859375 125.855469 155.871094 C 126.023438 155.929688 126.191406 155.996094 126.355469 156.074219 C 126.386719 156.085938 126.417969 156.101562 126.445312 156.113281 C 126.621094 156.195312 126.792969 156.289062 126.96875 156.390625 C 127.46875 156.6875 127.953125 157.035156 128.425781 157.4375 C 128.777344 157.738281 129.125 158.074219 129.46875 158.441406 C 129.59375 158.574219 129.71875 158.710938 129.839844 158.855469 C 130.742188 159.894531 131.621094 161.183594 132.535156 162.777344 C 133.238281 164.007812 133.90625 165.320312 134.554688 166.589844 C 135.273438 168.003906 136.019531 169.460938 136.816406 170.816406 C 136.816406 170.816406 136.816406 170.816406 136.816406 170.820312 C 136.820312 170.824219 136.824219 170.832031 136.828125 170.839844 C 136.855469 170.890625 136.886719 170.9375 136.914062 170.988281 L 146.027344 186.28125 C 146.027344 186.28125 146.03125 186.285156 146.03125 186.285156 L 149.117188 191.464844 C 149.707031 192.457031 150.335938 193.441406 150.984375 194.398438 C 151.402344 195.011719 151.835938 195.625 152.28125 196.230469 C 152.726562 196.832031 153.183594 197.429688 153.652344 198.015625 C 153.855469 198.269531 154.074219 198.582031 154.304688 198.914062 C 154.359375 198.992188 154.417969 199.074219 154.476562 199.160156 C 154.488281 199.175781 154.5 199.195312 154.515625 199.210938 C 154.574219 199.296875 154.636719 199.382812 154.703125 199.472656 C 154.714844 199.492188 154.726562 199.507812 154.742188 199.527344 C 154.808594 199.617188 154.878906 199.710938 154.949219 199.804688 C 154.960938 199.820312 154.972656 199.835938 154.980469 199.847656 C 155.054688 199.945312 155.128906 200.039062 155.210938 200.140625 C 155.214844 200.144531 155.21875 200.148438 155.222656 200.15625 C 155.300781 200.253906 155.382812 200.351562 155.46875 200.449219 C 155.484375 200.46875 155.5 200.484375 155.515625 200.5 C 155.597656 200.597656 155.683594 200.691406 155.773438 200.789062 C 155.789062 200.804688 155.808594 200.824219 155.824219 200.84375 C 155.917969 200.941406 156.011719 201.035156 156.105469 201.128906 C 156.121094 201.140625 156.132812 201.152344 156.144531 201.164062 C 156.242188 201.257812 156.34375 201.347656 156.445312 201.4375 C 156.453125 201.445312 156.460938 201.453125 156.472656 201.460938 C 156.578125 201.550781 156.6875 201.640625 156.800781 201.722656 C 156.820312 201.738281 156.835938 201.753906 156.855469 201.765625 C 156.96875 201.851562 157.082031 201.929688 157.199219 202.007812 C 157.21875 202.019531 157.242188 202.03125 157.261719 202.046875 C 157.382812 202.121094 157.507812 202.199219 157.636719 202.265625 C 157.648438 202.273438 157.65625 202.277344 157.667969 202.285156 C 157.796875 202.351562 157.929688 202.414062 158.066406 202.476562 C 158.078125 202.480469 158.089844 202.484375 158.101562 202.488281 C 158.234375 202.546875 158.378906 202.601562 158.519531 202.648438 C 158.542969 202.65625 158.566406 202.664062 158.589844 202.671875 C 158.734375 202.714844 158.878906 202.753906 159.03125 202.785156 C 159.054688 202.792969 159.078125 202.796875 159.101562 202.800781 C 159.253906 202.832031 159.414062 202.859375 159.578125 202.875 C 159.585938 202.875 159.59375 202.878906 159.605469 202.878906 C 159.765625 202.894531 159.933594 202.902344 160.101562 202.902344 C 160.113281 202.902344 160.128906 202.90625 160.140625 202.90625 C 160.148438 202.90625 160.15625 202.90625 160.164062 202.90625 C 160.234375 202.90625 160.304688 202.902344 160.378906 202.898438 C 160.421875 202.894531 160.464844 202.894531 160.507812 202.894531 C 160.582031 202.886719 160.660156 202.878906 160.738281 202.871094 C 160.777344 202.867188 160.816406 202.863281 160.859375 202.859375 C 160.945312 202.847656 161.035156 202.832031 161.125 202.816406 C 161.15625 202.8125 161.1875 202.808594 161.222656 202.800781 C 161.34375 202.78125 161.46875 202.753906 161.59375 202.722656 C 162.953125 202.386719 164.027344 201.675781 164.984375 200.957031 C 170.101562 197.117188 175.640625 192.421875 176.578125 185.25 C 176.886719 182.867188 177.15625 180.453125 177.378906 178.070312 C 177.71875 174.476562 177.957031 170.8125 178.097656 167.1875 C 178.125 166.519531 178.144531 165.847656 178.164062 165.175781 C 178.328125 159.507812 178.527344 152.453125 177.738281 145.796875 C 177.691406 145.375 177.640625 144.960938 177.59375 144.542969 C 177.25 141.585938 176.933594 138.605469 176.648438 135.683594 C 176.316406 132.269531 176.011719 128.804688 175.75 125.386719 C 175.726562 125.042969 175.699219 124.695312 175.675781 124.347656 C 175.613281 123.308594 175.597656 122.273438 175.777344 121.335938 C 175.917969 120.605469 176.175781 119.980469 176.527344 119.53125 C 176.570312 119.480469 176.59375 119.460938 176.589844 119.460938 C 176.703125 119.398438 177.175781 119.304688 177.402344 119.261719 L 177.558594 119.234375 C 179.300781 118.902344 184.605469 117.90625 186.84375 120.515625 C 187.992188 121.859375 188.9375 123.859375 189.65625 126.460938 C 189.6875 126.582031 189.730469 126.695312 189.777344 126.804688 L 189.765625 126.78125 C 189.78125 126.816406 191.136719 130.230469 191.5 138.277344 C 191.832031 145.710938 191.359375 158.726562 187.214844 178.515625 C 186.90625 179.972656 187.84375 181.40625 189.300781 181.710938 C 189.492188 181.75 189.675781 181.769531 189.859375 181.769531 C 191.109375 181.769531 192.234375 180.894531 192.5 179.621094 C 199.902344 144.304688 196.167969 128.957031 195.027344 125.460938 C 195.128906 124.910156 195.289062 124.414062 195.519531 123.957031 C 196 122.996094 196.804688 122.21875 197.839844 121.707031 C 198.0625 121.597656 198.308594 121.492188 198.558594 121.402344 C 200.230469 120.792969 204.609375 121.59375 206.925781 122.933594 C 208.703125 123.957031 210.023438 125.542969 210.957031 127.753906 C 210.925781 142.148438 209.613281 161.5 200.164062 184.339844 C 199.59375 185.714844 200.246094 187.296875 201.625 187.867188 C 201.964844 188.007812 202.3125 188.070312 202.65625 188.070312 C 203.71875 188.070312 204.722656 187.445312 205.15625 186.402344 C 214.859375 162.941406 216.296875 143.078125 216.359375 128.234375 C 217.757812 126.925781 219.621094 126.117188 221.535156 126.011719 C 223.429688 125.902344 225.414062 126.464844 227.136719 127.597656 C 227.191406 127.636719 227.246094 127.675781 227.304688 127.714844 C 230.347656 129.84375 234.179688 134.582031 234.144531 136.167969 C 231.070312 161.523438 225.191406 180.460938 217.136719 190.925781 C 216.226562 192.109375 216.449219 193.804688 217.632812 194.710938 C 218.121094 195.089844 218.699219 195.273438 219.277344 195.273438 C 220.085938 195.273438 220.886719 194.910156 221.417969 194.21875 C 226.109375 188.125 230.089844 179.574219 233.25 168.808594 C 235.871094 159.875 237.933594 149.421875 239.390625 137.730469 C 239.421875 137.710938 239.453125 137.691406 239.484375 137.671875 C 239.554688 137.632812 239.621094 137.59375 239.683594 137.558594 C 240.597656 137.054688 241.484375 136.972656 242.46875 137.300781 C 245.710938 138.371094 249.300781 143.492188 251.265625 147.796875 C 253.597656 152.902344 254.9375 159.019531 255.253906 165.984375 C 255.917969 180.757812 253.578125 196.121094 248.484375 210.414062 Z M 126.621094 147.691406 L 126.84375 147.339844 C 128.128906 145.324219 129.699219 143.300781 131.511719 141.320312 C 135.289062 137.199219 139.71875 133.695312 143.15625 131.101562 C 151.375 124.902344 161.554688 121.636719 170.710938 119.332031 C 170.683594 119.425781 170.660156 119.515625 170.636719 119.605469 C 170.621094 119.664062 170.605469 119.71875 170.589844 119.777344 C 170.546875 119.957031 170.507812 120.140625 170.472656 120.320312 C 170.285156 121.300781 170.230469 122.277344 170.234375 123.203125 C 170.238281 124.132812 170.308594 125.011719 170.367188 125.796875 C 170.464844 127.109375 170.574219 128.433594 170.6875 129.753906 C 170.707031 129.984375 170.726562 130.214844 170.742188 130.445312 C 170.855469 131.714844 170.96875 132.984375 171.085938 134.25 C 171.09375 134.351562 171.101562 134.453125 171.113281 134.554688 L 170.640625 134.855469 C 169.210938 135.765625 167.777344 136.671875 166.34375 137.582031 L 157.769531 143.027344 C 150.722656 147.5 143.699219 152.234375 136.902344 156.816406 C 136.5 157.085938 136.101562 157.359375 135.699219 157.628906 C 135.679688 157.601562 135.65625 157.574219 135.636719 157.546875 C 135.476562 157.3125 135.316406 157.082031 135.144531 156.847656 C 135.140625 156.839844 135.132812 156.832031 135.128906 156.824219 C 134.957031 156.589844 134.773438 156.351562 134.589844 156.117188 C 134.539062 156.054688 134.488281 155.992188 134.4375 155.929688 C 134.277344 155.734375 134.113281 155.535156 133.945312 155.34375 C 133.90625 155.296875 133.871094 155.253906 133.832031 155.210938 C 133.628906 154.980469 133.421875 154.753906 133.203125 154.53125 C 133.152344 154.476562 133.097656 154.425781 133.042969 154.371094 C 132.867188 154.191406 132.683594 154.011719 132.496094 153.839844 C 132.4375 153.785156 132.378906 153.730469 132.320312 153.675781 C 132.085938 153.460938 131.84375 153.253906 131.59375 153.050781 C 131.550781 153.015625 131.503906 152.980469 131.460938 152.945312 C 131.242188 152.773438 131.023438 152.609375 130.796875 152.449219 C 130.722656 152.398438 130.648438 152.34375 130.574219 152.292969 C 130.300781 152.105469 130.019531 151.921875 129.726562 151.746094 C 129.539062 151.636719 129.347656 151.527344 129.15625 151.429688 C 129.09375 151.394531 129.03125 151.367188 128.964844 151.335938 C 128.835938 151.269531 128.707031 151.207031 128.574219 151.144531 C 128.5 151.109375 128.421875 151.082031 128.347656 151.046875 C 128.226562 150.996094 128.105469 150.945312 127.988281 150.898438 C 127.90625 150.867188 127.824219 150.839844 127.742188 150.8125 C 127.625 150.769531 127.511719 150.726562 127.394531 150.6875 C 127.308594 150.660156 127.222656 150.636719 127.140625 150.613281 C 127.023438 150.582031 126.910156 150.546875 126.796875 150.515625 C 126.710938 150.492188 126.621094 150.472656 126.535156 150.453125 C 126.421875 150.429688 126.3125 150.402344 126.199219 150.378906 C 126.109375 150.359375 126.015625 150.347656 125.925781 150.332031 C 125.816406 150.3125 125.707031 150.292969 125.597656 150.277344 C 125.503906 150.265625 125.414062 150.257812 125.320312 150.246094 C 125.242188 150.238281 125.164062 150.226562 125.085938 150.222656 C 125.550781 149.363281 126.097656 148.503906 126.621094 147.691406 Z M 142.699219 170.144531 C 143.070312 169.847656 143.441406 169.558594 143.8125 169.265625 C 150.367188 164.085938 157.144531 158.726562 164.234375 154.195312 C 166.964844 152.445312 169.839844 150.8125 172.644531 149.230469 C 172.652344 149.324219 172.660156 149.414062 172.667969 149.507812 C 172.679688 149.636719 172.6875 149.765625 172.695312 149.898438 C 172.710938 150.117188 172.726562 150.335938 172.738281 150.558594 C 172.746094 150.679688 172.753906 150.804688 172.761719 150.925781 C 172.773438 151.183594 172.789062 151.4375 172.800781 151.691406 C 172.804688 151.78125 172.808594 151.867188 172.8125 151.953125 C 172.828125 152.296875 172.839844 152.640625 172.851562 152.984375 C 172.855469 153.070312 172.855469 153.15625 172.859375 153.246094 C 172.867188 153.507812 172.875 153.769531 172.878906 154.03125 C 172.882812 154.160156 172.886719 154.285156 172.886719 154.414062 C 172.890625 154.640625 172.894531 154.867188 172.898438 155.097656 C 172.902344 155.234375 172.902344 155.367188 172.902344 155.503906 C 172.90625 155.734375 172.90625 155.960938 172.910156 156.191406 C 172.910156 156.324219 172.910156 156.453125 172.910156 156.582031 C 172.910156 156.839844 172.910156 157.097656 172.910156 157.355469 C 172.910156 157.460938 172.910156 157.566406 172.910156 157.671875 C 172.910156 158.035156 172.90625 158.398438 172.902344 158.765625 C 172.902344 158.832031 172.898438 158.898438 172.898438 158.964844 C 172.894531 159.269531 172.890625 159.574219 172.886719 159.882812 C 172.882812 160.023438 172.882812 160.160156 172.878906 160.296875 C 172.875 160.539062 172.871094 160.78125 172.867188 161.023438 C 172.863281 161.179688 172.859375 161.335938 172.855469 161.492188 C 172.851562 161.722656 172.84375 161.953125 172.839844 162.183594 C 172.835938 162.347656 172.832031 162.511719 172.828125 162.679688 C 172.824219 162.917969 172.816406 163.15625 172.8125 163.398438 C 172.808594 163.550781 172.804688 163.703125 172.800781 163.855469 C 172.792969 164.136719 172.785156 164.417969 172.777344 164.703125 C 172.773438 164.808594 172.769531 164.914062 172.765625 165.023438 C 172.761719 165.203125 172.753906 165.382812 172.75 165.5625 L 171.496094 166.347656 C 167.855469 168.640625 164.210938 170.933594 160.570312 173.226562 C 158.769531 174.359375 157.058594 175.621094 155.40625 176.839844 C 154.453125 177.546875 153.464844 178.273438 152.496094 178.953125 C 152.148438 179.191406 150.804688 180.074219 149.230469 181.101562 L 144.933594 173.894531 Z M 171.71875 140.570312 C 171.816406 141.503906 171.921875 142.445312 172.027344 143.382812 C 171.609375 143.613281 171.195312 143.847656 170.78125 144.082031 C 167.664062 145.835938 164.441406 147.648438 161.320312 149.644531 C 154.007812 154.324219 147.121094 159.761719 140.460938 165.027344 C 140.3125 165.144531 140.160156 165.265625 140.007812 165.382812 C 139.796875 164.976562 139.582031 164.5625 139.367188 164.136719 C 139.058594 163.535156 138.746094 162.917969 138.425781 162.304688 C 138.921875 161.96875 139.421875 161.632812 139.921875 161.296875 C 146.6875 156.734375 153.679688 152.019531 160.660156 147.585938 L 169.238281 142.144531 C 170.0625 141.621094 170.890625 141.09375 171.71875 140.570312 Z M 171.585938 176.566406 C 170.644531 177.140625 169.671875 177.734375 168.734375 178.375 C 163.65625 181.835938 158.726562 185.445312 153.933594 188.988281 C 153.875 188.890625 153.8125 188.792969 153.753906 188.699219 L 151.996094 185.746094 C 153.765625 184.589844 155.164062 183.675781 155.585938 183.382812 C 156.613281 182.664062 157.632812 181.914062 158.613281 181.1875 C 160.261719 179.972656 161.816406 178.824219 163.445312 177.800781 C 166.441406 175.914062 169.4375 174.027344 172.433594 172.144531 C 172.34375 173.511719 172.234375 174.878906 172.117188 176.242188 C 171.9375 176.351562 171.761719 176.460938 171.585938 176.566406 Z M 171.21875 184.550781 C 170.558594 189.640625 165.980469 193.457031 161.742188 196.636719 C 161.242188 197.011719 160.722656 197.375 160.304688 197.476562 C 160.269531 197.484375 160.246094 197.488281 160.226562 197.492188 C 160.191406 197.496094 160.171875 197.496094 160.171875 197.496094 C 159.964844 197.4375 159.59375 196.996094 159.257812 196.546875 C 159.054688 196.277344 158.863281 196.007812 158.730469 195.816406 C 158.460938 195.429688 158.179688 195.03125 157.875 194.648438 C 157.597656 194.304688 157.328125 193.953125 157.0625 193.597656 C 157.027344 193.554688 156.996094 193.511719 156.960938 193.46875 C 161.648438 190 166.46875 186.46875 171.398438 183.097656 C 171.335938 183.582031 171.28125 184.070312 171.21875 184.550781 Z M 260.648438 165.742188 C 260.300781 158.082031 258.800781 151.292969 256.179688 145.550781 C 255.335938 143.703125 250.785156 134.363281 244.167969 132.171875 C 242.230469 131.53125 240.269531 131.550781 238.414062 132.21875 C 236.402344 128.339844 232.234375 124.570312 230.40625 123.292969 C 230.296875 123.214844 230.191406 123.144531 230.09375 123.078125 C 227.421875 121.320312 224.273438 120.449219 221.234375 120.617188 C 218.832031 120.75 216.476562 121.546875 214.464844 122.867188 C 213.191406 120.921875 211.574219 119.375 209.625 118.253906 C 206.675781 116.550781 200.542969 114.933594 196.710938 116.324219 C 196.273438 116.484375 195.851562 116.667969 195.449219 116.863281 C 194.292969 117.433594 193.273438 118.179688 192.421875 119.074219 C 191.964844 118.3125 191.472656 117.621094 190.945312 117.003906 C 187.097656 112.511719 180.539062 113.230469 177.449219 113.761719 C 177.226562 113.644531 177 113.53125 176.769531 113.4375 C 174.910156 112.671875 173.113281 113.148438 171.800781 113.496094 C 171.621094 113.542969 171.445312 113.589844 171.273438 113.632812 C 161.125 116.089844 149.464844 119.578125 139.902344 126.789062 C 136.28125 129.519531 131.601562 133.226562 127.527344 137.671875 C 125.503906 139.882812 123.742188 142.15625 122.292969 144.433594 L 122.070312 144.777344 C 120.789062 146.777344 119.226562 149.222656 118.746094 151.929688 C 116.4375 153.53125 114.863281 156.082031 114.347656 159.140625 C 113.613281 163.488281 114.910156 167.574219 116.421875 171.71875 C 123.046875 189.898438 131.214844 207.664062 140.695312 224.527344 C 144.515625 231.332031 149.238281 239.238281 155.261719 246.335938 C 158.441406 250.085938 161.988281 253.953125 166.351562 256.804688 C 171.238281 260 176.273438 260.761719 181.605469 261.566406 L 181.960938 261.621094 C 185.699219 262.1875 189.492188 262.472656 193.304688 262.472656 C 195.53125 262.472656 197.765625 262.375 200 262.179688 C 206.984375 261.570312 213.34375 260.132812 218.90625 257.902344 C 225.746094 255.160156 231.132812 251.289062 234.921875 246.40625 C 242.871094 236.148438 249.144531 224.652344 253.574219 212.230469 C 258.898438 197.285156 261.347656 181.207031 260.648438 165.742188 " fill-opacity="1" fill-rule="nonzero"/></g><g fill="#ffde59" fill-opacity="1"><g transform="translate(234.479069, 209.376427)"><g><path d="M 1.28125 -1.796875 C 1.0625 -1.222656 0.773438 -0.773438 0.421875 -0.453125 C 0.0664062 -0.140625 -0.320312 0.046875 -0.75 0.109375 C -1.175781 0.171875 -1.601562 0.117188 -2.03125 -0.046875 C -2.363281 -0.171875 -2.65625 -0.351562 -2.90625 -0.59375 C -3.15625 -0.832031 -3.332031 -1.101562 -3.4375 -1.40625 C -3.550781 -1.707031 -3.550781 -2.015625 -3.4375 -2.328125 C -3.394531 -2.453125 -3.328125 -2.492188 -3.234375 -2.453125 C -2.921875 -2.335938 -2.613281 -2.375 -2.3125 -2.5625 C -2.007812 -2.757812 -1.785156 -3.050781 -1.640625 -3.4375 C -1.535156 -3.71875 -1.5 -4.035156 -1.53125 -4.390625 C -1.5625 -4.753906 -1.6875 -5.140625 -1.90625 -5.546875 C -2.125 -5.953125 -2.453125 -6.347656 -2.890625 -6.734375 C -3.296875 -7.097656 -3.707031 -7.46875 -4.125 -7.84375 C -4.539062 -8.226562 -4.882812 -8.539062 -5.15625 -8.78125 C -5.375 -8.425781 -5.503906 -8.0625 -5.546875 -7.6875 C -5.585938 -7.3125 -5.523438 -6.976562 -5.359375 -6.6875 C -5.191406 -6.394531 -4.925781 -6.179688 -4.5625 -6.046875 C -4.375 -5.972656 -4.203125 -5.957031 -4.046875 -6 C -3.890625 -6.050781 -3.785156 -6.140625 -3.734375 -6.265625 C -3.578125 -6.273438 -3.414062 -6.21875 -3.25 -6.09375 C -3.09375 -5.976562 -2.953125 -5.816406 -2.828125 -5.609375 C -2.703125 -5.398438 -2.625 -5.15625 -2.59375 -4.875 C -2.5625 -4.601562 -2.597656 -4.316406 -2.703125 -4.015625 C -2.835938 -3.671875 -3.023438 -3.410156 -3.265625 -3.234375 C -3.503906 -3.054688 -3.769531 -2.953125 -4.0625 -2.921875 C -4.363281 -2.890625 -4.65625 -2.925781 -4.9375 -3.03125 C -5.488281 -3.238281 -5.96875 -3.546875 -6.375 -3.953125 C -6.789062 -4.359375 -7.109375 -4.835938 -7.328125 -5.390625 C -7.546875 -5.953125 -7.65625 -6.5625 -7.65625 -7.21875 C -7.65625 -7.875 -7.523438 -8.550781 -7.265625 -9.25 C -6.941406 -10.132812 -6.539062 -10.613281 -6.0625 -10.6875 C -5.59375 -10.757812 -5.066406 -10.550781 -4.484375 -10.0625 C -4.285156 -9.894531 -4.046875 -9.695312 -3.765625 -9.46875 C -3.484375 -9.238281 -3.179688 -8.992188 -2.859375 -8.734375 C -2.546875 -8.472656 -2.234375 -8.21875 -1.921875 -7.96875 C -1.609375 -7.71875 -1.335938 -7.488281 -1.109375 -7.28125 C 0.0976562 -6.3125 0.882812 -5.390625 1.25 -4.515625 C 1.613281 -3.640625 1.625 -2.734375 1.28125 -1.796875 Z M 1.28125 -1.796875 "/></g></g></g><g fill="#ffde59" fill-opacity="1"><g transform="translate(236.910152, 202.813546)"><g><path d="M -1.109375 -7.59375 C -1.179688 -7.675781 -1.1875 -7.765625 -1.125 -7.859375 C -1.0625 -7.953125 -0.976562 -8.023438 -0.875 -8.078125 C -0.769531 -8.140625 -0.679688 -8.128906 -0.609375 -8.046875 C -0.390625 -7.835938 -0.179688 -7.585938 0.015625 -7.296875 C 0.210938 -7.015625 0.347656 -6.695312 0.421875 -6.34375 C 0.492188 -6 0.453125 -5.613281 0.296875 -5.1875 L 0.25 -5.046875 C 0.5625 -4.566406 0.765625 -4.0625 0.859375 -3.53125 C 0.960938 -3 0.925781 -2.5 0.75 -2.03125 C 0.539062 -1.46875 0.179688 -1.070312 -0.328125 -0.84375 C -0.847656 -0.613281 -1.4375 -0.617188 -2.09375 -0.859375 C -2.5625 -1.035156 -3.007812 -1.300781 -3.4375 -1.65625 C -3.875 -2.007812 -4.242188 -2.421875 -4.546875 -2.890625 C -4.847656 -3.359375 -5.046875 -3.847656 -5.140625 -4.359375 C -5.242188 -4.878906 -5.203125 -5.394531 -5.015625 -5.90625 C -4.878906 -6.25 -4.691406 -6.53125 -4.453125 -6.75 C -4.210938 -6.976562 -3.898438 -7.113281 -3.515625 -7.15625 C -3.128906 -7.207031 -2.671875 -7.132812 -2.140625 -6.9375 C -1.691406 -6.769531 -1.28125 -6.546875 -0.90625 -6.265625 L -0.875 -6.34375 C -0.8125 -6.53125 -0.796875 -6.722656 -0.828125 -6.921875 C -0.867188 -7.128906 -0.960938 -7.351562 -1.109375 -7.59375 Z M -1.609375 -3.71875 C -1.523438 -3.9375 -1.515625 -4.148438 -1.578125 -4.359375 C -1.648438 -4.566406 -1.757812 -4.75 -1.90625 -4.90625 C -2.050781 -5.0625 -2.210938 -5.171875 -2.390625 -5.234375 C -2.578125 -5.304688 -2.753906 -5.3125 -2.921875 -5.25 C -3.097656 -5.1875 -3.234375 -5.035156 -3.328125 -4.796875 C -3.398438 -4.585938 -3.40625 -4.382812 -3.34375 -4.1875 C -3.28125 -3.988281 -3.171875 -3.8125 -3.015625 -3.65625 C -2.867188 -3.5 -2.703125 -3.382812 -2.515625 -3.3125 C -2.328125 -3.25 -2.148438 -3.242188 -1.984375 -3.296875 C -1.816406 -3.347656 -1.691406 -3.488281 -1.609375 -3.71875 Z M -1.609375 -3.71875 "/></g></g></g><g fill="#ffde59" fill-opacity="1"><g transform="translate(239.139815, 196.794411)"><g><path d="M 1.28125 -1.796875 C 1.0625 -1.222656 0.773438 -0.773438 0.421875 -0.453125 C 0.0664062 -0.140625 -0.320312 0.046875 -0.75 0.109375 C -1.175781 0.171875 -1.601562 0.117188 -2.03125 -0.046875 C -2.363281 -0.171875 -2.65625 -0.351562 -2.90625 -0.59375 C -3.15625 -0.832031 -3.332031 -1.101562 -3.4375 -1.40625 C -3.550781 -1.707031 -3.550781 -2.015625 -3.4375 -2.328125 C -3.394531 -2.453125 -3.328125 -2.492188 -3.234375 -2.453125 C -2.921875 -2.335938 -2.613281 -2.375 -2.3125 -2.5625 C -2.007812 -2.757812 -1.785156 -3.050781 -1.640625 -3.4375 C -1.535156 -3.71875 -1.5 -4.035156 -1.53125 -4.390625 C -1.5625 -4.753906 -1.6875 -5.140625 -1.90625 -5.546875 C -2.125 -5.953125 -2.453125 -6.347656 -2.890625 -6.734375 C -3.296875 -7.097656 -3.707031 -7.46875 -4.125 -7.84375 C -4.539062 -8.226562 -4.882812 -8.539062 -5.15625 -8.78125 C -5.375 -8.425781 -5.503906 -8.0625 -5.546875 -7.6875 C -5.585938 -7.3125 -5.523438 -6.976562 -5.359375 -6.6875 C -5.191406 -6.394531 -4.925781 -6.179688 -4.5625 -6.046875 C -4.375 -5.972656 -4.203125 -5.957031 -4.046875 -6 C -3.890625 -6.050781 -3.785156 -6.140625 -3.734375 -6.265625 C -3.578125 -6.273438 -3.414062 -6.21875 -3.25 -6.09375 C -3.09375 -5.976562 -2.953125 -5.816406 -2.828125 -5.609375 C -2.703125 -5.398438 -2.625 -5.15625 -2.59375 -4.875 C -2.5625 -4.601562 -2.597656 -4.316406 -2.703125 -4.015625 C -2.835938 -3.671875 -3.023438 -3.410156 -3.265625 -3.234375 C -3.503906 -3.054688 -3.769531 -2.953125 -4.0625 -2.921875 C -4.363281 -2.890625 -4.65625 -2.925781 -4.9375 -3.03125 C -5.488281 -3.238281 -5.96875 -3.546875 -6.375 -3.953125 C -6.789062 -4.359375 -7.109375 -4.835938 -7.328125 -5.390625 C -7.546875 -5.953125 -7.65625 -6.5625 -7.65625 -7.21875 C -7.65625 -7.875 -7.523438 -8.550781 -7.265625 -9.25 C -6.941406 -10.132812 -6.539062 -10.613281 -6.0625 -10.6875 C -5.59375 -10.757812 -5.066406 -10.550781 -4.484375 -10.0625 C -4.285156 -9.894531 -4.046875 -9.695312 -3.765625 -9.46875 C -3.484375 -9.238281 -3.179688 -8.992188 -2.859375 -8.734375 C -2.546875 -8.472656 -2.234375 -8.21875 -1.921875 -7.96875 C -1.609375 -7.71875 -1.335938 -7.488281 -1.109375 -7.28125 C 0.0976562 -6.3125 0.882812 -5.390625 1.25 -4.515625 C 1.613281 -3.640625 1.625 -2.734375 1.28125 -1.796875 Z M 1.28125 -1.796875 "/></g></g></g><g fill="#ffde59" fill-opacity="1"><g transform="translate(241.570897, 190.23153)"><g><path d="M -1.109375 -7.59375 C -1.179688 -7.675781 -1.1875 -7.765625 -1.125 -7.859375 C -1.0625 -7.953125 -0.976562 -8.023438 -0.875 -8.078125 C -0.769531 -8.140625 -0.679688 -8.128906 -0.609375 -8.046875 C -0.390625 -7.835938 -0.179688 -7.585938 0.015625 -7.296875 C 0.210938 -7.015625 0.347656 -6.695312 0.421875 -6.34375 C 0.492188 -6 0.453125 -5.613281 0.296875 -5.1875 L 0.25 -5.046875 C 0.5625 -4.566406 0.765625 -4.0625 0.859375 -3.53125 C 0.960938 -3 0.925781 -2.5 0.75 -2.03125 C 0.539062 -1.46875 0.179688 -1.070312 -0.328125 -0.84375 C -0.847656 -0.613281 -1.4375 -0.617188 -2.09375 -0.859375 C -2.5625 -1.035156 -3.007812 -1.300781 -3.4375 -1.65625 C -3.875 -2.007812 -4.242188 -2.421875 -4.546875 -2.890625 C -4.847656 -3.359375 -5.046875 -3.847656 -5.140625 -4.359375 C -5.242188 -4.878906 -5.203125 -5.394531 -5.015625 -5.90625 C -4.878906 -6.25 -4.691406 -6.53125 -4.453125 -6.75 C -4.210938 -6.976562 -3.898438 -7.113281 -3.515625 -7.15625 C -3.128906 -7.207031 -2.671875 -7.132812 -2.140625 -6.9375 C -1.691406 -6.769531 -1.28125 -6.546875 -0.90625 -6.265625 L -0.875 -6.34375 C -0.8125 -6.53125 -0.796875 -6.722656 -0.828125 -6.921875 C -0.867188 -7.128906 -0.960938 -7.351562 -1.109375 -7.59375 Z M -1.609375 -3.71875 C -1.523438 -3.9375 -1.515625 -4.148438 -1.578125 -4.359375 C -1.648438 -4.566406 -1.757812 -4.75 -1.90625 -4.90625 C -2.050781 -5.0625 -2.210938 -5.171875 -2.390625 -5.234375 C -2.578125 -5.304688 -2.753906 -5.3125 -2.921875 -5.25 C -3.097656 -5.1875 -3.234375 -5.035156 -3.328125 -4.796875 C -3.398438 -4.585938 -3.40625 -4.382812 -3.34375 -4.1875 C -3.28125 -3.988281 -3.171875 -3.8125 -3.015625 -3.65625 C -2.867188 -3.5 -2.703125 -3.382812 -2.515625 -3.3125 C -2.328125 -3.25 -2.148438 -3.242188 -1.984375 -3.296875 C -1.816406 -3.347656 -1.691406 -3.488281 -1.609375 -3.71875 Z M -1.609375 -3.71875 "/></g></g></g><g fill="#ffde59" fill-opacity="1"><g transform="translate(243.80056, 184.212396)"><g/></g></g><g fill="#ffde59" fill-opacity="1"><g transform="translate(245.486859, 179.660109)"><g><path d="M -3.25 -10.046875 L -3.703125 -8.78125 C -3.359375 -8.507812 -3.023438 -8.253906 -2.703125 -8.015625 C -2.390625 -7.773438 -2.09375 -7.539062 -1.8125 -7.3125 L -1.421875 -8.390625 L -1.046875 -8.25 L -1.5 -7.046875 C -0.707031 -6.441406 -0.0859375 -5.9375 0.359375 -5.53125 C 0.816406 -5.132812 1.128906 -4.8125 1.296875 -4.5625 C 1.472656 -4.3125 1.53125 -4.097656 1.46875 -3.921875 C 1.363281 -3.640625 1.179688 -3.546875 0.921875 -3.640625 C 0.640625 -3.742188 0.257812 -3.992188 -0.21875 -4.390625 C -0.695312 -4.785156 -1.265625 -5.289062 -1.921875 -5.90625 L -2.375 -4.65625 C -1.601562 -4.019531 -0.992188 -3.488281 -0.546875 -3.0625 C -0.0976562 -2.644531 0.207031 -2.304688 0.375 -2.046875 C 0.539062 -1.785156 0.59375 -1.566406 0.53125 -1.390625 C 0.425781 -1.109375 0.242188 -1.015625 -0.015625 -1.109375 C -0.296875 -1.210938 -0.671875 -1.472656 -1.140625 -1.890625 C -1.617188 -2.304688 -2.175781 -2.835938 -2.8125 -3.484375 L -3.0625 -2.796875 L -3.4375 -2.9375 L -3.125 -3.796875 L -4.875 -5.640625 L -5.265625 -4.59375 L -5.640625 -4.734375 L -5.1875 -5.96875 L -7.5625 -8.484375 L -7.34375 -8.71875 L -4.90625 -6.71875 L -4.3125 -8.296875 C -4.6875 -8.679688 -5.070312 -9.078125 -5.46875 -9.484375 C -5.863281 -9.898438 -6.28125 -10.320312 -6.71875 -10.75 L -6.5 -10.984375 L -4.046875 -9.046875 L -3.625 -10.1875 Z M -2.234375 -6.203125 L -4.015625 -7.96875 L -4.578125 -6.453125 C -4.234375 -6.171875 -3.898438 -5.90625 -3.578125 -5.65625 C -3.265625 -5.40625 -2.972656 -5.160156 -2.703125 -4.921875 Z M -2.234375 -6.203125 "/></g></g></g><g fill="#ffde59" fill-opacity="1"><g transform="translate(248.189626, 172.363798)"><g><path d="M 0.828125 -2.15625 C 0.628906 -1.601562 0.332031 -1.257812 -0.0625 -1.125 C -0.46875 -0.988281 -0.890625 -1.003906 -1.328125 -1.171875 C -1.679688 -1.296875 -2.023438 -1.519531 -2.359375 -1.84375 C -2.691406 -2.175781 -3.03125 -2.640625 -3.375 -3.234375 C -3.726562 -3.835938 -4 -4.40625 -4.1875 -4.9375 C -4.382812 -5.46875 -4.539062 -5.929688 -4.65625 -6.328125 C -4.769531 -6.722656 -4.863281 -7.03125 -4.9375 -7.25 C -5.007812 -7.476562 -5.09375 -7.597656 -5.1875 -7.609375 C -5.28125 -7.609375 -5.320312 -7.5625 -5.3125 -7.46875 C -5.3125 -7.382812 -5.300781 -7.257812 -5.28125 -7.09375 C -5.257812 -6.9375 -5.265625 -6.75 -5.296875 -6.53125 C -5.328125 -6.3125 -5.429688 -6.082031 -5.609375 -5.84375 C -5.804688 -5.570312 -5.929688 -5.34375 -5.984375 -5.15625 C -6.035156 -4.976562 -6.039062 -4.820312 -6 -4.6875 C -5.96875 -4.550781 -5.9375 -4.429688 -5.90625 -4.328125 C -5.882812 -4.222656 -5.894531 -4.101562 -5.9375 -3.96875 C -5.96875 -3.894531 -6.03125 -3.835938 -6.125 -3.796875 C -6.226562 -3.753906 -6.347656 -3.785156 -6.484375 -3.890625 L -7.96875 -5.21875 C -8.394531 -5.601562 -8.503906 -6.085938 -8.296875 -6.671875 C -8.078125 -7.265625 -7.863281 -7.75 -7.65625 -8.125 C -7.457031 -8.5 -7.273438 -8.804688 -7.109375 -9.046875 C -6.953125 -9.285156 -6.84375 -9.492188 -6.78125 -9.671875 C -6.71875 -9.828125 -6.703125 -9.953125 -6.734375 -10.046875 C -6.773438 -10.148438 -6.8125 -10.238281 -6.84375 -10.3125 C -6.882812 -10.394531 -6.882812 -10.484375 -6.84375 -10.578125 C -6.800781 -10.679688 -6.734375 -10.757812 -6.640625 -10.8125 C -6.546875 -10.875 -6.390625 -10.863281 -6.171875 -10.78125 C -5.898438 -10.675781 -5.640625 -10.460938 -5.390625 -10.140625 C -5.140625 -9.828125 -4.894531 -9.441406 -4.65625 -8.984375 C -4.425781 -8.523438 -4.195312 -8.039062 -3.96875 -7.53125 C -3.738281 -7.03125 -3.5 -6.535156 -3.25 -6.046875 C -3.007812 -5.609375 -2.769531 -5.28125 -2.53125 -5.0625 C -2.289062 -4.84375 -2.082031 -4.726562 -1.90625 -4.71875 C -1.738281 -4.707031 -1.628906 -4.765625 -1.578125 -4.890625 C -1.535156 -5.023438 -1.535156 -5.117188 -1.578125 -5.171875 C -1.628906 -5.222656 -1.640625 -5.289062 -1.609375 -5.375 C -1.566406 -5.488281 -1.46875 -5.519531 -1.3125 -5.46875 C -1.15625 -5.40625 -0.957031 -5.3125 -0.71875 -5.1875 C -0.476562 -5.0625 -0.238281 -4.898438 0 -4.703125 C 0.226562 -4.503906 0.429688 -4.273438 0.609375 -4.015625 C 0.785156 -3.753906 0.898438 -3.46875 0.953125 -3.15625 C 1.003906 -2.84375 0.960938 -2.507812 0.828125 -2.15625 Z M 0.828125 -2.15625 "/></g></g></g></svg>