<svg xmlns="http://www.w3.org/2000/svg" xmlns:xlink="http://www.w3.org/1999/xlink" width="500" zoomAndPan="magnify" viewBox="0 0 375 374.999991" height="500" preserveAspectRatio="xMidYMid meet" version="1.0"><defs><filter x="0%" y="0%" width="100%" height="100%" id="c927f5f767"><feColorMatrix values="0 0 0 0 1 0 0 0 0 1 0 0 0 0 1 0 0 0 1 0" color-interpolation-filters="sRGB"/></filter><g/><mask id="b5417c2cac"><g filter="url(#c927f5f767)"><rect x="-37.5" width="450" fill="#000000" y="-37.499999" height="449.999989" fill-opacity="0.85"/></g></mask><clipPath id="d8c03811d6"><path d="M 0.160156 1.011719 L 90 1.011719 L 90 69 L 0.160156 69 Z M 0.160156 1.011719 " clip-rule="nonzero"/></clipPath><clipPath id="c7ea870f9f"><path d="M 2 69 L 94.960938 69 L 94.960938 70.761719 L 2 70.761719 Z M 2 69 " clip-rule="nonzero"/></clipPath><clipPath id="677d04d796"><rect x="0" width="95" y="0" height="72"/></clipPath></defs><rect x="-37.5" width="450" fill="#ffffff" y="-37.499999" height="449.999989" fill-opacity="1"/><rect x="-37.5" width="450" fill="#ffffff" y="-37.499999" height="449.999989" fill-opacity="1"/><g fill="#ffde59" fill-opacity="1"><g transform="translate(112.507431, 164.270222)"><g><path d="M -3.9375 -0.84375 C -4.414062 -0.894531 -4.878906 -1.035156 -5.328125 -1.265625 C -5.773438 -1.503906 -6.160156 -1.8125 -6.484375 -2.1875 C -6.804688 -2.5625 -7.050781 -3 -7.21875 -3.5 C -7.394531 -4 -7.445312 -4.5625 -7.375 -5.1875 C -7.28125 -5.90625 -7.046875 -6.507812 -6.671875 -7 C -6.296875 -7.488281 -5.835938 -7.828125 -5.296875 -8.015625 L -4.625 -6.765625 C -4.851562 -6.679688 -5.050781 -6.570312 -5.21875 -6.4375 C -5.394531 -6.3125 -5.535156 -6.171875 -5.640625 -6.015625 C -5.742188 -5.867188 -5.828125 -5.703125 -5.890625 -5.515625 C -5.960938 -5.335938 -6.007812 -5.160156 -6.03125 -4.984375 C -6.082031 -4.597656 -6.046875 -4.253906 -5.921875 -3.953125 C -5.796875 -3.648438 -5.617188 -3.382812 -5.390625 -3.15625 C -5.171875 -2.9375 -4.910156 -2.757812 -4.609375 -2.625 C -4.316406 -2.5 -4.015625 -2.414062 -3.703125 -2.375 C -3.347656 -2.332031 -3.003906 -2.34375 -2.671875 -2.40625 C -2.335938 -2.476562 -2.035156 -2.601562 -1.765625 -2.78125 C -1.503906 -2.96875 -1.28125 -3.1875 -1.09375 -3.4375 C -0.914062 -3.695312 -0.804688 -4 -0.765625 -4.34375 C -0.742188 -4.519531 -0.738281 -4.707031 -0.75 -4.90625 C -0.769531 -5.101562 -0.816406 -5.296875 -0.890625 -5.484375 C -0.972656 -5.671875 -1.082031 -5.84375 -1.21875 -6 C -1.351562 -6.164062 -1.523438 -6.3125 -1.734375 -6.4375 L -0.84375 -7.59375 C -0.5625 -7.414062 -0.320312 -7.203125 -0.125 -6.953125 C 0.0625 -6.703125 0.210938 -6.414062 0.328125 -6.09375 C 0.453125 -5.78125 0.535156 -5.457031 0.578125 -5.125 C 0.617188 -4.789062 0.617188 -4.460938 0.578125 -4.140625 C 0.503906 -3.578125 0.320312 -3.078125 0.03125 -2.640625 C -0.257812 -2.203125 -0.613281 -1.835938 -1.03125 -1.546875 C -1.457031 -1.265625 -1.921875 -1.0625 -2.421875 -0.9375 C -2.921875 -0.8125 -3.425781 -0.78125 -3.9375 -0.84375 Z M -3.9375 -0.84375 "/></g></g></g><g fill="#ffde59" fill-opacity="1"><g transform="translate(113.835602, 154.513977)"><g><path d="M 1.140625 -4.046875 C 0.992188 -3.484375 0.75 -3.003906 0.40625 -2.609375 C 0.0625 -2.210938 -0.332031 -1.898438 -0.78125 -1.671875 C -1.226562 -1.441406 -1.707031 -1.296875 -2.21875 -1.234375 C -2.738281 -1.179688 -3.242188 -1.21875 -3.734375 -1.34375 C -4.242188 -1.476562 -4.707031 -1.703125 -5.125 -2.015625 C -5.539062 -2.335938 -5.882812 -2.710938 -6.15625 -3.140625 C -6.425781 -3.566406 -6.601562 -4.035156 -6.6875 -4.546875 C -6.78125 -5.066406 -6.753906 -5.597656 -6.609375 -6.140625 C -6.460938 -6.691406 -6.210938 -7.160156 -5.859375 -7.546875 C -5.515625 -7.941406 -5.113281 -8.253906 -4.65625 -8.484375 C -4.207031 -8.722656 -3.722656 -8.867188 -3.203125 -8.921875 C -2.691406 -8.972656 -2.203125 -8.9375 -1.734375 -8.8125 C -1.210938 -8.675781 -0.742188 -8.453125 -0.328125 -8.140625 C 0.078125 -7.828125 0.410156 -7.457031 0.671875 -7.03125 C 0.929688 -6.613281 1.109375 -6.144531 1.203125 -5.625 C 1.304688 -5.101562 1.285156 -4.578125 1.140625 -4.046875 Z M -3.34375 -2.859375 C -3.007812 -2.773438 -2.675781 -2.738281 -2.34375 -2.75 C -2.007812 -2.769531 -1.695312 -2.84375 -1.40625 -2.96875 C -1.113281 -3.101562 -0.859375 -3.285156 -0.640625 -3.515625 C -0.421875 -3.753906 -0.265625 -4.050781 -0.171875 -4.40625 C -0.078125 -4.757812 -0.0664062 -5.09375 -0.140625 -5.40625 C -0.222656 -5.726562 -0.359375 -6.015625 -0.546875 -6.265625 C -0.742188 -6.523438 -0.984375 -6.742188 -1.265625 -6.921875 C -1.546875 -7.097656 -1.84375 -7.226562 -2.15625 -7.3125 C -2.476562 -7.394531 -2.804688 -7.425781 -3.140625 -7.40625 C -3.472656 -7.382812 -3.785156 -7.3125 -4.078125 -7.1875 C -4.367188 -7.0625 -4.617188 -6.878906 -4.828125 -6.640625 C -5.046875 -6.398438 -5.203125 -6.109375 -5.296875 -5.765625 C -5.390625 -5.398438 -5.398438 -5.054688 -5.328125 -4.734375 C -5.253906 -4.421875 -5.117188 -4.140625 -4.921875 -3.890625 C -4.734375 -3.640625 -4.5 -3.425781 -4.21875 -3.25 C -3.9375 -3.070312 -3.644531 -2.941406 -3.34375 -2.859375 Z M -3.34375 -2.859375 "/></g></g></g><g fill="#ffde59" fill-opacity="1"><g transform="translate(116.769171, 144.289111)"><g><path d="M 0.3125 -0.765625 L -7 -3.765625 L -6.421875 -5.1875 L -0.359375 -2.703125 L 1.171875 -6.421875 L 2.421875 -5.90625 Z M 0.3125 -0.765625 "/></g></g></g><g fill="#ffde59" fill-opacity="1"><g transform="translate(120.215704, 136.233712)"><g><path d="M 0.40625 -0.71875 L -6.5 -4.546875 L -5.765625 -5.890625 L -0.03125 -2.71875 L 1.921875 -6.25 L 3.09375 -5.59375 Z M 0.40625 -0.71875 "/></g></g></g><g fill="#ffde59" fill-opacity="1"><g transform="translate(124.55156, 128.640432)"><g><path d="M -4.578125 -7.140625 L -3.78125 -8.25 L 4.375 -6.015625 L 3.453125 -4.734375 L 1.421875 -5.296875 L -0.203125 -3.0625 L 0.96875 -1.328125 L 0.03125 -0.046875 Z M 0.390625 -5.71875 L -2.765625 -6.65625 L -0.921875 -3.921875 Z M 0.390625 -5.71875 "/></g></g></g><g fill="#ffde59" fill-opacity="1"><g transform="translate(130.3796, 120.879155)"><g><path d="M 3.5 -6.625 C 3.738281 -6.394531 3.898438 -6.140625 3.984375 -5.859375 C 4.078125 -5.585938 4.101562 -5.3125 4.0625 -5.03125 C 4.03125 -4.75 3.9375 -4.460938 3.78125 -4.171875 C 3.632812 -3.890625 3.441406 -3.617188 3.203125 -3.359375 L 0.578125 -0.59375 L -5.15625 -6.046875 L -2.25 -9.125 C -2.0625 -9.320312 -1.84375 -9.457031 -1.59375 -9.53125 C -1.351562 -9.613281 -1.113281 -9.644531 -0.875 -9.625 C -0.632812 -9.613281 -0.398438 -9.550781 -0.171875 -9.4375 C 0.0546875 -9.332031 0.265625 -9.195312 0.453125 -9.03125 C 0.734375 -8.757812 0.929688 -8.4375 1.046875 -8.0625 C 1.160156 -7.6875 1.144531 -7.3125 1 -6.9375 C 1.40625 -7.175781 1.828125 -7.269531 2.265625 -7.21875 C 2.710938 -7.175781 3.125 -6.976562 3.5 -6.625 Z M 2.203125 -5.703125 C 2.097656 -5.796875 1.984375 -5.867188 1.859375 -5.921875 C 1.734375 -5.984375 1.609375 -6.015625 1.484375 -6.015625 C 1.359375 -6.023438 1.234375 -6.007812 1.109375 -5.96875 C 0.992188 -5.925781 0.890625 -5.859375 0.796875 -5.765625 L -0.828125 -4.046875 L 0.6875 -2.59375 L 2.265625 -4.25 C 2.359375 -4.351562 2.425781 -4.46875 2.46875 -4.59375 C 2.519531 -4.71875 2.546875 -4.84375 2.546875 -4.96875 C 2.546875 -5.101562 2.515625 -5.234375 2.453125 -5.359375 C 2.390625 -5.484375 2.304688 -5.597656 2.203125 -5.703125 Z M -3.15625 -6.25 L -1.703125 -4.875 L -0.296875 -6.359375 C -0.109375 -6.546875 -0.015625 -6.769531 -0.015625 -7.03125 C -0.0234375 -7.289062 -0.144531 -7.523438 -0.375 -7.734375 C -0.59375 -7.941406 -0.820312 -8.046875 -1.0625 -8.046875 C -1.3125 -8.054688 -1.519531 -7.972656 -1.6875 -7.796875 Z M -3.15625 -6.25 "/></g></g></g><g fill="#ffde59" fill-opacity="1"><g transform="translate(137.203394, 113.875509)"><g><path d="M 3.3125 -2.578125 C 2.851562 -2.210938 2.367188 -1.972656 1.859375 -1.859375 C 1.359375 -1.742188 0.859375 -1.722656 0.359375 -1.796875 C -0.140625 -1.878906 -0.613281 -2.050781 -1.0625 -2.3125 C -1.507812 -2.582031 -1.890625 -2.914062 -2.203125 -3.3125 C -2.535156 -3.71875 -2.769531 -4.164062 -2.90625 -4.65625 C -3.050781 -5.15625 -3.109375 -5.660156 -3.078125 -6.171875 C -3.046875 -6.691406 -2.910156 -7.179688 -2.671875 -7.640625 C -2.441406 -8.097656 -2.101562 -8.503906 -1.65625 -8.859375 C -1.207031 -9.222656 -0.726562 -9.457031 -0.21875 -9.5625 C 0.289062 -9.675781 0.796875 -9.6875 1.296875 -9.59375 C 1.796875 -9.507812 2.265625 -9.335938 2.703125 -9.078125 C 3.148438 -8.816406 3.53125 -8.492188 3.84375 -8.109375 C 4.164062 -7.691406 4.398438 -7.234375 4.546875 -6.734375 C 4.703125 -6.242188 4.757812 -5.75 4.71875 -5.25 C 4.6875 -4.75 4.550781 -4.265625 4.3125 -3.796875 C 4.082031 -3.328125 3.75 -2.921875 3.3125 -2.578125 Z M -0.984375 -4.28125 C -0.765625 -4.007812 -0.515625 -3.78125 -0.234375 -3.59375 C 0.046875 -3.414062 0.335938 -3.289062 0.640625 -3.21875 C 0.953125 -3.144531 1.265625 -3.140625 1.578125 -3.203125 C 1.898438 -3.273438 2.203125 -3.425781 2.484375 -3.65625 C 2.765625 -3.875 2.96875 -4.132812 3.09375 -4.4375 C 3.21875 -4.738281 3.28125 -5.050781 3.28125 -5.375 C 3.28125 -5.695312 3.21875 -6.007812 3.09375 -6.3125 C 2.976562 -6.613281 2.820312 -6.894531 2.625 -7.15625 C 2.40625 -7.414062 2.148438 -7.632812 1.859375 -7.8125 C 1.578125 -8 1.285156 -8.128906 0.984375 -8.203125 C 0.679688 -8.273438 0.375 -8.28125 0.0625 -8.21875 C -0.25 -8.15625 -0.539062 -8.015625 -0.8125 -7.796875 C -1.101562 -7.554688 -1.316406 -7.285156 -1.453125 -6.984375 C -1.585938 -6.679688 -1.648438 -6.367188 -1.640625 -6.046875 C -1.640625 -5.734375 -1.578125 -5.421875 -1.453125 -5.109375 C -1.335938 -4.804688 -1.179688 -4.53125 -0.984375 -4.28125 Z M -0.984375 -4.28125 "/></g></g></g><g fill="#ffde59" fill-opacity="1"><g transform="translate(145.615765, 107.387314)"><g><path d="M 0.703125 -0.421875 L -3.359375 -7.203125 L -0.34375 -9 C -0.03125 -9.1875 0.289062 -9.289062 0.625 -9.3125 C 0.96875 -9.34375 1.300781 -9.3125 1.625 -9.21875 C 1.945312 -9.125 2.242188 -8.972656 2.515625 -8.765625 C 2.785156 -8.566406 3 -8.328125 3.15625 -8.046875 C 3.425781 -7.609375 3.554688 -7.140625 3.546875 -6.640625 C 3.546875 -6.148438 3.40625 -5.710938 3.125 -5.328125 L 6.1875 -3.703125 L 4.71875 -2.828125 L 1.96875 -4.265625 L 0.671875 -3.5 L 2.03125 -1.21875 Z M -0.015625 -4.65625 L 1.640625 -5.640625 C 1.753906 -5.710938 1.847656 -5.804688 1.921875 -5.921875 C 1.992188 -6.046875 2.035156 -6.179688 2.046875 -6.328125 C 2.066406 -6.472656 2.054688 -6.625 2.015625 -6.78125 C 1.984375 -6.9375 1.921875 -7.09375 1.828125 -7.25 C 1.734375 -7.414062 1.617188 -7.546875 1.484375 -7.640625 C 1.359375 -7.742188 1.222656 -7.816406 1.078125 -7.859375 C 0.929688 -7.910156 0.785156 -7.925781 0.640625 -7.90625 C 0.492188 -7.894531 0.363281 -7.859375 0.25 -7.796875 L -1.34375 -6.84375 Z M -0.015625 -4.65625 "/></g></g></g><g fill="#ffde59" fill-opacity="1"><g transform="translate(153.950843, 102.565633)"><g><path d="M -0.328125 -8.484375 L 0.90625 -9.015625 L 6.828125 -2.96875 L 5.375 -2.328125 L 3.921875 -3.859375 L 1.375 -2.75 L 1.5 -0.65625 L 0.0625 -0.03125 Z M 3.21875 -4.734375 L 0.984375 -7.140625 L 1.1875 -3.84375 Z M 3.21875 -4.734375 "/></g></g></g><g fill="#ffde59" fill-opacity="1"><g transform="translate(162.923736, 98.83842)"><g><path d="M 4.625 -8.1875 L 2.203125 -7.484375 L 4.046875 -1.1875 L 2.578125 -0.75 L 0.734375 -7.046875 L -1.6875 -6.34375 L -2.0625 -7.640625 L 4.25 -9.484375 Z M 4.625 -8.1875 "/></g></g></g><g fill="#ffde59" fill-opacity="1"><g transform="translate(171.814543, 96.456298)"><g><path d="M 0.8125 -0.15625 L -0.640625 -7.921875 L 0.859375 -8.203125 L 2.3125 -0.4375 Z M 0.8125 -0.15625 "/></g></g></g><g fill="#ffde59" fill-opacity="1"><g transform="translate(177.191018, 95.428212)"><g><path d="M 4.1875 -0.265625 C 3.601562 -0.210938 3.070312 -0.285156 2.59375 -0.484375 C 2.113281 -0.679688 1.6875 -0.953125 1.3125 -1.296875 C 0.945312 -1.640625 0.648438 -2.046875 0.421875 -2.515625 C 0.203125 -2.984375 0.0703125 -3.46875 0.03125 -3.96875 C -0.0078125 -4.5 0.046875 -5.007812 0.203125 -5.5 C 0.367188 -6 0.609375 -6.445312 0.921875 -6.84375 C 1.242188 -7.25 1.628906 -7.578125 2.078125 -7.828125 C 2.523438 -8.078125 3.03125 -8.222656 3.59375 -8.265625 C 4.164062 -8.304688 4.695312 -8.226562 5.1875 -8.03125 C 5.675781 -7.84375 6.101562 -7.570312 6.46875 -7.21875 C 6.84375 -6.863281 7.132812 -6.453125 7.34375 -5.984375 C 7.5625 -5.515625 7.6875 -5.035156 7.71875 -4.546875 C 7.757812 -4.015625 7.707031 -3.503906 7.5625 -3.015625 C 7.414062 -2.523438 7.1875 -2.082031 6.875 -1.6875 C 6.5625 -1.300781 6.171875 -0.976562 5.703125 -0.71875 C 5.242188 -0.457031 4.738281 -0.304688 4.1875 -0.265625 Z M 1.59375 -4.078125 C 1.625 -3.734375 1.703125 -3.410156 1.828125 -3.109375 C 1.960938 -2.804688 2.132812 -2.539062 2.34375 -2.3125 C 2.550781 -2.082031 2.804688 -1.898438 3.109375 -1.765625 C 3.410156 -1.640625 3.742188 -1.59375 4.109375 -1.625 C 4.472656 -1.65625 4.789062 -1.757812 5.0625 -1.9375 C 5.332031 -2.113281 5.554688 -2.332031 5.734375 -2.59375 C 5.921875 -2.863281 6.050781 -3.15625 6.125 -3.46875 C 6.195312 -3.789062 6.21875 -4.113281 6.1875 -4.4375 C 6.164062 -4.78125 6.085938 -5.109375 5.953125 -5.421875 C 5.816406 -5.734375 5.640625 -6.003906 5.421875 -6.234375 C 5.210938 -6.460938 4.957031 -6.640625 4.65625 -6.765625 C 4.363281 -6.890625 4.039062 -6.9375 3.6875 -6.90625 C 3.3125 -6.875 2.984375 -6.769531 2.703125 -6.59375 C 2.429688 -6.425781 2.207031 -6.207031 2.03125 -5.9375 C 1.863281 -5.675781 1.742188 -5.378906 1.671875 -5.046875 C 1.597656 -4.722656 1.570312 -4.398438 1.59375 -4.078125 Z M 1.59375 -4.078125 "/></g></g></g><g fill="#ffde59" fill-opacity="1"><g transform="translate(187.776383, 94.758601)"><g><path d="M 2.6875 -4.890625 L 2.359375 0.15625 L 0.828125 0.046875 L 1.34375 -7.84375 L 2.53125 -7.765625 L 6.296875 -2.328125 L 6.640625 -7.5 L 8.171875 -7.390625 L 7.65625 0.5 L 6.40625 0.421875 Z M 2.6875 -4.890625 "/></g></g></g><g fill="#ffde59" fill-opacity="1"><g transform="translate(198.520126, 95.729861)"><g><path d="M 0.578125 1.40625 L 1.109375 0.140625 L 0.640625 0.0625 L 0.890625 -1.484375 L 2.171875 -1.265625 L 1.921875 0.28125 L 1.25 1.515625 Z M 0.578125 1.40625 "/></g></g></g><g fill="#ffde59" fill-opacity="1"><g transform="translate(203.422848, 96.648538)"><g/></g></g><g fill="#ffde59" fill-opacity="1"><g transform="translate(208.328684, 97.911481)"><g><path d="M 0.796875 0.25 L 3.1875 -7.28125 L 4.640625 -6.8125 L 2.25 0.71875 Z M 0.796875 0.25 "/></g></g></g><g fill="#ffde59" fill-opacity="1"><g transform="translate(213.550163, 99.549974)"><g><path d="M 4.203125 -3.671875 L 2.15625 0.953125 L 0.75 0.328125 L 3.953125 -6.90625 L 5.046875 -6.421875 L 6.703125 0 L 8.8125 -4.75 L 10.21875 -4.125 L 7.015625 3.109375 L 5.875 2.59375 Z M 4.203125 -3.671875 "/></g></g></g><g fill="#ffde59" fill-opacity="1"><g transform="translate(223.255702, 104.014057)"><g><path d="M 4.6875 -3.046875 L 2 1.25 L 0.703125 0.4375 L 4.890625 -6.265625 L 5.890625 -5.640625 L 6.640625 0.96875 L 9.390625 -3.4375 L 10.6875 -2.625 L 6.5 4.078125 L 5.4375 3.40625 Z M 4.6875 -3.046875 "/></g></g></g><g fill="#ffde59" fill-opacity="1"><g transform="translate(232.226752, 109.817482)"><g><path d="M 3.15625 2.765625 C 2.71875 2.378906 2.394531 1.945312 2.1875 1.46875 C 1.976562 0.988281 1.863281 0.5 1.84375 0 C 1.820312 -0.507812 1.894531 -1.007812 2.0625 -1.5 C 2.238281 -1.988281 2.488281 -2.421875 2.8125 -2.796875 C 3.15625 -3.203125 3.554688 -3.519531 4.015625 -3.75 C 4.484375 -3.988281 4.96875 -4.140625 5.46875 -4.203125 C 5.96875 -4.273438 6.46875 -4.242188 6.96875 -4.109375 C 7.476562 -3.972656 7.945312 -3.722656 8.375 -3.359375 C 8.8125 -2.992188 9.132812 -2.566406 9.34375 -2.078125 C 9.550781 -1.597656 9.660156 -1.101562 9.671875 -0.59375 C 9.679688 -0.0820312 9.597656 0.414062 9.421875 0.90625 C 9.253906 1.394531 9.015625 1.828125 8.703125 2.203125 C 8.359375 2.597656 7.957031 2.914062 7.5 3.15625 C 7.039062 3.40625 6.5625 3.554688 6.0625 3.609375 C 5.570312 3.671875 5.070312 3.632812 4.5625 3.5 C 4.050781 3.363281 3.582031 3.117188 3.15625 2.765625 Z M 4 -1.78125 C 3.78125 -1.519531 3.609375 -1.234375 3.484375 -0.921875 C 3.359375 -0.609375 3.289062 -0.300781 3.28125 0 C 3.269531 0.3125 3.328125 0.617188 3.453125 0.921875 C 3.578125 1.234375 3.78125 1.503906 4.0625 1.734375 C 4.34375 1.972656 4.640625 2.125 4.953125 2.1875 C 5.273438 2.25 5.59375 2.25 5.90625 2.1875 C 6.21875 2.125 6.515625 2 6.796875 1.8125 C 7.078125 1.632812 7.320312 1.425781 7.53125 1.1875 C 7.757812 0.925781 7.929688 0.640625 8.046875 0.328125 C 8.160156 0.015625 8.222656 -0.296875 8.234375 -0.609375 C 8.242188 -0.921875 8.1875 -1.222656 8.0625 -1.515625 C 7.9375 -1.816406 7.738281 -2.082031 7.46875 -2.3125 C 7.1875 -2.550781 6.882812 -2.707031 6.5625 -2.78125 C 6.25 -2.851562 5.9375 -2.859375 5.625 -2.796875 C 5.320312 -2.734375 5.023438 -2.609375 4.734375 -2.421875 C 4.453125 -2.242188 4.207031 -2.03125 4 -1.78125 Z M 4 -1.78125 "/></g></g></g><g fill="#ffde59" fill-opacity="1"><g transform="translate(240.223369, 116.809365)"><g><path d="M 6.96875 -4.078125 L 3.953125 1.53125 L 9.8125 -0.921875 L 10.90625 0.28125 L 2.953125 3.28125 L 2.09375 2.328125 L 5.890625 -5.28125 Z M 6.96875 -4.078125 "/></g></g></g><g fill="#ffde59" fill-opacity="1"><g transform="translate(246.641508, 124.146343)"><g><path d="M 8.265625 -1.953125 L 9.03125 -0.828125 L 4.21875 6.125 L 3.328125 4.828125 L 4.53125 3.109375 L 2.96875 0.828125 L 0.9375 1.34375 L 0.03125 0.046875 Z M 5.265625 2.25 L 7.1875 -0.40625 L 4 0.421875 Z M 5.265625 2.25 "/></g></g></g><g fill="#ffde59" fill-opacity="1"><g transform="translate(252.020156, 132.239559)"><g><path d="M 8.921875 2.96875 L 7.765625 0.734375 L 1.9375 3.75 L 1.234375 2.390625 L 7.0625 -0.625 L 5.90625 -2.875 L 7.09375 -3.484375 L 10.109375 2.359375 Z M 8.921875 2.96875 "/></g></g></g><g fill="#ffde59" fill-opacity="1"><g transform="translate(256.064321, 140.509005)"><g><path d="M 0.3125 0.765625 L 7.65625 -2.15625 L 8.21875 -0.734375 L 0.875 2.1875 Z M 0.3125 0.765625 "/></g></g></g><g fill="#ffde59" fill-opacity="1"><g transform="translate(258.106217, 145.587674)"><g><path d="M 1.0625 4.0625 C 0.90625 3.5 0.875 2.960938 0.96875 2.453125 C 1.070312 1.941406 1.257812 1.472656 1.53125 1.046875 C 1.800781 0.617188 2.144531 0.25 2.5625 -0.0625 C 2.976562 -0.375 3.425781 -0.597656 3.90625 -0.734375 C 4.414062 -0.867188 4.925781 -0.90625 5.4375 -0.84375 C 5.957031 -0.78125 6.441406 -0.632812 6.890625 -0.40625 C 7.347656 -0.175781 7.742188 0.132812 8.078125 0.53125 C 8.410156 0.9375 8.65625 1.410156 8.8125 1.953125 C 8.957031 2.503906 8.976562 3.035156 8.875 3.546875 C 8.78125 4.066406 8.597656 4.535156 8.328125 4.953125 C 8.054688 5.378906 7.707031 5.742188 7.28125 6.046875 C 6.863281 6.359375 6.421875 6.582031 5.953125 6.71875 C 5.441406 6.851562 4.925781 6.894531 4.40625 6.84375 C 3.894531 6.789062 3.421875 6.648438 2.984375 6.421875 C 2.546875 6.191406 2.148438 5.875 1.796875 5.46875 C 1.453125 5.0625 1.207031 4.59375 1.0625 4.0625 Z M 4.328125 0.78125 C 3.992188 0.875 3.6875 1.007812 3.40625 1.1875 C 3.125 1.375 2.890625 1.59375 2.703125 1.84375 C 2.523438 2.101562 2.398438 2.390625 2.328125 2.703125 C 2.265625 3.023438 2.28125 3.363281 2.375 3.71875 C 2.476562 4.070312 2.640625 4.363281 2.859375 4.59375 C 3.085938 4.832031 3.347656 5.007812 3.640625 5.125 C 3.929688 5.25 4.242188 5.316406 4.578125 5.328125 C 4.921875 5.347656 5.25 5.3125 5.5625 5.21875 C 5.894531 5.125 6.195312 4.984375 6.46875 4.796875 C 6.738281 4.609375 6.96875 4.390625 7.15625 4.140625 C 7.34375 3.890625 7.46875 3.601562 7.53125 3.28125 C 7.59375 2.96875 7.578125 2.640625 7.484375 2.296875 C 7.390625 1.929688 7.226562 1.628906 7 1.390625 C 6.78125 1.160156 6.519531 0.984375 6.21875 0.859375 C 5.925781 0.742188 5.613281 0.679688 5.28125 0.671875 C 4.957031 0.660156 4.640625 0.695312 4.328125 0.78125 Z M 4.328125 0.78125 "/></g></g></g><g fill="#ffde59" fill-opacity="1"><g transform="translate(260.798412, 155.84529)"><g><path d="M 5.3125 1.6875 L 0.296875 2.34375 L 0.109375 0.828125 L 7.953125 -0.1875 L 8.109375 0.984375 L 3.484375 5.75 L 8.625 5.078125 L 8.828125 6.59375 L 0.984375 7.609375 L 0.828125 6.375 Z M 5.3125 1.6875 "/></g></g></g><g mask="url(#b5417c2cac)"><g transform="matrix(1, 0, 0, 1, 140, 118)"><g clip-path="url(#677d04d796)"><g clip-path="url(#d8c03811d6)"><path fill="#5271ff" d="M 65.691406 1.191406 C 66.78125 1.070312 67.628906 1.132812 68.230469 1.375 L 69.140625 1.738281 L 69.410156 2.007812 C 69.59375 2.191406 69.804688 2.582031 70.046875 3.1875 C 70.289062 3.792969 70.46875 4.820312 70.589844 6.273438 C 70.710938 7.726562 70.652344 8.933594 70.410156 9.902344 L 70.046875 11.355469 L 69.59375 11.625 C 69.289062 11.808594 68.925781 11.988281 68.503906 12.171875 C 68.082031 12.351562 67.75 12.683594 67.507812 13.167969 L 67.144531 13.894531 L 66.960938 14.257812 C 66.839844 14.5 66.839844 15.042969 66.960938 15.890625 C 67.082031 16.738281 67.234375 18.25 67.414062 20.425781 L 67.6875 23.695312 L 70.410156 23.785156 C 72.222656 23.84375 73.917969 23.753906 75.492188 23.511719 C 77.0625 23.269531 78.089844 23.027344 78.574219 22.785156 C 79.058594 22.542969 79.601562 22.453125 80.207031 22.515625 C 80.8125 22.574219 81.023438 22.96875 80.84375 23.695312 C 80.660156 24.417969 80.539062 24.8125 80.480469 24.871094 L 80.390625 24.964844 L 80.027344 25.328125 C 79.785156 25.570312 79.058594 25.75 77.847656 25.871094 C 76.640625 25.992188 75.308594 26.234375 73.855469 26.597656 C 72.40625 26.960938 70.652344 27.082031 68.59375 26.960938 C 66.539062 26.839844 65.390625 26.746094 65.148438 26.6875 C 64.90625 26.628906 64.695312 26.414062 64.511719 26.050781 L 64.238281 25.507812 L 63.695312 26.234375 C 63.332031 26.71875 62.96875 27.203125 62.605469 27.683594 C 62.242188 28.167969 61.730469 28.804688 61.0625 29.589844 C 60.398438 30.378906 59.734375 30.980469 59.066406 31.40625 C 58.402344 31.828125 57.828125 32.464844 57.34375 33.3125 C 56.859375 34.15625 56.617188 34.824219 56.617188 35.308594 L 56.617188 36.03125 L 57.164062 36.757812 C 57.527344 37.242188 58.039062 37.816406 58.707031 38.480469 C 59.371094 39.148438 59.976562 39.632812 60.519531 39.933594 C 61.0625 40.238281 61.488281 40.476562 61.789062 40.660156 C 62.09375 40.839844 62.484375 41.113281 62.96875 41.476562 C 63.453125 41.839844 64.511719 42.898438 66.144531 44.652344 C 67.777344 46.40625 68.714844 47.585938 68.957031 48.191406 C 69.199219 48.796875 69.503906 49.703125 69.863281 50.914062 C 70.226562 52.121094 70.710938 53.753906 71.316406 55.8125 C 71.921875 57.867188 72.253906 59.078125 72.316406 59.441406 C 72.375 59.804688 73.917969 60.074219 76.941406 60.257812 C 79.964844 60.4375 81.449219 60.558594 81.386719 60.621094 L 81.207031 60.800781 C 81.144531 60.863281 80.691406 60.953125 79.84375 61.074219 C 79 61.195312 77.757812 61.285156 76.125 61.347656 C 74.492188 61.40625 73.613281 61.617188 73.496094 61.980469 L 73.3125 62.527344 L 73.949219 63.523438 C 74.371094 64.1875 77.0625 64.640625 82.023438 64.882812 C 86.984375 65.125 89.523438 65.308594 89.644531 65.429688 L 89.824219 65.609375 L 82.929688 65.882812 C 78.332031 66.0625 76.09375 66.519531 76.214844 67.242188 C 76.335938 67.96875 76.09375 68.300781 75.492188 68.242188 L 74.582031 68.152344 L 74.402344 67.96875 C 74.28125 67.847656 74.097656 67.757812 73.855469 67.695312 C 73.613281 67.636719 73.433594 67.457031 73.3125 67.152344 C 73.191406 66.851562 72.769531 66.578125 72.042969 66.335938 C 71.316406 66.09375 70.53125 65.914062 69.683594 65.792969 C 68.835938 65.671875 67.265625 65.609375 64.964844 65.609375 C 62.667969 65.609375 61.09375 65.609375 60.246094 65.609375 C 59.402344 65.609375 57.828125 65.609375 55.53125 65.609375 C 53.230469 65.609375 50.691406 65.609375 47.910156 65.609375 C 45.125 65.609375 43.675781 65.609375 43.554688 65.609375 C 43.433594 65.609375 42.644531 65.609375 41.195312 65.609375 C 39.742188 65.609375 38.050781 65.609375 36.113281 65.609375 C 34.179688 65.609375 31.578125 65.609375 28.3125 65.609375 L 23.410156 65.609375 L 22.6875 65.519531 C 22.203125 65.460938 21.960938 65.308594 21.960938 65.066406 C 21.960938 64.824219 23.472656 64.734375 26.496094 64.792969 C 29.519531 64.855469 31.636719 64.824219 32.847656 64.703125 C 34.058594 64.582031 40.53125 64.460938 52.261719 64.339844 C 63.996094 64.21875 69.957031 64.066406 70.136719 63.886719 C 70.320312 63.703125 70.347656 63.3125 70.226562 62.707031 C 70.105469 62.101562 69.894531 61.707031 69.59375 61.527344 C 69.289062 61.347656 68.65625 61.195312 67.6875 61.074219 C 66.71875 60.953125 63.636719 60.953125 58.433594 61.074219 C 53.230469 61.195312 50.570312 61.253906 50.449219 61.253906 C 50.328125 61.253906 47.667969 61.226562 42.464844 61.164062 C 37.261719 61.105469 34.632812 61.195312 34.570312 61.4375 L 34.480469 61.800781 L 34.390625 61.4375 C 34.328125 61.195312 33.632812 61.042969 32.304688 60.984375 C 30.972656 60.921875 29.882812 60.953125 29.035156 61.074219 C 28.191406 61.195312 27.707031 61.253906 27.585938 61.253906 C 27.464844 61.253906 26.375 61.195312 24.320312 61.074219 C 22.261719 60.953125 20.628906 60.890625 19.417969 60.890625 C 18.210938 60.890625 16.125 60.863281 13.160156 60.800781 L 8.714844 60.710938 L 8.621094 60.621094 C 8.5625 60.558594 8.652344 60.46875 8.894531 60.347656 C 9.136719 60.226562 11.074219 60.167969 14.703125 60.167969 C 18.332031 60.167969 20.207031 60.167969 20.328125 60.167969 C 20.449219 60.167969 20.570312 60.167969 20.691406 60.167969 C 20.8125 60.167969 21.839844 60.167969 23.773438 60.167969 C 25.710938 60.167969 26.738281 60.167969 26.859375 60.167969 C 26.980469 60.167969 27.949219 60.136719 29.761719 60.074219 C 31.578125 60.015625 32.546875 59.984375 32.667969 59.984375 C 32.785156 59.984375 33.148438 59.953125 33.753906 59.894531 C 34.359375 59.832031 35.144531 59.804688 36.113281 59.804688 C 37.082031 59.804688 38.652344 59.863281 40.832031 59.984375 C 43.007812 60.105469 44.460938 60.136719 45.1875 60.074219 L 46.277344 59.984375 L 46.003906 59.078125 C 45.820312 58.472656 45.609375 57.503906 45.367188 56.175781 C 45.125 54.84375 44.945312 54.117188 44.824219 53.996094 C 44.703125 53.875 44.492188 53.332031 44.1875 52.363281 L 43.734375 50.914062 L 43.191406 51.183594 C 42.828125 51.367188 42.464844 51.578125 42.101562 51.820312 C 41.738281 52.0625 40.410156 52.363281 38.109375 52.726562 C 35.8125 53.089844 34.601562 53.269531 34.480469 53.269531 C 34.359375 53.269531 34.148438 53.179688 33.84375 53 C 33.542969 52.816406 33.242188 52.9375 32.9375 53.363281 C 32.636719 53.785156 32.363281 54.027344 32.121094 54.085938 L 31.757812 54.179688 L 31.757812 53.816406 C 31.757812 53.574219 31.636719 53.484375 31.394531 53.542969 C 31.152344 53.605469 30.125 53.753906 28.3125 53.996094 C 26.496094 54.238281 25.285156 54.480469 24.683594 54.722656 C 24.078125 54.964844 23.046875 55.507812 21.597656 56.355469 C 20.144531 57.203125 19.296875 57.65625 19.058594 57.71875 L 18.695312 57.808594 L 18.964844 56.71875 C 19.148438 55.992188 19.480469 55.328125 19.964844 54.722656 C 20.449219 54.117188 20.933594 53.453125 21.414062 52.726562 C 21.898438 52 22.171875 51.609375 22.230469 51.546875 L 22.324219 51.457031 L 25.769531 51.273438 C 28.070312 51.152344 29.734375 50.882812 30.761719 50.457031 C 31.789062 50.035156 32.394531 49.855469 32.574219 49.914062 C 32.757812 49.976562 32.90625 49.945312 33.027344 49.824219 C 33.148438 49.703125 34.179688 49.519531 36.113281 49.277344 C 38.050781 49.035156 39.230469 48.765625 39.652344 48.460938 C 40.074219 48.160156 40.4375 47.644531 40.742188 46.921875 L 41.195312 45.832031 L 40.832031 45.832031 C 40.589844 45.832031 40.316406 45.46875 40.015625 44.742188 C 39.710938 44.015625 39.351562 43.503906 38.925781 43.199219 C 38.503906 42.898438 37.835938 42.535156 36.929688 42.113281 C 36.023438 41.6875 35.417969 41.386719 35.117188 41.203125 C 34.8125 41.023438 34.300781 40.691406 33.574219 40.207031 C 32.847656 39.722656 32.121094 39.359375 31.394531 39.117188 L 30.308594 38.753906 L 29.761719 38.9375 C 29.398438 39.058594 28.371094 39.601562 26.679688 40.570312 C 24.984375 41.535156 23.53125 42.261719 22.324219 42.746094 C 21.113281 43.230469 19.058594 43.59375 16.152344 43.835938 C 13.25 44.078125 11.011719 44.378906 9.4375 44.742188 C 7.867188 45.105469 6.445312 45.558594 5.175781 46.101562 C 3.90625 46.648438 2.96875 47.160156 2.363281 47.644531 C 1.757812 48.128906 1.363281 48.523438 1.183594 48.824219 C 1 49.128906 0.789062 49.308594 0.546875 49.371094 L 0.183594 49.460938 L 0.457031 48.371094 C 0.640625 47.644531 0.851562 47.101562 1.09375 46.738281 C 1.335938 46.375 1.605469 45.800781 1.910156 45.015625 L 2.363281 43.835938 L 2.90625 43.652344 C 3.269531 43.53125 4.117188 43.410156 5.449219 43.289062 C 6.777344 43.171875 7.804688 42.929688 8.53125 42.566406 C 9.257812 42.203125 9.921875 41.898438 10.527344 41.65625 C 11.132812 41.414062 11.980469 41.234375 13.070312 41.113281 C 14.15625 40.992188 15.367188 40.871094 16.699219 40.75 L 18.695312 40.570312 L 19.78125 39.84375 C 20.507812 39.359375 21.324219 38.664062 22.230469 37.757812 C 23.140625 36.847656 23.894531 35.910156 24.5 34.945312 C 25.105469 33.976562 25.648438 33.128906 26.132812 32.402344 C 26.617188 31.675781 27.191406 30.980469 27.859375 30.316406 C 28.523438 29.652344 28.976562 29.289062 29.21875 29.226562 C 29.460938 29.167969 29.671875 28.957031 29.851562 28.59375 C 30.035156 28.230469 30.277344 27.898438 30.578125 27.59375 L 31.03125 27.140625 L 30.671875 26.597656 C 30.429688 26.234375 30.1875 26.023438 29.945312 25.960938 C 29.703125 25.902344 29.582031 25.75 29.582031 25.507812 C 29.582031 25.265625 29.429688 25.085938 29.128906 24.964844 C 28.824219 24.84375 28.3125 24.175781 27.585938 22.96875 C 26.859375 21.757812 26.40625 20.941406 26.222656 20.519531 L 25.953125 19.882812 L 26.222656 19.429688 C 26.40625 19.125 26.679688 18.734375 27.039062 18.25 C 27.402344 17.765625 28.039062 17.128906 28.945312 16.34375 C 29.851562 15.558594 30.851562 14.863281 31.941406 14.257812 C 33.027344 13.652344 33.9375 13.109375 34.664062 12.625 C 35.386719 12.140625 36.175781 11.839844 37.019531 11.71875 C 37.867188 11.597656 38.625 11.503906 39.289062 11.445312 L 40.289062 11.355469 L 40.46875 10.992188 C 40.589844 10.75 40.769531 9.539062 41.011719 7.363281 C 41.253906 5.183594 41.40625 3.976562 41.46875 3.734375 L 41.558594 3.371094 L 42.644531 2.917969 C 43.371094 2.613281 44.339844 2.523438 45.550781 2.644531 L 47.363281 2.824219 L 47.816406 3.460938 C 48.121094 3.882812 48.421875 4.671875 48.726562 5.820312 C 49.027344 6.96875 49.148438 7.574219 49.089844 7.632812 C 49.027344 7.695312 48.875 8.207031 48.632812 9.175781 C 48.390625 10.144531 48.121094 10.78125 47.816406 11.082031 C 47.515625 11.382812 46.878906 11.6875 45.914062 11.988281 L 44.460938 12.441406 L 44.371094 13.167969 C 44.308594 13.652344 44.402344 14.074219 44.640625 14.4375 C 44.882812 14.800781 45.125 15.40625 45.367188 16.253906 C 45.609375 17.101562 45.761719 17.886719 45.820312 18.613281 L 45.914062 19.703125 L 46.820312 19.429688 C 47.425781 19.246094 48.785156 18.644531 50.902344 17.613281 C 53.019531 16.585938 54.230469 15.980469 54.53125 15.800781 C 54.835938 15.617188 55.347656 15.40625 56.074219 15.164062 C 56.800781 14.921875 57.648438 14.621094 58.613281 14.257812 C 59.582031 13.894531 60.398438 13.5 61.0625 13.078125 C 61.730469 12.65625 62.121094 12.320312 62.242188 12.078125 L 62.425781 11.71875 L 62.242188 10.445312 C 62.121094 9.601562 61.882812 8.691406 61.519531 7.726562 C 61.15625 6.757812 60.972656 6.09375 60.972656 5.730469 L 60.972656 5.183594 L 61.335938 4.277344 C 61.578125 3.671875 62.09375 3.039062 62.878906 2.371094 C 63.664062 1.707031 64.601562 1.3125 65.691406 1.191406 Z M 31.394531 18.976562 C 32.363281 18.613281 32.878906 18.523438 32.9375 18.703125 C 33 18.882812 32.878906 19.761719 32.574219 21.335938 C 32.273438 22.90625 32 23.695312 31.757812 23.695312 C 31.515625 23.695312 31.273438 23.421875 31.03125 22.875 C 30.792969 22.332031 30.578125 21.910156 30.398438 21.605469 L 30.125 21.152344 L 29.945312 20.972656 C 29.824219 20.851562 29.792969 20.578125 29.851562 20.15625 C 29.914062 19.730469 30.429688 19.339844 31.394531 18.976562 Z M 42.828125 22.332031 L 43.371094 22.242188 L 43.101562 23.148438 C 42.917969 23.753906 42.644531 24.359375 42.285156 24.964844 C 41.921875 25.570312 41.617188 26.414062 41.375 27.503906 C 41.132812 28.59375 40.921875 30.648438 40.742188 33.671875 C 40.558594 36.699219 40.589844 38.242188 40.832031 38.300781 L 41.195312 38.390625 L 42.011719 38.300781 C 42.554688 38.242188 42.886719 38.089844 43.007812 37.847656 C 43.128906 37.605469 43.25 36.578125 43.371094 34.761719 C 43.492188 32.949219 43.855469 31.375 44.460938 30.042969 C 45.066406 28.714844 45.488281 27.867188 45.730469 27.503906 L 46.09375 26.960938 L 46.546875 27.230469 C 46.851562 27.414062 47.636719 27.59375 48.90625 27.777344 L 50.8125 28.046875 L 50.628906 28.957031 C 50.507812 29.558594 50.027344 30.347656 49.179688 31.316406 C 48.332031 32.28125 47.726562 33.007812 47.363281 33.492188 C 47 33.976562 46.757812 34.398438 46.636719 34.761719 C 46.515625 35.125 46.335938 35.851562 46.09375 36.941406 C 45.851562 38.027344 45.429688 39.117188 44.824219 40.207031 C 44.21875 41.292969 43.765625 42.050781 43.460938 42.472656 C 43.160156 42.898438 42.886719 43.140625 42.644531 43.199219 L 42.285156 43.289062 L 42.011719 42.566406 C 41.828125 42.082031 41.496094 41.535156 41.011719 40.933594 C 40.53125 40.328125 40.257812 39.902344 40.195312 39.660156 C 40.136719 39.417969 39.925781 39.207031 39.5625 39.027344 C 39.199219 38.84375 38.773438 38.453125 38.292969 37.847656 C 37.808594 37.242188 37.171875 36.484375 36.386719 35.578125 L 35.207031 34.21875 L 35.386719 32.949219 C 35.507812 32.101562 35.871094 31.195312 36.476562 30.226562 C 37.082031 29.257812 37.566406 28.652344 37.929688 28.410156 C 38.292969 28.167969 38.652344 27.804688 39.015625 27.324219 C 39.378906 26.839844 39.804688 26.292969 40.289062 25.6875 C 40.769531 25.085938 41.195312 24.417969 41.558594 23.695312 C 41.921875 22.96875 42.132812 22.574219 42.191406 22.515625 C 42.253906 22.453125 42.464844 22.394531 42.828125 22.332031 Z M 52.988281 42.382812 C 53.351562 42.382812 53.777344 42.566406 54.257812 42.929688 C 54.742188 43.289062 55.46875 43.773438 56.4375 44.378906 C 57.40625 44.984375 58.855469 45.769531 60.792969 46.738281 C 62.726562 47.707031 63.90625 48.402344 64.332031 48.824219 L 64.964844 49.460938 L 65.328125 50.1875 C 65.570312 50.671875 65.8125 51.636719 66.054688 53.089844 C 66.296875 54.542969 66.71875 55.75 67.324219 56.71875 C 67.929688 57.6875 68.292969 58.230469 68.414062 58.351562 C 68.535156 58.472656 68.59375 58.714844 68.59375 59.078125 L 68.59375 59.621094 L 68.503906 59.714844 C 68.445312 59.773438 68.171875 59.863281 67.6875 59.984375 C 67.203125 60.105469 64.300781 60.105469 58.976562 59.984375 C 53.65625 59.863281 50.871094 59.742188 50.628906 59.621094 L 50.269531 59.441406 L 49.449219 58.441406 C 48.90625 57.777344 48.390625 56.898438 47.910156 55.8125 C 47.425781 54.722656 47 53.210938 46.636719 51.273438 L 46.09375 48.371094 L 47.453125 46.828125 C 48.363281 45.800781 49.117188 45.195312 49.722656 45.015625 C 50.328125 44.832031 50.722656 44.5625 50.902344 44.199219 C 51.085938 43.835938 51.386719 43.441406 51.808594 43.019531 L 52.445312 42.382812 Z M 52.71875 21.242188 C 53.382812 20.941406 53.777344 20.851562 53.898438 20.972656 L 54.078125 21.152344 L 54.078125 21.335938 C 54.078125 21.457031 53.746094 22.300781 53.082031 23.875 C 52.414062 25.449219 51.71875 26.144531 50.992188 25.960938 C 50.269531 25.78125 49.84375 25.628906 49.722656 25.507812 L 49.542969 25.328125 L 48.363281 24.691406 C 47.574219 24.269531 47.214844 23.90625 47.273438 23.601562 C 47.335938 23.300781 48.089844 22.90625 49.542969 22.421875 C 50.992188 21.9375 52.050781 21.546875 52.71875 21.242188 Z M 52.71875 21.242188 " fill-opacity="1" fill-rule="evenodd"/></g><g clip-path="url(#c7ea870f9f)"><path fill="#72835c" d="M 7.898438 69.964844 C 11.34375 69.84375 13.097656 69.8125 13.160156 69.875 C 13.21875 69.933594 18.695312 69.964844 29.582031 69.964844 C 40.46875 69.964844 45.972656 69.964844 46.09375 69.964844 C 46.214844 69.964844 47.910156 69.964844 51.175781 69.964844 C 54.441406 69.964844 56.132812 69.964844 56.253906 69.964844 C 56.375 69.964844 56.738281 69.964844 57.34375 69.964844 C 57.949219 69.964844 58.675781 69.964844 59.523438 69.964844 C 60.367188 69.964844 60.851562 69.964844 60.972656 69.964844 C 61.09375 69.964844 61.214844 69.964844 61.335938 69.964844 C 61.457031 69.964844 62.425781 69.964844 64.238281 69.964844 C 66.054688 69.964844 67.023438 69.964844 67.144531 69.964844 C 67.265625 69.964844 69.078125 69.964844 72.585938 69.964844 C 76.09375 69.964844 77.910156 69.964844 78.03125 69.964844 C 78.152344 69.964844 78.394531 69.964844 78.757812 69.964844 C 79.121094 69.964844 80.449219 69.964844 82.75 69.964844 C 85.046875 69.964844 87.40625 69.964844 89.824219 69.964844 C 92.246094 69.964844 93.695312 69.933594 94.179688 69.875 C 94.664062 69.8125 94.90625 69.964844 94.90625 70.328125 C 94.90625 70.691406 94.695312 70.8125 94.269531 70.691406 L 93.636719 70.507812 L 93.546875 70.601562 C 93.484375 70.660156 93.210938 70.75 92.730469 70.871094 C 92.246094 70.992188 91.820312 71.054688 91.457031 71.054688 C 91.097656 71.054688 89.765625 71.054688 87.464844 71.054688 C 85.167969 71.054688 83.292969 71.054688 81.839844 71.054688 C 80.390625 71.054688 77.847656 71.054688 74.21875 71.054688 C 70.589844 71.054688 68.714844 71.054688 68.59375 71.054688 C 68.472656 71.054688 68.351562 71.054688 68.230469 71.054688 C 68.109375 71.054688 67.113281 71.023438 65.238281 70.964844 C 63.363281 70.902344 62.335938 70.902344 62.152344 70.964844 C 61.972656 71.023438 61.578125 71.054688 60.972656 71.054688 C 60.367188 71.054688 60.003906 71.054688 59.886719 71.054688 C 59.765625 71.054688 59.644531 71.054688 59.523438 71.054688 C 59.402344 71.054688 59.28125 71.054688 59.160156 71.054688 C 59.039062 71.054688 58.917969 71.054688 58.796875 71.054688 C 58.675781 71.054688 58.554688 71.054688 58.433594 71.054688 C 58.3125 71.054688 58.191406 71.054688 58.070312 71.054688 C 57.949219 71.054688 57.828125 71.054688 57.707031 71.054688 C 57.585938 71.054688 57.285156 71.054688 56.800781 71.054688 C 56.316406 71.054688 53.171875 71.054688 47.363281 71.054688 C 41.558594 71.054688 32.667969 71.023438 20.691406 70.964844 L 2.726562 70.871094 L 2.726562 70.507812 C 2.726562 70.269531 4.449219 70.085938 7.898438 69.964844 Z M 7.898438 69.964844 " fill-opacity="1" fill-rule="evenodd"/></g></g></g></g><g fill="#ffde59" fill-opacity="1"><g transform="translate(94.424509, 188.191087)"><g><path d="M 7.4375 -1.59375 L 7.4375 0 L 0.96875 0 L 0.96875 -9.3125 L 7.328125 -9.3125 L 7.328125 -7.734375 L 2.78125 -7.734375 L 2.78125 -5.484375 L 6.703125 -5.484375 L 6.703125 -4.015625 L 2.78125 -4.015625 L 2.78125 -1.59375 Z M 7.4375 -1.59375 "/></g></g></g><g fill="#ffde59" fill-opacity="1"><g transform="translate(102.3126, 188.191087)"><g><path d="M 3.40625 0.125 C 2.820312 0.125 2.253906 0.0351562 1.703125 -0.140625 C 1.148438 -0.328125 0.675781 -0.59375 0.28125 -0.9375 L 0.9375 -2.03125 C 1.363281 -1.738281 1.773438 -1.515625 2.171875 -1.359375 C 2.566406 -1.203125 2.960938 -1.125 3.359375 -1.125 C 3.710938 -1.125 3.988281 -1.1875 4.1875 -1.3125 C 4.382812 -1.445312 4.484375 -1.640625 4.484375 -1.890625 C 4.484375 -2.128906 4.363281 -2.304688 4.125 -2.421875 C 3.894531 -2.535156 3.515625 -2.671875 2.984375 -2.828125 C 2.535156 -2.941406 2.148438 -3.054688 1.828125 -3.171875 C 1.515625 -3.285156 1.257812 -3.414062 1.0625 -3.5625 C 0.875 -3.707031 0.738281 -3.875 0.65625 -4.0625 C 0.570312 -4.25 0.53125 -4.472656 0.53125 -4.734375 C 0.53125 -5.085938 0.597656 -5.40625 0.734375 -5.6875 C 0.867188 -5.96875 1.054688 -6.203125 1.296875 -6.390625 C 1.546875 -6.585938 1.832031 -6.738281 2.15625 -6.84375 C 2.488281 -6.957031 2.847656 -7.015625 3.234375 -7.015625 C 3.742188 -7.015625 4.222656 -6.9375 4.671875 -6.78125 C 5.128906 -6.632812 5.546875 -6.394531 5.921875 -6.0625 L 5.203125 -5 C 4.859375 -5.257812 4.519531 -5.453125 4.1875 -5.578125 C 3.863281 -5.703125 3.539062 -5.765625 3.21875 -5.765625 C 2.914062 -5.765625 2.664062 -5.703125 2.46875 -5.578125 C 2.269531 -5.453125 2.171875 -5.253906 2.171875 -4.984375 C 2.171875 -4.859375 2.191406 -4.753906 2.234375 -4.671875 C 2.285156 -4.597656 2.363281 -4.53125 2.46875 -4.46875 C 2.570312 -4.414062 2.707031 -4.359375 2.875 -4.296875 C 3.050781 -4.242188 3.265625 -4.1875 3.515625 -4.125 C 3.984375 -4 4.382812 -3.875 4.71875 -3.75 C 5.0625 -3.625 5.335938 -3.484375 5.546875 -3.328125 C 5.765625 -3.171875 5.925781 -2.988281 6.03125 -2.78125 C 6.132812 -2.582031 6.1875 -2.335938 6.1875 -2.046875 C 6.1875 -1.367188 5.9375 -0.835938 5.4375 -0.453125 C 4.9375 -0.0664062 4.257812 0.125 3.40625 0.125 Z M 3.40625 0.125 "/></g></g></g><g fill="#ffde59" fill-opacity="1"><g transform="translate(108.835698, 188.191087)"><g><path d="M 4.921875 -0.359375 C 4.679688 -0.253906 4.390625 -0.144531 4.046875 -0.03125 C 3.710938 0.0703125 3.359375 0.125 2.984375 0.125 C 2.734375 0.125 2.5 0.09375 2.28125 0.03125 C 2.070312 -0.03125 1.882812 -0.128906 1.71875 -0.265625 C 1.5625 -0.398438 1.429688 -0.570312 1.328125 -0.78125 C 1.234375 -1 1.1875 -1.265625 1.1875 -1.578125 L 1.1875 -5.53125 L 0.28125 -5.53125 L 0.28125 -6.875 L 1.1875 -6.875 L 1.1875 -9.109375 L 2.953125 -9.109375 L 2.953125 -6.875 L 4.390625 -6.875 L 4.390625 -5.53125 L 2.953125 -5.53125 L 2.953125 -2.171875 C 2.953125 -1.921875 3.015625 -1.742188 3.140625 -1.640625 C 3.265625 -1.546875 3.421875 -1.5 3.609375 -1.5 C 3.796875 -1.5 3.972656 -1.53125 4.140625 -1.59375 C 4.316406 -1.65625 4.457031 -1.707031 4.5625 -1.75 Z M 4.921875 -0.359375 "/></g></g></g><g fill="#ffde59" fill-opacity="1"><g transform="translate(113.875676, 188.191087)"><g><path d="M 3.65625 0.125 C 3.175781 0.125 2.734375 0.0351562 2.328125 -0.140625 C 1.929688 -0.328125 1.585938 -0.582031 1.296875 -0.90625 C 1.003906 -1.226562 0.773438 -1.601562 0.609375 -2.03125 C 0.453125 -2.46875 0.375 -2.9375 0.375 -3.4375 C 0.375 -3.9375 0.453125 -4.398438 0.609375 -4.828125 C 0.765625 -5.253906 0.976562 -5.628906 1.25 -5.953125 C 1.519531 -6.273438 1.84375 -6.53125 2.21875 -6.71875 C 2.59375 -6.90625 3.003906 -7 3.453125 -7 C 3.960938 -7 4.421875 -6.875 4.828125 -6.625 C 5.234375 -6.382812 5.550781 -6.066406 5.78125 -5.671875 L 5.78125 -9.578125 L 7.53125 -9.578125 L 7.53125 -2.015625 C 7.53125 -1.835938 7.5625 -1.707031 7.625 -1.625 C 7.6875 -1.550781 7.789062 -1.507812 7.9375 -1.5 L 7.9375 0 C 7.632812 0.0625 7.382812 0.09375 7.1875 0.09375 C 6.875 0.09375 6.613281 0.015625 6.40625 -0.140625 C 6.207031 -0.296875 6.097656 -0.503906 6.078125 -0.765625 L 6.03125 -1.1875 C 5.78125 -0.75 5.4375 -0.421875 5 -0.203125 C 4.570312 0.015625 4.125 0.125 3.65625 0.125 Z M 4.109375 -1.359375 C 4.273438 -1.359375 4.441406 -1.382812 4.609375 -1.4375 C 4.785156 -1.5 4.945312 -1.582031 5.09375 -1.6875 C 5.25 -1.789062 5.382812 -1.910156 5.5 -2.046875 C 5.625 -2.191406 5.71875 -2.347656 5.78125 -2.515625 L 5.78125 -4.15625 C 5.707031 -4.351562 5.609375 -4.53125 5.484375 -4.6875 C 5.359375 -4.851562 5.210938 -4.992188 5.046875 -5.109375 C 4.878906 -5.234375 4.707031 -5.328125 4.53125 -5.390625 C 4.351562 -5.460938 4.175781 -5.5 4 -5.5 C 3.738281 -5.5 3.492188 -5.441406 3.265625 -5.328125 C 3.046875 -5.210938 2.859375 -5.054688 2.703125 -4.859375 C 2.546875 -4.660156 2.421875 -4.4375 2.328125 -4.1875 C 2.242188 -3.9375 2.203125 -3.675781 2.203125 -3.40625 C 2.203125 -3.113281 2.25 -2.84375 2.34375 -2.59375 C 2.445312 -2.351562 2.582031 -2.140625 2.75 -1.953125 C 2.914062 -1.773438 3.113281 -1.628906 3.34375 -1.515625 C 3.570312 -1.410156 3.828125 -1.359375 4.109375 -1.359375 Z M 4.109375 -1.359375 "/></g></g></g><g fill="#ffde59" fill-opacity="1"><g transform="translate(253.253572, 188.191087)"><g><path d="M 0.5 0 C 0.5 -0.394531 0.53125 -0.75 0.59375 -1.0625 C 0.65625 -1.382812 0.757812 -1.679688 0.90625 -1.953125 C 1.0625 -2.222656 1.269531 -2.476562 1.53125 -2.71875 C 1.800781 -2.957031 2.144531 -3.1875 2.5625 -3.40625 C 2.914062 -3.601562 3.226562 -3.773438 3.5 -3.921875 C 3.78125 -4.066406 4.007812 -4.195312 4.1875 -4.3125 C 4.375 -4.4375 4.515625 -4.5625 4.609375 -4.6875 C 4.710938 -4.8125 4.765625 -4.957031 4.765625 -5.125 C 4.765625 -5.394531 4.660156 -5.625 4.453125 -5.8125 C 4.242188 -6 3.941406 -6.09375 3.546875 -6.09375 C 3.335938 -6.09375 3.144531 -6.0625 2.96875 -6 C 2.789062 -5.945312 2.625 -5.867188 2.46875 -5.765625 C 2.320312 -5.671875 2.179688 -5.566406 2.046875 -5.453125 C 1.921875 -5.335938 1.804688 -5.210938 1.703125 -5.078125 L 0.578125 -6.375 C 0.691406 -6.5 0.851562 -6.632812 1.0625 -6.78125 C 1.269531 -6.925781 1.515625 -7.0625 1.796875 -7.1875 C 2.085938 -7.3125 2.40625 -7.414062 2.75 -7.5 C 3.09375 -7.582031 3.460938 -7.625 3.859375 -7.625 C 4.304688 -7.625 4.703125 -7.566406 5.046875 -7.453125 C 5.398438 -7.347656 5.695312 -7.195312 5.9375 -7 C 6.175781 -6.800781 6.359375 -6.5625 6.484375 -6.28125 C 6.617188 -6.007812 6.6875 -5.710938 6.6875 -5.390625 C 6.6875 -5.085938 6.628906 -4.816406 6.515625 -4.578125 C 6.398438 -4.335938 6.253906 -4.125 6.078125 -3.9375 C 5.898438 -3.757812 5.707031 -3.601562 5.5 -3.46875 C 5.300781 -3.332031 5.101562 -3.210938 4.90625 -3.109375 C 4.75 -3.023438 4.566406 -2.925781 4.359375 -2.8125 C 4.160156 -2.695312 3.960938 -2.570312 3.765625 -2.4375 C 3.578125 -2.300781 3.398438 -2.160156 3.234375 -2.015625 C 3.066406 -1.867188 2.9375 -1.726562 2.84375 -1.59375 L 6.828125 -1.59375 L 6.828125 0 Z M 0.5 0 "/></g></g></g><g fill="#ffde59" fill-opacity="1"><g transform="translate(260.656045, 188.191087)"><g><path d="M 7.421875 -3.84375 C 7.421875 -3.269531 7.332031 -2.738281 7.15625 -2.25 C 6.988281 -1.757812 6.753906 -1.335938 6.453125 -0.984375 C 6.148438 -0.628906 5.789062 -0.351562 5.375 -0.15625 C 4.957031 0.03125 4.507812 0.125 4.03125 0.125 C 3.539062 0.125 3.085938 0.03125 2.671875 -0.15625 C 2.265625 -0.351562 1.910156 -0.628906 1.609375 -0.984375 C 1.304688 -1.335938 1.066406 -1.757812 0.890625 -2.25 C 0.722656 -2.738281 0.640625 -3.269531 0.640625 -3.84375 C 0.640625 -4.425781 0.722656 -4.957031 0.890625 -5.4375 C 1.066406 -5.925781 1.304688 -6.347656 1.609375 -6.703125 C 1.910156 -7.054688 2.265625 -7.332031 2.671875 -7.53125 C 3.085938 -7.726562 3.539062 -7.828125 4.03125 -7.828125 C 4.507812 -7.828125 4.957031 -7.726562 5.375 -7.53125 C 5.789062 -7.332031 6.148438 -7.054688 6.453125 -6.703125 C 6.753906 -6.347656 6.988281 -5.925781 7.15625 -5.4375 C 7.332031 -4.957031 7.421875 -4.425781 7.421875 -3.84375 Z M 5.640625 -3.84375 C 5.640625 -4.195312 5.597656 -4.519531 5.515625 -4.8125 C 5.441406 -5.101562 5.332031 -5.351562 5.1875 -5.5625 C 5.039062 -5.769531 4.867188 -5.929688 4.671875 -6.046875 C 4.484375 -6.160156 4.269531 -6.21875 4.03125 -6.21875 C 3.78125 -6.21875 3.554688 -6.160156 3.359375 -6.046875 C 3.171875 -5.929688 3.003906 -5.769531 2.859375 -5.5625 C 2.710938 -5.351562 2.597656 -5.101562 2.515625 -4.8125 C 2.441406 -4.519531 2.40625 -4.195312 2.40625 -3.84375 C 2.40625 -3.5 2.441406 -3.179688 2.515625 -2.890625 C 2.597656 -2.597656 2.710938 -2.347656 2.859375 -2.140625 C 3.003906 -1.929688 3.171875 -1.769531 3.359375 -1.65625 C 3.554688 -1.539062 3.78125 -1.484375 4.03125 -1.484375 C 4.269531 -1.484375 4.484375 -1.539062 4.671875 -1.65625 C 4.867188 -1.769531 5.039062 -1.929688 5.1875 -2.140625 C 5.332031 -2.347656 5.441406 -2.597656 5.515625 -2.890625 C 5.597656 -3.179688 5.640625 -3.5 5.640625 -3.84375 Z M 5.640625 -3.84375 "/></g></g></g><g fill="#ffde59" fill-opacity="1"><g transform="translate(268.714756, 188.191087)"><g><path d="M 0.5 0 C 0.5 -0.394531 0.53125 -0.75 0.59375 -1.0625 C 0.65625 -1.382812 0.757812 -1.679688 0.90625 -1.953125 C 1.0625 -2.222656 1.269531 -2.476562 1.53125 -2.71875 C 1.800781 -2.957031 2.144531 -3.1875 2.5625 -3.40625 C 2.914062 -3.601562 3.226562 -3.773438 3.5 -3.921875 C 3.78125 -4.066406 4.007812 -4.195312 4.1875 -4.3125 C 4.375 -4.4375 4.515625 -4.5625 4.609375 -4.6875 C 4.710938 -4.8125 4.765625 -4.957031 4.765625 -5.125 C 4.765625 -5.394531 4.660156 -5.625 4.453125 -5.8125 C 4.242188 -6 3.941406 -6.09375 3.546875 -6.09375 C 3.335938 -6.09375 3.144531 -6.0625 2.96875 -6 C 2.789062 -5.945312 2.625 -5.867188 2.46875 -5.765625 C 2.320312 -5.671875 2.179688 -5.566406 2.046875 -5.453125 C 1.921875 -5.335938 1.804688 -5.210938 1.703125 -5.078125 L 0.578125 -6.375 C 0.691406 -6.5 0.851562 -6.632812 1.0625 -6.78125 C 1.269531 -6.925781 1.515625 -7.0625 1.796875 -7.1875 C 2.085938 -7.3125 2.40625 -7.414062 2.75 -7.5 C 3.09375 -7.582031 3.460938 -7.625 3.859375 -7.625 C 4.304688 -7.625 4.703125 -7.566406 5.046875 -7.453125 C 5.398438 -7.347656 5.695312 -7.195312 5.9375 -7 C 6.175781 -6.800781 6.359375 -6.5625 6.484375 -6.28125 C 6.617188 -6.007812 6.6875 -5.710938 6.6875 -5.390625 C 6.6875 -5.085938 6.628906 -4.816406 6.515625 -4.578125 C 6.398438 -4.335938 6.253906 -4.125 6.078125 -3.9375 C 5.898438 -3.757812 5.707031 -3.601562 5.5 -3.46875 C 5.300781 -3.332031 5.101562 -3.210938 4.90625 -3.109375 C 4.75 -3.023438 4.566406 -2.925781 4.359375 -2.8125 C 4.160156 -2.695312 3.960938 -2.570312 3.765625 -2.4375 C 3.578125 -2.300781 3.398438 -2.160156 3.234375 -2.015625 C 3.066406 -1.867188 2.9375 -1.726562 2.84375 -1.59375 L 6.828125 -1.59375 L 6.828125 0 Z M 0.5 0 "/></g></g></g><g fill="#ffde59" fill-opacity="1"><g transform="translate(276.117229, 188.191087)"><g><path d="M 4.09375 1.671875 L 4.09375 -0.28125 L 0.265625 -0.28125 L 0.265625 -1.84375 L 4.65625 -7.5 L 5.859375 -7.5 L 5.859375 -1.859375 L 7.015625 -1.859375 L 7.015625 -0.28125 L 5.859375 -0.28125 L 5.859375 1.671875 Z M 2.015625 -1.859375 L 4.296875 -1.859375 L 4.296875 -4.828125 Z M 2.015625 -1.859375 "/></g></g></g><g fill="#004aad" fill-opacity="1"><g transform="translate(128.636907, 238.916139)"><g><path d="M 14.40625 -36.578125 C 16.1875 -36.679688 17.332031 -36.335938 17.84375 -35.546875 C 18.363281 -34.765625 18.503906 -33.441406 18.265625 -31.578125 L 14.96875 -3.96875 C 14.550781 -0.507812 13.453125 2.046875 11.671875 3.703125 C 9.898438 5.359375 7.539062 6.265625 4.59375 6.421875 C 2.28125 6.546875 0.492188 6.117188 -0.765625 5.140625 C -2.035156 4.171875 -2.710938 2.90625 -2.796875 1.34375 C -2.859375 0.195312 -2.5625 -0.695312 -1.90625 -1.34375 C -1.257812 -2 -0.347656 -2.359375 0.828125 -2.421875 C 1.460938 -2.460938 1.914062 -2.441406 2.1875 -2.359375 C 2.46875 -2.285156 2.609375 -2.25 2.609375 -2.25 C 2.609375 -2.25 2.488281 -1.90625 2.25 -1.21875 C 2.019531 -0.539062 1.925781 0.253906 1.96875 1.171875 C 2.070312 3.015625 2.929688 3.894531 4.546875 3.8125 C 5.554688 3.75 6.382812 3.242188 7.03125 2.296875 C 7.6875 1.359375 8.160156 -0.242188 8.453125 -2.515625 L 11.921875 -31.484375 C 11.960938 -31.921875 11.992188 -32.34375 12.015625 -32.75 C 12.046875 -33.15625 12.050781 -33.515625 12.03125 -33.828125 L 11.5625 -33.796875 C 9.394531 -33.679688 7.800781 -33.078125 6.78125 -31.984375 C 5.757812 -30.890625 5.285156 -29.660156 5.359375 -28.296875 C 5.390625 -27.628906 5.582031 -27.109375 5.9375 -26.734375 C 6.300781 -26.367188 6.785156 -26.203125 7.390625 -26.234375 C 7.640625 -26.242188 7.832031 -26.273438 7.96875 -26.328125 C 8.113281 -26.378906 8.1875 -26.40625 8.1875 -26.40625 C 8.1875 -26.40625 8.195312 -26.375 8.21875 -26.3125 C 8.238281 -26.25 8.253906 -26.140625 8.265625 -25.984375 C 8.296875 -25.410156 8.023438 -24.804688 7.453125 -24.171875 C 6.878906 -23.535156 5.988281 -23.179688 4.78125 -23.109375 C 3.238281 -23.023438 2 -23.394531 1.0625 -24.21875 C 0.125 -25.050781 -0.382812 -26.175781 -0.46875 -27.59375 C -0.59375 -29.945312 0.335938 -31.953125 2.328125 -33.609375 C 4.316406 -35.265625 7.234375 -36.195312 11.078125 -36.40625 Z M 14.40625 -36.578125 "/></g></g></g><g fill="#004aad" fill-opacity="1"><g transform="translate(149.660494, 237.762065)"><g><path d="M 10.4375 -24.421875 C 13.21875 -24.578125 15.414062 -23.863281 17.03125 -22.28125 C 18.65625 -20.695312 19.539062 -18.546875 19.6875 -15.828125 C 19.71875 -15.316406 19.722656 -14.804688 19.703125 -14.296875 C 19.679688 -13.796875 19.65625 -13.300781 19.625 -12.8125 C 20.820312 -13.070312 21.832031 -13.523438 22.65625 -14.171875 C 23.476562 -14.828125 24.101562 -15.4375 24.53125 -16 C 24.957031 -16.5625 25.171875 -16.84375 25.171875 -16.84375 C 25.835938 -16.882812 26.144531 -16.503906 26.09375 -15.703125 C 26.03125 -15.160156 25.691406 -14.53125 25.078125 -13.8125 C 24.472656 -13.09375 23.664062 -12.429688 22.65625 -11.828125 C 21.65625 -11.234375 20.523438 -10.820312 19.265625 -10.59375 C 18.617188 -7.71875 17.273438 -5.34375 15.234375 -3.46875 C 13.203125 -1.601562 10.566406 -0.582031 7.328125 -0.40625 C 4.828125 -0.269531 2.703125 -0.929688 0.953125 -2.390625 C -0.796875 -3.859375 -1.753906 -6.0625 -1.921875 -9 C -2.078125 -11.894531 -1.679688 -14.472656 -0.734375 -16.734375 C 0.203125 -18.992188 1.625 -20.800781 3.53125 -22.15625 C 5.4375 -23.519531 7.738281 -24.273438 10.4375 -24.421875 Z M 11.140625 -15.21875 C 11.097656 -16.03125 11.265625 -16.738281 11.640625 -17.34375 C 12.023438 -17.957031 12.613281 -18.363281 13.40625 -18.5625 C 13.007812 -21 11.910156 -22.171875 10.109375 -22.078125 C 8.929688 -22.003906 7.804688 -21.238281 6.734375 -19.78125 C 5.660156 -18.320312 4.894531 -15.800781 4.4375 -12.21875 C 4.34375 -11.601562 4.285156 -10.773438 4.265625 -9.734375 C 4.242188 -8.703125 4.25 -7.882812 4.28125 -7.28125 C 4.363281 -5.800781 4.703125 -4.671875 5.296875 -3.890625 C 5.898438 -3.109375 6.691406 -2.742188 7.671875 -2.796875 C 8.972656 -2.867188 10.097656 -3.625 11.046875 -5.0625 C 12.003906 -6.5 12.707031 -8.660156 13.15625 -11.546875 C 11.894531 -12.410156 11.222656 -13.632812 11.140625 -15.21875 Z M 11.140625 -15.21875 "/></g></g></g><g fill="#004aad" fill-opacity="1"><g transform="translate(172.919649, 236.48527)"><g><path d="M 14.40625 -36.578125 C 16.1875 -36.679688 17.332031 -36.335938 17.84375 -35.546875 C 18.363281 -34.765625 18.503906 -33.441406 18.265625 -31.578125 L 14.96875 -3.96875 C 14.550781 -0.507812 13.453125 2.046875 11.671875 3.703125 C 9.898438 5.359375 7.539062 6.265625 4.59375 6.421875 C 2.28125 6.546875 0.492188 6.117188 -0.765625 5.140625 C -2.035156 4.171875 -2.710938 2.90625 -2.796875 1.34375 C -2.859375 0.195312 -2.5625 -0.695312 -1.90625 -1.34375 C -1.257812 -2 -0.347656 -2.359375 0.828125 -2.421875 C 1.460938 -2.460938 1.914062 -2.441406 2.1875 -2.359375 C 2.46875 -2.285156 2.609375 -2.25 2.609375 -2.25 C 2.609375 -2.25 2.488281 -1.90625 2.25 -1.21875 C 2.019531 -0.539062 1.925781 0.253906 1.96875 1.171875 C 2.070312 3.015625 2.929688 3.894531 4.546875 3.8125 C 5.554688 3.75 6.382812 3.242188 7.03125 2.296875 C 7.6875 1.359375 8.160156 -0.242188 8.453125 -2.515625 L 11.921875 -31.484375 C 11.960938 -31.921875 11.992188 -32.34375 12.015625 -32.75 C 12.046875 -33.15625 12.050781 -33.515625 12.03125 -33.828125 L 11.5625 -33.796875 C 9.394531 -33.679688 7.800781 -33.078125 6.78125 -31.984375 C 5.757812 -30.890625 5.285156 -29.660156 5.359375 -28.296875 C 5.390625 -27.628906 5.582031 -27.109375 5.9375 -26.734375 C 6.300781 -26.367188 6.785156 -26.203125 7.390625 -26.234375 C 7.640625 -26.242188 7.832031 -26.273438 7.96875 -26.328125 C 8.113281 -26.378906 8.1875 -26.40625 8.1875 -26.40625 C 8.1875 -26.40625 8.195312 -26.375 8.21875 -26.3125 C 8.238281 -26.25 8.253906 -26.140625 8.265625 -25.984375 C 8.296875 -25.410156 8.023438 -24.804688 7.453125 -24.171875 C 6.878906 -23.535156 5.988281 -23.179688 4.78125 -23.109375 C 3.238281 -23.023438 2 -23.394531 1.0625 -24.21875 C 0.125 -25.050781 -0.382812 -26.175781 -0.46875 -27.59375 C -0.59375 -29.945312 0.335938 -31.953125 2.328125 -33.609375 C 4.316406 -35.265625 7.234375 -36.195312 11.078125 -36.40625 Z M 14.40625 -36.578125 "/></g></g></g><g fill="#004aad" fill-opacity="1"><g transform="translate(193.943236, 235.331196)"><g><path d="M 10.4375 -24.421875 C 13.21875 -24.578125 15.414062 -23.863281 17.03125 -22.28125 C 18.65625 -20.695312 19.539062 -18.546875 19.6875 -15.828125 C 19.71875 -15.316406 19.722656 -14.804688 19.703125 -14.296875 C 19.679688 -13.796875 19.65625 -13.300781 19.625 -12.8125 C 20.820312 -13.070312 21.832031 -13.523438 22.65625 -14.171875 C 23.476562 -14.828125 24.101562 -15.4375 24.53125 -16 C 24.957031 -16.5625 25.171875 -16.84375 25.171875 -16.84375 C 25.835938 -16.882812 26.144531 -16.503906 26.09375 -15.703125 C 26.03125 -15.160156 25.691406 -14.53125 25.078125 -13.8125 C 24.472656 -13.09375 23.664062 -12.429688 22.65625 -11.828125 C 21.65625 -11.234375 20.523438 -10.820312 19.265625 -10.59375 C 18.617188 -7.71875 17.273438 -5.34375 15.234375 -3.46875 C 13.203125 -1.601562 10.566406 -0.582031 7.328125 -0.40625 C 4.828125 -0.269531 2.703125 -0.929688 0.953125 -2.390625 C -0.796875 -3.859375 -1.753906 -6.0625 -1.921875 -9 C -2.078125 -11.894531 -1.679688 -14.472656 -0.734375 -16.734375 C 0.203125 -18.992188 1.625 -20.800781 3.53125 -22.15625 C 5.4375 -23.519531 7.738281 -24.273438 10.4375 -24.421875 Z M 11.140625 -15.21875 C 11.097656 -16.03125 11.265625 -16.738281 11.640625 -17.34375 C 12.023438 -17.957031 12.613281 -18.363281 13.40625 -18.5625 C 13.007812 -21 11.910156 -22.171875 10.109375 -22.078125 C 8.929688 -22.003906 7.804688 -21.238281 6.734375 -19.78125 C 5.660156 -18.320312 4.894531 -15.800781 4.4375 -12.21875 C 4.34375 -11.601562 4.285156 -10.773438 4.265625 -9.734375 C 4.242188 -8.703125 4.25 -7.882812 4.28125 -7.28125 C 4.363281 -5.800781 4.703125 -4.671875 5.296875 -3.890625 C 5.898438 -3.109375 6.691406 -2.742188 7.671875 -2.796875 C 8.972656 -2.867188 10.097656 -3.625 11.046875 -5.0625 C 12.003906 -6.5 12.707031 -8.660156 13.15625 -11.546875 C 11.894531 -12.410156 11.222656 -13.632812 11.140625 -15.21875 Z M 11.140625 -15.21875 "/></g></g></g><g fill="#004aad" fill-opacity="1"><g transform="translate(217.20239, 234.054401)"><g><path d="M 1.5625 -32.4375 C 1.507812 -33.425781 1.796875 -34.265625 2.421875 -34.953125 C 3.046875 -35.640625 3.804688 -36.003906 4.703125 -36.046875 C 5.617188 -36.097656 6.378906 -35.835938 6.984375 -35.265625 C 7.585938 -34.691406 7.914062 -33.894531 7.96875 -32.875 C 8.019531 -32.050781 7.898438 -31.191406 7.609375 -30.296875 C 7.328125 -29.410156 6.941406 -28.570312 6.453125 -27.78125 C 5.972656 -26.988281 5.445312 -26.347656 4.875 -25.859375 C 4.300781 -25.378906 3.75 -25.125 3.21875 -25.09375 C 2.800781 -25.070312 2.488281 -25.164062 2.28125 -25.375 C 2.070312 -25.582031 1.960938 -25.796875 1.953125 -26.015625 C 2.472656 -26.515625 2.875 -27.097656 3.15625 -27.765625 C 3.4375 -28.429688 3.613281 -29.101562 3.6875 -29.78125 C 2.351562 -30.0625 1.644531 -30.945312 1.5625 -32.4375 Z M 1.5625 -32.4375 "/></g></g></g><g fill="#004aad" fill-opacity="1"><g transform="translate(224.955305, 233.62881)"><g><path d="M 10.921875 -13.921875 C 12.722656 -13.117188 14 -12.226562 14.75 -11.25 C 15.5 -10.269531 15.90625 -9.144531 15.96875 -7.875 C 16.039062 -6.644531 15.742188 -5.476562 15.078125 -4.375 C 14.410156 -3.28125 13.351562 -2.363281 11.90625 -1.625 C 10.46875 -0.894531 8.585938 -0.46875 6.265625 -0.34375 C 4.242188 -0.226562 2.582031 -0.429688 1.28125 -0.953125 C -0.0195312 -1.472656 -0.992188 -2.15625 -1.640625 -3 C -2.285156 -3.84375 -2.632812 -4.671875 -2.6875 -5.484375 C -2.738281 -6.398438 -2.457031 -7.117188 -1.84375 -7.640625 C -1.238281 -8.171875 -0.523438 -8.460938 0.296875 -8.515625 C 1.117188 -8.554688 1.710938 -8.472656 2.078125 -8.265625 C 2.441406 -8.066406 2.625 -7.96875 2.625 -7.96875 C 2.625 -7.96875 2.585938 -7.84375 2.515625 -7.59375 C 2.453125 -7.351562 2.429688 -7.015625 2.453125 -6.578125 C 2.523438 -5.410156 2.898438 -4.46875 3.578125 -3.75 C 4.253906 -3.039062 5.269531 -2.707031 6.625 -2.75 C 7.988281 -2.820312 8.976562 -3.175781 9.59375 -3.8125 C 10.207031 -4.457031 10.492188 -5.175781 10.453125 -5.96875 C 10.421875 -6.53125 10.21875 -7.046875 9.84375 -7.515625 C 9.46875 -7.992188 8.84375 -8.4375 7.96875 -8.84375 L 3.171875 -11.046875 C 1.992188 -11.617188 0.972656 -12.320312 0.109375 -13.15625 C -0.742188 -13.988281 -1.210938 -15.191406 -1.296875 -16.765625 C -1.398438 -18.703125 -0.648438 -20.394531 0.953125 -21.84375 C 2.554688 -23.300781 5.035156 -24.125 8.390625 -24.3125 C 10.359375 -24.414062 12 -24.210938 13.3125 -23.703125 C 14.632812 -23.191406 15.628906 -22.515625 16.296875 -21.671875 C 16.960938 -20.835938 17.316406 -20.007812 17.359375 -19.1875 C 17.410156 -18.289062 17.128906 -17.570312 16.515625 -17.03125 C 15.910156 -16.5 15.203125 -16.207031 14.390625 -16.15625 C 13.585938 -16.113281 13 -16.1875 12.625 -16.375 C 12.25 -16.570312 12.0625 -16.671875 12.0625 -16.671875 C 12.0625 -16.671875 12.09375 -16.800781 12.15625 -17.0625 C 12.226562 -17.320312 12.253906 -17.660156 12.234375 -18.078125 C 12.171875 -19.191406 11.773438 -20.125 11.046875 -20.875 C 10.316406 -21.632812 9.285156 -21.976562 7.953125 -21.90625 C 6.648438 -21.832031 5.6875 -21.484375 5.0625 -20.859375 C 4.445312 -20.234375 4.160156 -19.507812 4.203125 -18.6875 C 4.242188 -17.988281 4.46875 -17.425781 4.875 -17 C 5.289062 -16.582031 5.90625 -16.195312 6.71875 -15.84375 Z M 10.921875 -13.921875 "/></g></g></g><g fill="#004aad" fill-opacity="1"><g transform="translate(76.953546, 279.791166)"><g><path d="M 10.171875 -27.109375 C 8.671875 -26.941406 7.488281 -26.390625 6.625 -25.453125 C 5.757812 -24.523438 5.40625 -23.382812 5.5625 -22.03125 C 5.644531 -21.257812 5.941406 -20.550781 6.453125 -19.90625 C 6.972656 -19.257812 7.679688 -18.734375 8.578125 -18.328125 L 13.5625 -16.109375 C 15.238281 -15.378906 16.460938 -14.503906 17.234375 -13.484375 C 18.003906 -12.460938 18.460938 -11.300781 18.609375 -10 C 18.765625 -8.644531 18.515625 -7.328125 17.859375 -6.046875 C 17.203125 -4.765625 16.144531 -3.664062 14.6875 -2.75 C 13.238281 -1.84375 11.390625 -1.265625 9.140625 -1.015625 C 7.472656 -0.828125 5.976562 -0.921875 4.65625 -1.296875 C 3.332031 -1.671875 2.269531 -2.265625 1.46875 -3.078125 C 0.675781 -3.898438 0.21875 -4.882812 0.09375 -6.03125 C -0.0507812 -7.351562 0.15625 -8.359375 0.71875 -9.046875 C 1.28125 -9.734375 2.003906 -10.125 2.890625 -10.21875 C 3.484375 -10.289062 3.957031 -10.265625 4.3125 -10.140625 C 4.664062 -10.015625 4.910156 -9.878906 5.046875 -9.734375 C 5.191406 -9.585938 5.265625 -9.515625 5.265625 -9.515625 C 5.265625 -9.515625 5.171875 -9.378906 4.984375 -9.109375 C 4.796875 -8.847656 4.617188 -8.472656 4.453125 -7.984375 C 4.285156 -7.503906 4.238281 -6.945312 4.3125 -6.3125 C 4.4375 -5.195312 4.914062 -4.335938 5.75 -3.734375 C 6.59375 -3.128906 7.726562 -2.910156 9.15625 -3.078125 C 10.820312 -3.265625 12.085938 -3.847656 12.953125 -4.828125 C 13.816406 -5.804688 14.179688 -6.894531 14.046875 -8.09375 C 13.941406 -9.03125 13.59375 -9.828125 13 -10.484375 C 12.40625 -11.140625 11.453125 -11.75 10.140625 -12.3125 L 5.9375 -14.125 C 4.289062 -14.820312 3.085938 -15.671875 2.328125 -16.671875 C 1.566406 -17.679688 1.113281 -18.847656 0.96875 -20.171875 C 0.8125 -21.554688 1.050781 -22.882812 1.6875 -24.15625 C 2.320312 -25.4375 3.328125 -26.523438 4.703125 -27.421875 C 6.085938 -28.328125 7.847656 -28.898438 9.984375 -29.140625 C 11.734375 -29.335938 13.296875 -29.238281 14.671875 -28.84375 C 16.054688 -28.445312 17.160156 -27.820312 17.984375 -26.96875 C 18.804688 -26.113281 19.289062 -25.070312 19.4375 -23.84375 C 19.570312 -22.550781 19.359375 -21.507812 18.796875 -20.71875 C 18.242188 -19.925781 17.40625 -19.460938 16.28125 -19.328125 C 15.382812 -19.234375 14.734375 -19.328125 14.328125 -19.609375 C 13.929688 -19.890625 13.734375 -20.03125 13.734375 -20.03125 C 13.734375 -20.03125 13.867188 -20.164062 14.140625 -20.4375 C 14.421875 -20.71875 14.6875 -21.148438 14.9375 -21.734375 C 15.1875 -22.328125 15.257812 -23.066406 15.15625 -23.953125 C 15.039062 -24.992188 14.570312 -25.820312 13.75 -26.4375 C 12.9375 -27.050781 11.742188 -27.273438 10.171875 -27.109375 Z M 10.171875 -27.109375 "/></g></g></g><g fill="#004aad" fill-opacity="1"><g transform="translate(97.585704, 277.497433)"><g><path d="M 4.078125 -14.75 C 5.359375 -17.8125 7.175781 -19.472656 9.53125 -19.734375 C 11.257812 -19.929688 12.640625 -19.515625 13.671875 -18.484375 C 14.710938 -17.453125 15.335938 -15.972656 15.546875 -14.046875 C 15.609375 -13.515625 15.640625 -12.984375 15.640625 -12.453125 C 15.648438 -11.929688 15.632812 -11.421875 15.59375 -10.921875 C 16.3125 -11.078125 16.929688 -11.335938 17.453125 -11.703125 C 17.984375 -12.078125 18.425781 -12.460938 18.78125 -12.859375 C 19.132812 -13.265625 19.398438 -13.609375 19.578125 -13.890625 C 19.765625 -14.171875 19.859375 -14.3125 19.859375 -14.3125 C 20.367188 -14.363281 20.617188 -14.082031 20.609375 -13.46875 C 20.585938 -13.039062 20.347656 -12.53125 19.890625 -11.9375 C 19.429688 -11.34375 18.8125 -10.785156 18.03125 -10.265625 C 17.257812 -9.753906 16.382812 -9.390625 15.40625 -9.171875 C 15.09375 -7.597656 14.5625 -6.207031 13.8125 -5 C 13.0625 -3.800781 12.171875 -2.84375 11.140625 -2.125 C 10.109375 -1.414062 8.992188 -0.992188 7.796875 -0.859375 C 6.898438 -0.765625 6.070312 -0.84375 5.3125 -1.09375 C 4.550781 -1.34375 3.882812 -1.707031 3.3125 -2.1875 L 2.59375 9.234375 C 2.53125 10.421875 2.566406 11.25 2.703125 11.71875 C 2.835938 12.1875 2.90625 12.421875 2.90625 12.421875 C 2.90625 12.421875 2.765625 12.492188 2.484375 12.640625 C 2.203125 12.785156 1.71875 12.894531 1.03125 12.96875 C -0.394531 13.125 -1.289062 12.929688 -1.65625 12.390625 C -2.03125 11.847656 -2.179688 10.921875 -2.109375 9.609375 L -0.578125 -15.078125 C -0.523438 -16.242188 -0.566406 -17.0625 -0.703125 -17.53125 C -0.835938 -18.007812 -0.90625 -18.25 -0.90625 -18.25 C -0.90625 -18.25 -0.765625 -18.316406 -0.484375 -18.453125 C -0.203125 -18.597656 0.285156 -18.710938 0.984375 -18.796875 C 2.410156 -18.953125 3.304688 -18.757812 3.671875 -18.21875 C 4.046875 -17.6875 4.195312 -16.757812 4.125 -15.4375 Z M 9.015625 -12.4375 C 8.941406 -13.050781 9.039062 -13.609375 9.3125 -14.109375 C 9.582031 -14.617188 10.003906 -14.96875 10.578125 -15.15625 C 10.210938 -16.332031 9.539062 -16.863281 8.5625 -16.75 C 7.507812 -16.632812 6.472656 -15.539062 5.453125 -13.46875 C 5.035156 -12.5625 4.648438 -11.507812 4.296875 -10.3125 C 3.941406 -9.125 3.679688 -7.671875 3.515625 -5.953125 L 3.421875 -4.53125 C 3.703125 -4.164062 4.082031 -3.84375 4.5625 -3.5625 C 5.050781 -3.28125 5.660156 -3.179688 6.390625 -3.265625 C 7.410156 -3.367188 8.316406 -4.015625 9.109375 -5.203125 C 9.898438 -6.390625 10.425781 -7.882812 10.6875 -9.6875 C 9.707031 -10.289062 9.148438 -11.207031 9.015625 -12.4375 Z M 9.015625 -12.4375 "/></g></g></g><g fill="#004aad" fill-opacity="1"><g transform="translate(116.630754, 275.380144)"><g><path d="M 7.0625 -19.46875 C 9.226562 -19.707031 10.972656 -19.242188 12.296875 -18.078125 C 13.617188 -16.921875 14.398438 -15.28125 14.640625 -13.15625 C 14.679688 -12.769531 14.703125 -12.375 14.703125 -11.96875 C 14.710938 -11.570312 14.71875 -11.191406 14.71875 -10.828125 C 15.632812 -11.078125 16.394531 -11.472656 17 -12.015625 C 17.613281 -12.554688 18.078125 -13.054688 18.390625 -13.515625 C 18.703125 -13.972656 18.859375 -14.203125 18.859375 -14.203125 C 19.378906 -14.253906 19.632812 -13.972656 19.625 -13.359375 C 19.601562 -12.929688 19.363281 -12.425781 18.90625 -11.84375 C 18.457031 -11.257812 17.859375 -10.710938 17.109375 -10.203125 C 16.359375 -9.691406 15.503906 -9.316406 14.546875 -9.078125 C 14.160156 -6.828125 13.210938 -4.925781 11.703125 -3.375 C 10.203125 -1.820312 8.195312 -0.90625 5.6875 -0.625 C 3.738281 -0.414062 2.050781 -0.84375 0.625 -1.90625 C -0.800781 -2.96875 -1.640625 -4.640625 -1.890625 -6.921875 C -2.140625 -9.160156 -1.945312 -11.179688 -1.3125 -12.984375 C -0.6875 -14.796875 0.34375 -16.269531 1.78125 -17.40625 C 3.21875 -18.550781 4.976562 -19.238281 7.0625 -19.46875 Z M 8.015625 -12.328125 C 7.941406 -12.960938 8.035156 -13.523438 8.296875 -14.015625 C 8.566406 -14.515625 9.007812 -14.859375 9.625 -15.046875 C 9.21875 -16.910156 8.3125 -17.765625 6.90625 -17.609375 C 5.988281 -17.503906 5.144531 -16.863281 4.375 -15.6875 C 3.613281 -14.519531 3.125 -12.523438 2.90625 -9.703125 C 2.863281 -9.222656 2.859375 -8.582031 2.890625 -7.78125 C 2.921875 -6.976562 2.960938 -6.34375 3.015625 -5.875 C 3.140625 -4.71875 3.453125 -3.847656 3.953125 -3.265625 C 4.453125 -2.679688 5.085938 -2.429688 5.859375 -2.515625 C 6.859375 -2.628906 7.695312 -3.265625 8.375 -4.421875 C 9.0625 -5.585938 9.515625 -7.304688 9.734375 -9.578125 C 8.722656 -10.179688 8.148438 -11.097656 8.015625 -12.328125 Z M 8.015625 -12.328125 "/></g></g></g><g fill="#004aad" fill-opacity="1"><g transform="translate(134.679247, 273.373644)"><g><path d="M 3.953125 -13.796875 C 4.921875 -15.910156 5.941406 -17.410156 7.015625 -18.296875 C 8.085938 -19.191406 9.039062 -19.6875 9.875 -19.78125 C 10.789062 -19.882812 11.535156 -19.71875 12.109375 -19.28125 C 12.691406 -18.84375 13.035156 -18.160156 13.140625 -17.234375 C 13.253906 -16.191406 13.066406 -15.304688 12.578125 -14.578125 C 12.085938 -13.859375 11.382812 -13.445312 10.46875 -13.34375 C 10 -13.289062 9.601562 -13.28125 9.28125 -13.3125 C 8.957031 -13.351562 8.796875 -13.375 8.796875 -13.375 C 8.796875 -13.375 8.851562 -13.566406 8.96875 -13.953125 C 9.09375 -14.347656 9.128906 -14.789062 9.078125 -15.28125 C 9.015625 -15.820312 8.722656 -16.0625 8.203125 -16 C 7.898438 -15.96875 7.554688 -15.78125 7.171875 -15.4375 C 6.785156 -15.09375 6.332031 -14.457031 5.8125 -13.53125 C 5.414062 -12.84375 5.050781 -12.078125 4.71875 -11.234375 C 4.394531 -10.390625 4.113281 -9.367188 3.875 -8.171875 C 3.632812 -6.972656 3.46875 -5.488281 3.375 -3.71875 C 3.3125 -2.601562 3.347656 -1.828125 3.484375 -1.390625 C 3.628906 -0.960938 3.703125 -0.75 3.703125 -0.75 C 3.703125 -0.75 3.554688 -0.675781 3.265625 -0.53125 C 2.984375 -0.382812 2.492188 -0.273438 1.796875 -0.203125 C 0.378906 -0.046875 -0.515625 -0.238281 -0.890625 -0.78125 C -1.265625 -1.320312 -1.410156 -2.242188 -1.328125 -3.546875 L -0.609375 -15.0625 C -0.554688 -16.238281 -0.597656 -17.0625 -0.734375 -17.53125 C -0.867188 -18.007812 -0.9375 -18.25 -0.9375 -18.25 C -0.9375 -18.25 -0.796875 -18.316406 -0.515625 -18.453125 C -0.234375 -18.597656 0.253906 -18.707031 0.953125 -18.78125 C 2.367188 -18.9375 3.265625 -18.726562 3.640625 -18.15625 C 4.023438 -17.59375 4.171875 -16.6875 4.078125 -15.4375 Z M 3.953125 -13.796875 "/></g></g></g><g fill="#004aad" fill-opacity="1"><g transform="translate(149.479718, 271.728236)"><g><path d="M -0.546875 -18.625 L -0.40625 -20.65625 C -0.300781 -21.84375 -0.320312 -22.671875 -0.46875 -23.140625 C -0.625 -23.609375 -0.703125 -23.84375 -0.703125 -23.84375 C -0.703125 -23.84375 -0.554688 -23.914062 -0.265625 -24.0625 C 0.015625 -24.207031 0.492188 -24.316406 1.171875 -24.390625 C 2.609375 -24.554688 3.515625 -24.367188 3.890625 -23.828125 C 4.273438 -23.285156 4.414062 -22.351562 4.3125 -21.03125 L 4.203125 -19.140625 L 7.84375 -19.546875 C 7.84375 -19.546875 7.894531 -19.484375 8 -19.359375 C 8.101562 -19.234375 8.164062 -19.050781 8.1875 -18.8125 C 8.226562 -18.488281 8.148438 -18.21875 7.953125 -18 C 7.765625 -17.78125 7.460938 -17.644531 7.046875 -17.59375 L 4.0625 -17.265625 L 3.40625 -6.90625 C 3.351562 -5.894531 3.535156 -5.117188 3.953125 -4.578125 C 4.378906 -4.035156 5.023438 -3.8125 5.890625 -3.90625 C 6.941406 -4.03125 7.800781 -4.476562 8.46875 -5.25 C 9.144531 -6.019531 9.640625 -6.804688 9.953125 -7.609375 C 10.203125 -7.640625 10.398438 -7.582031 10.546875 -7.4375 C 10.703125 -7.289062 10.765625 -7.054688 10.734375 -6.734375 C 10.640625 -5.960938 10.296875 -5.113281 9.703125 -4.1875 C 9.117188 -3.257812 8.363281 -2.441406 7.4375 -1.734375 C 6.519531 -1.023438 5.46875 -0.601562 4.28125 -0.46875 C 2.925781 -0.320312 1.722656 -0.640625 0.671875 -1.421875 C -0.367188 -2.203125 -0.972656 -3.332031 -1.140625 -4.8125 C -1.179688 -5.226562 -1.210938 -5.757812 -1.234375 -6.40625 C -1.265625 -7.050781 -1.242188 -7.851562 -1.171875 -8.8125 L -0.65625 -16.734375 L -3.0625 -16.46875 C -3.0625 -16.46875 -3.109375 -16.53125 -3.203125 -16.65625 C -3.304688 -16.789062 -3.375 -16.984375 -3.40625 -17.234375 C -3.4375 -17.546875 -3.351562 -17.8125 -3.15625 -18.03125 C -2.957031 -18.25 -2.660156 -18.378906 -2.265625 -18.421875 Z M -0.546875 -18.625 "/></g></g></g><g fill="#004aad" fill-opacity="1"><g transform="translate(158.928326, 270.677808)"><g><path d="M -0.609375 -24.234375 C -0.691406 -24.992188 -0.5 -25.648438 -0.03125 -26.203125 C 0.425781 -26.765625 1 -27.082031 1.6875 -27.15625 C 2.394531 -27.238281 2.976562 -27.082031 3.4375 -26.6875 C 3.894531 -26.289062 4.160156 -25.753906 4.234375 -25.078125 C 4.304688 -24.453125 4.128906 -23.84375 3.703125 -23.25 C 3.285156 -22.664062 2.671875 -22.328125 1.859375 -22.234375 C 1.203125 -22.160156 0.644531 -22.3125 0.1875 -22.6875 C -0.269531 -23.070312 -0.535156 -23.585938 -0.609375 -24.234375 Z M -0.875 -15.046875 C -0.8125 -16.242188 -0.847656 -17.070312 -0.984375 -17.53125 C -1.128906 -17.988281 -1.203125 -18.21875 -1.203125 -18.21875 C -1.203125 -18.21875 -1.0625 -18.285156 -0.78125 -18.421875 C -0.5 -18.566406 -0.0078125 -18.675781 0.6875 -18.75 C 2.113281 -18.914062 3.007812 -18.726562 3.375 -18.1875 C 3.75 -17.65625 3.898438 -16.726562 3.828125 -15.40625 L 3.296875 -6.90625 C 3.253906 -5.78125 3.398438 -4.96875 3.734375 -4.46875 C 4.078125 -3.976562 4.582031 -3.769531 5.25 -3.84375 C 5.882812 -3.914062 6.539062 -4.28125 7.21875 -4.9375 C 7.90625 -5.601562 8.421875 -6.453125 8.765625 -7.484375 C 9.015625 -7.503906 9.210938 -7.445312 9.359375 -7.3125 C 9.515625 -7.1875 9.585938 -6.945312 9.578125 -6.59375 C 9.535156 -6.082031 9.367188 -5.5 9.078125 -4.84375 C 8.796875 -4.195312 8.390625 -3.550781 7.859375 -2.90625 C 7.335938 -2.269531 6.710938 -1.71875 5.984375 -1.25 C 5.265625 -0.78125 4.46875 -0.5 3.59375 -0.40625 C 2.300781 -0.257812 1.207031 -0.539062 0.3125 -1.25 C -0.570312 -1.96875 -1.097656 -3.0625 -1.265625 -4.53125 C -1.304688 -4.90625 -1.332031 -5.398438 -1.34375 -6.015625 C -1.363281 -6.640625 -1.351562 -7.328125 -1.3125 -8.078125 Z M -0.875 -15.046875 "/></g></g></g><g fill="#004aad" fill-opacity="1"><g transform="translate(167.232742, 269.754584)"><g><path d="M 10.1875 -14.1875 C 10.238281 -15.070312 10.164062 -15.671875 9.96875 -15.984375 C 9.78125 -16.304688 9.476562 -16.441406 9.0625 -16.390625 C 8.46875 -16.328125 7.863281 -15.945312 7.25 -15.25 C 6.644531 -14.550781 6.066406 -13.613281 5.515625 -12.4375 C 4.960938 -11.269531 4.492188 -9.957031 4.109375 -8.5 C 3.734375 -7.039062 3.488281 -5.519531 3.375 -3.9375 C 3.300781 -2.75 3.335938 -1.921875 3.484375 -1.453125 C 3.628906 -0.984375 3.703125 -0.75 3.703125 -0.75 C 3.703125 -0.75 3.554688 -0.675781 3.265625 -0.53125 C 2.984375 -0.382812 2.492188 -0.273438 1.796875 -0.203125 C 0.378906 -0.046875 -0.515625 -0.238281 -0.890625 -0.78125 C -1.265625 -1.320312 -1.410156 -2.242188 -1.328125 -3.546875 L -0.609375 -15.0625 C -0.554688 -16.238281 -0.597656 -17.0625 -0.734375 -17.53125 C -0.867188 -18.007812 -0.9375 -18.25 -0.9375 -18.25 C -0.9375 -18.25 -0.796875 -18.316406 -0.515625 -18.453125 C -0.234375 -18.597656 0.253906 -18.707031 0.953125 -18.78125 C 2.367188 -18.9375 3.265625 -18.75 3.640625 -18.21875 C 4.015625 -17.6875 4.160156 -16.757812 4.078125 -15.4375 L 3.96875 -13.71875 C 4.375 -14.570312 4.90625 -15.453125 5.5625 -16.359375 C 6.21875 -17.273438 6.976562 -18.0625 7.84375 -18.71875 C 8.707031 -19.375 9.628906 -19.753906 10.609375 -19.859375 C 11.765625 -19.984375 12.722656 -19.738281 13.484375 -19.125 C 14.242188 -18.519531 14.691406 -17.640625 14.828125 -16.484375 C 14.867188 -16.085938 14.890625 -15.628906 14.890625 -15.109375 C 14.890625 -14.585938 14.875 -14.035156 14.84375 -13.453125 L 14.53125 -8.15625 C 14.457031 -7.226562 14.554688 -6.460938 14.828125 -5.859375 C 15.109375 -5.253906 15.628906 -4.992188 16.390625 -5.078125 C 17.179688 -5.171875 17.878906 -5.546875 18.484375 -6.203125 C 19.085938 -6.867188 19.566406 -7.707031 19.921875 -8.71875 C 20.171875 -8.738281 20.367188 -8.679688 20.515625 -8.546875 C 20.671875 -8.421875 20.742188 -8.1875 20.734375 -7.84375 C 20.710938 -7.363281 20.554688 -6.796875 20.265625 -6.140625 C 19.972656 -5.484375 19.566406 -4.828125 19.046875 -4.171875 C 18.523438 -3.523438 17.910156 -2.96875 17.203125 -2.5 C 16.492188 -2.03125 15.707031 -1.75 14.84375 -1.65625 C 13.457031 -1.5 12.316406 -1.800781 11.421875 -2.5625 C 10.535156 -3.320312 10.015625 -4.390625 9.859375 -5.765625 C 9.804688 -6.265625 9.800781 -6.945312 9.84375 -7.8125 C 9.882812 -8.675781 9.921875 -9.421875 9.953125 -10.046875 Z M 10.1875 -14.1875 "/></g></g></g><g fill="#004aad" fill-opacity="1"><g transform="translate(186.683804, 267.592157)"><g><path d="M 13.828125 -4.6875 C 13.828125 -4.6875 14.019531 -4.789062 14.40625 -5 C 14.789062 -5.21875 15.285156 -5.515625 15.890625 -5.890625 C 16.503906 -6.265625 17.128906 -6.695312 17.765625 -7.1875 C 18.410156 -7.675781 18.976562 -8.171875 19.46875 -8.671875 C 19.695312 -8.691406 19.890625 -8.632812 20.046875 -8.5 C 20.210938 -8.375 20.285156 -8.175781 20.265625 -7.90625 C 20.234375 -7.570312 19.878906 -7.078125 19.203125 -6.421875 C 18.566406 -5.835938 17.75 -5.179688 16.75 -4.453125 C 15.75 -3.734375 14.738281 -3.046875 13.71875 -2.390625 L 13.6875 -1.9375 C 13.445312 2.425781 12.59375 5.851562 11.125 8.34375 C 9.664062 10.84375 7.570312 12.242188 4.84375 12.546875 C 3.570312 12.679688 2.519531 12.425781 1.6875 11.78125 C 0.851562 11.144531 0.375 10.253906 0.25 9.109375 C 0.132812 8.035156 0.3125 6.972656 0.78125 5.921875 C 1.257812 4.878906 1.910156 3.925781 2.734375 3.0625 C 3.554688 2.164062 4.453125 1.347656 5.421875 0.609375 C 6.398438 -0.128906 7.597656 -0.957031 9.015625 -1.875 L 9.171875 -4.53125 C 7.929688 -2.050781 6.3125 -0.703125 4.3125 -0.484375 C 2.8125 -0.316406 1.472656 -0.691406 0.296875 -1.609375 C -0.867188 -2.523438 -1.570312 -4.0625 -1.8125 -6.21875 C -2.039062 -8.289062 -1.96875 -10.113281 -1.59375 -11.6875 C -1.226562 -13.257812 -0.660156 -14.59375 0.109375 -15.6875 C 0.890625 -16.78125 1.785156 -17.628906 2.796875 -18.234375 C 3.816406 -18.847656 4.875 -19.21875 5.96875 -19.34375 C 6.894531 -19.445312 7.703125 -19.367188 8.390625 -19.109375 C 9.085938 -18.847656 9.675781 -18.46875 10.15625 -17.96875 C 10.363281 -18.675781 10.707031 -19.191406 11.1875 -19.515625 C 11.664062 -19.835938 12.359375 -20.050781 13.265625 -20.15625 C 13.910156 -20.226562 14.382812 -20.21875 14.6875 -20.125 C 14.988281 -20.039062 15.140625 -20 15.140625 -20 C 15.140625 -20 15.0625 -19.796875 14.90625 -19.390625 C 14.75 -18.984375 14.648438 -18.269531 14.609375 -17.25 Z M 5.4375 -3.859375 C 6.09375 -3.929688 6.671875 -4.296875 7.171875 -4.953125 C 7.679688 -5.617188 8.101562 -6.453125 8.4375 -7.453125 C 8.769531 -8.453125 9.039062 -9.503906 9.25 -10.609375 C 9.46875 -11.722656 9.613281 -12.742188 9.6875 -13.671875 L 9.8125 -15.4375 C 9.613281 -15.78125 9.304688 -16.132812 8.890625 -16.5 C 8.484375 -16.875 7.921875 -17.023438 7.203125 -16.953125 C 6.367188 -16.859375 5.582031 -16.367188 4.84375 -15.484375 C 4.101562 -14.609375 3.539062 -13.421875 3.15625 -11.921875 C 2.78125 -10.421875 2.703125 -8.675781 2.921875 -6.6875 C 3.035156 -5.644531 3.3125 -4.894531 3.75 -4.4375 C 4.1875 -3.976562 4.75 -3.785156 5.4375 -3.859375 Z M 4.203125 10.140625 C 5.503906 10.003906 6.554688 9.117188 7.359375 7.484375 C 8.160156 5.847656 8.664062 3.519531 8.875 0.5 C 7.726562 1.257812 6.753906 1.957031 5.953125 2.59375 C 5.160156 3.238281 4.53125 3.867188 4.0625 4.484375 C 2.757812 6.035156 2.175781 7.429688 2.3125 8.671875 C 2.363281 9.128906 2.546875 9.503906 2.859375 9.796875 C 3.179688 10.097656 3.628906 10.210938 4.203125 10.140625 Z M 4.203125 10.140625 "/></g></g></g><g fill="#004aad" fill-opacity="1"><g transform="translate(205.691952, 265.47897)"><g><path d="M 22.515625 -14.265625 C 22.515625 -14.265625 22.550781 -14.207031 22.625 -14.09375 C 22.707031 -13.988281 22.757812 -13.828125 22.78125 -13.609375 C 22.832031 -13.160156 22.675781 -12.773438 22.3125 -12.453125 C 21.945312 -12.140625 21.441406 -11.859375 20.796875 -11.609375 C 20.703125 -10.046875 20.316406 -8.519531 19.640625 -7.03125 C 18.972656 -5.550781 17.992188 -4.28125 16.703125 -3.21875 C 15.410156 -2.164062 13.753906 -1.53125 11.734375 -1.3125 C 9.890625 -1.101562 8.171875 -1.351562 6.578125 -2.0625 C 4.992188 -2.769531 3.664062 -3.914062 2.59375 -5.5 C 1.519531 -7.082031 0.847656 -9.097656 0.578125 -11.546875 C 0.316406 -13.953125 0.414062 -16.191406 0.875 -18.265625 C 1.34375 -20.335938 2.101562 -22.171875 3.15625 -23.765625 C 4.21875 -25.367188 5.515625 -26.65625 7.046875 -27.625 C 8.585938 -28.59375 10.304688 -29.179688 12.203125 -29.390625 C 13.753906 -29.554688 15.113281 -29.414062 16.28125 -28.96875 C 17.457031 -28.53125 18.390625 -27.867188 19.078125 -26.984375 C 19.773438 -26.109375 20.191406 -25.097656 20.328125 -23.953125 C 20.503906 -22.328125 20.210938 -20.976562 19.453125 -19.90625 C 18.703125 -18.832031 17.675781 -18.222656 16.375 -18.078125 C 15.78125 -18.015625 15.300781 -18.066406 14.9375 -18.234375 C 14.570312 -18.398438 14.300781 -18.578125 14.125 -18.765625 C 13.957031 -18.960938 13.875 -19.0625 13.875 -19.0625 C 13.875 -19.0625 14.003906 -19.15625 14.265625 -19.34375 C 14.523438 -19.539062 14.8125 -19.847656 15.125 -20.265625 C 15.445312 -20.691406 15.710938 -21.253906 15.921875 -21.953125 C 16.140625 -22.648438 16.191406 -23.5 16.078125 -24.5 C 15.835938 -26.644531 14.59375 -27.59375 12.34375 -27.34375 C 11.46875 -27.25 10.582031 -26.820312 9.6875 -26.0625 C 8.800781 -25.300781 8.015625 -24.257812 7.328125 -22.9375 C 6.648438 -21.613281 6.144531 -20.050781 5.8125 -18.25 C 5.488281 -16.445312 5.453125 -14.4375 5.703125 -12.21875 C 6.003906 -9.507812 6.753906 -7.519531 7.953125 -6.25 C 9.148438 -4.976562 10.722656 -4.453125 12.671875 -4.671875 C 14.242188 -4.835938 15.5625 -5.472656 16.625 -6.578125 C 17.6875 -7.679688 18.359375 -9.082031 18.640625 -10.78125 C 18.066406 -10.570312 17.515625 -10.398438 16.984375 -10.265625 C 16.453125 -10.128906 15.867188 -10.023438 15.234375 -9.953125 C 14.441406 -9.859375 13.800781 -10.003906 13.3125 -10.390625 C 12.820312 -10.773438 12.535156 -11.320312 12.453125 -12.03125 C 12.410156 -12.425781 12.425781 -12.738281 12.5 -12.96875 C 12.570312 -13.195312 12.609375 -13.3125 12.609375 -13.3125 C 12.609375 -13.3125 12.875 -13.316406 13.40625 -13.328125 C 13.9375 -13.335938 14.535156 -13.378906 15.203125 -13.453125 Z M 22.515625 -14.265625 "/></g></g></g><g fill="#004aad" fill-opacity="1"><g transform="translate(228.870861, 262.902108)"><g><path d="M 7.0625 -19.46875 C 9.226562 -19.707031 10.972656 -19.242188 12.296875 -18.078125 C 13.617188 -16.921875 14.398438 -15.28125 14.640625 -13.15625 C 14.679688 -12.769531 14.703125 -12.375 14.703125 -11.96875 C 14.710938 -11.570312 14.71875 -11.191406 14.71875 -10.828125 C 15.632812 -11.078125 16.394531 -11.472656 17 -12.015625 C 17.613281 -12.554688 18.078125 -13.054688 18.390625 -13.515625 C 18.703125 -13.972656 18.859375 -14.203125 18.859375 -14.203125 C 19.378906 -14.253906 19.632812 -13.972656 19.625 -13.359375 C 19.601562 -12.929688 19.363281 -12.425781 18.90625 -11.84375 C 18.457031 -11.257812 17.859375 -10.710938 17.109375 -10.203125 C 16.359375 -9.691406 15.503906 -9.316406 14.546875 -9.078125 C 14.160156 -6.828125 13.210938 -4.925781 11.703125 -3.375 C 10.203125 -1.820312 8.195312 -0.90625 5.6875 -0.625 C 3.738281 -0.414062 2.050781 -0.84375 0.625 -1.90625 C -0.800781 -2.96875 -1.640625 -4.640625 -1.890625 -6.921875 C -2.140625 -9.160156 -1.945312 -11.179688 -1.3125 -12.984375 C -0.6875 -14.796875 0.34375 -16.269531 1.78125 -17.40625 C 3.21875 -18.550781 4.976562 -19.238281 7.0625 -19.46875 Z M 8.015625 -12.328125 C 7.941406 -12.960938 8.035156 -13.523438 8.296875 -14.015625 C 8.566406 -14.515625 9.007812 -14.859375 9.625 -15.046875 C 9.21875 -16.910156 8.3125 -17.765625 6.90625 -17.609375 C 5.988281 -17.503906 5.144531 -16.863281 4.375 -15.6875 C 3.613281 -14.519531 3.125 -12.523438 2.90625 -9.703125 C 2.863281 -9.222656 2.859375 -8.582031 2.890625 -7.78125 C 2.921875 -6.976562 2.960938 -6.34375 3.015625 -5.875 C 3.140625 -4.71875 3.453125 -3.847656 3.953125 -3.265625 C 4.453125 -2.679688 5.085938 -2.429688 5.859375 -2.515625 C 6.859375 -2.628906 7.695312 -3.265625 8.375 -4.421875 C 9.0625 -5.585938 9.515625 -7.304688 9.734375 -9.578125 C 8.722656 -10.179688 8.148438 -11.097656 8.015625 -12.328125 Z M 8.015625 -12.328125 "/></g></g></g><g fill="#004aad" fill-opacity="1"><g transform="translate(246.919359, 260.895608)"><g><path d="M 7.0625 -19.46875 C 9.226562 -19.707031 10.972656 -19.242188 12.296875 -18.078125 C 13.617188 -16.921875 14.398438 -15.28125 14.640625 -13.15625 C 14.679688 -12.769531 14.703125 -12.375 14.703125 -11.96875 C 14.710938 -11.570312 14.71875 -11.191406 14.71875 -10.828125 C 15.632812 -11.078125 16.394531 -11.472656 17 -12.015625 C 17.613281 -12.554688 18.078125 -13.054688 18.390625 -13.515625 C 18.703125 -13.972656 18.859375 -14.203125 18.859375 -14.203125 C 19.378906 -14.253906 19.632812 -13.972656 19.625 -13.359375 C 19.601562 -12.929688 19.363281 -12.425781 18.90625 -11.84375 C 18.457031 -11.257812 17.859375 -10.710938 17.109375 -10.203125 C 16.359375 -9.691406 15.503906 -9.316406 14.546875 -9.078125 C 14.160156 -6.828125 13.210938 -4.925781 11.703125 -3.375 C 10.203125 -1.820312 8.195312 -0.90625 5.6875 -0.625 C 3.738281 -0.414062 2.050781 -0.84375 0.625 -1.90625 C -0.800781 -2.96875 -1.640625 -4.640625 -1.890625 -6.921875 C -2.140625 -9.160156 -1.945312 -11.179688 -1.3125 -12.984375 C -0.6875 -14.796875 0.34375 -16.269531 1.78125 -17.40625 C 3.21875 -18.550781 4.976562 -19.238281 7.0625 -19.46875 Z M 8.015625 -12.328125 C 7.941406 -12.960938 8.035156 -13.523438 8.296875 -14.015625 C 8.566406 -14.515625 9.007812 -14.859375 9.625 -15.046875 C 9.21875 -16.910156 8.3125 -17.765625 6.90625 -17.609375 C 5.988281 -17.503906 5.144531 -16.863281 4.375 -15.6875 C 3.613281 -14.519531 3.125 -12.523438 2.90625 -9.703125 C 2.863281 -9.222656 2.859375 -8.582031 2.890625 -7.78125 C 2.921875 -6.976562 2.960938 -6.34375 3.015625 -5.875 C 3.140625 -4.71875 3.453125 -3.847656 3.953125 -3.265625 C 4.453125 -2.679688 5.085938 -2.429688 5.859375 -2.515625 C 6.859375 -2.628906 7.695312 -3.265625 8.375 -4.421875 C 9.0625 -5.585938 9.515625 -7.304688 9.734375 -9.578125 C 8.722656 -10.179688 8.148438 -11.097656 8.015625 -12.328125 Z M 8.015625 -12.328125 "/></g></g></g><g fill="#004aad" fill-opacity="1"><g transform="translate(264.967857, 258.889108)"><g><path d="M 14.3125 -1.59375 C 13.113281 -1.457031 12.070312 -1.707031 11.1875 -2.34375 C 10.3125 -2.976562 9.757812 -3.96875 9.53125 -5.3125 C 8.25 -2.332031 6.507812 -0.722656 4.3125 -0.484375 C 2.8125 -0.316406 1.472656 -0.691406 0.296875 -1.609375 C -0.867188 -2.523438 -1.570312 -4.0625 -1.8125 -6.21875 C -2.039062 -8.289062 -1.96875 -10.113281 -1.59375 -11.6875 C -1.226562 -13.257812 -0.660156 -14.59375 0.109375 -15.6875 C 0.890625 -16.78125 1.785156 -17.628906 2.796875 -18.234375 C 3.816406 -18.847656 4.875 -19.21875 5.96875 -19.34375 C 6.820312 -19.4375 7.585938 -19.367188 8.265625 -19.140625 C 8.941406 -18.921875 9.507812 -18.585938 9.96875 -18.140625 L 10.609375 -28.640625 C 10.679688 -29.828125 10.644531 -30.65625 10.5 -31.125 C 10.351562 -31.59375 10.28125 -31.828125 10.28125 -31.828125 C 10.28125 -31.828125 10.421875 -31.898438 10.703125 -32.046875 C 10.992188 -32.191406 11.484375 -32.300781 12.171875 -32.375 C 13.597656 -32.53125 14.492188 -32.34375 14.859375 -31.8125 C 15.234375 -31.289062 15.382812 -30.359375 15.3125 -29.015625 L 14.046875 -8.09375 C 13.992188 -6.96875 14.140625 -6.15625 14.484375 -5.65625 C 14.828125 -5.164062 15.332031 -4.957031 16 -5.03125 C 16.632812 -5.101562 17.285156 -5.46875 17.953125 -6.125 C 18.628906 -6.789062 19.148438 -7.640625 19.515625 -8.671875 C 19.753906 -8.703125 19.953125 -8.648438 20.109375 -8.515625 C 20.265625 -8.378906 20.335938 -8.140625 20.328125 -7.796875 C 20.273438 -7.285156 20.101562 -6.703125 19.8125 -6.046875 C 19.53125 -5.390625 19.125 -4.742188 18.59375 -4.109375 C 18.070312 -3.472656 17.453125 -2.914062 16.734375 -2.4375 C 16.015625 -1.96875 15.207031 -1.6875 14.3125 -1.59375 Z M 5.4375 -3.859375 C 6.09375 -3.929688 6.671875 -4.296875 7.171875 -4.953125 C 7.679688 -5.617188 8.101562 -6.453125 8.4375 -7.453125 C 8.769531 -8.453125 9.039062 -9.503906 9.25 -10.609375 C 9.46875 -11.722656 9.613281 -12.742188 9.6875 -13.671875 L 9.8125 -15.4375 C 9.613281 -15.78125 9.304688 -16.132812 8.890625 -16.5 C 8.484375 -16.875 7.921875 -17.023438 7.203125 -16.953125 C 6.367188 -16.859375 5.582031 -16.367188 4.84375 -15.484375 C 4.101562 -14.609375 3.539062 -13.421875 3.15625 -11.921875 C 2.78125 -10.421875 2.703125 -8.675781 2.921875 -6.6875 C 3.035156 -5.644531 3.3125 -4.894531 3.75 -4.4375 C 4.1875 -3.976562 4.75 -3.785156 5.4375 -3.859375 Z M 5.4375 -3.859375 "/></g></g></g><g fill="#004aad" fill-opacity="1"><g transform="translate(284.012902, 256.771819)"><g><path d="M 7.890625 -11.296875 C 9.328125 -10.765625 10.359375 -10.128906 10.984375 -9.390625 C 11.617188 -8.660156 11.988281 -7.804688 12.09375 -6.828125 C 12.207031 -5.867188 12.023438 -4.941406 11.546875 -4.046875 C 11.066406 -3.160156 10.28125 -2.40625 9.1875 -1.78125 C 8.101562 -1.15625 6.664062 -0.742188 4.875 -0.546875 C 3.300781 -0.367188 1.992188 -0.453125 0.953125 -0.796875 C -0.0859375 -1.140625 -0.875 -1.625 -1.40625 -2.25 C -1.945312 -2.882812 -2.253906 -3.515625 -2.328125 -4.140625 C -2.410156 -4.859375 -2.226562 -5.429688 -1.78125 -5.859375 C -1.332031 -6.296875 -0.785156 -6.550781 -0.140625 -6.625 C 0.492188 -6.695312 0.957031 -6.664062 1.25 -6.53125 C 1.539062 -6.394531 1.6875 -6.328125 1.6875 -6.328125 C 1.6875 -6.328125 1.664062 -6.226562 1.625 -6.03125 C 1.582031 -5.832031 1.582031 -5.5625 1.625 -5.21875 C 1.71875 -4.3125 2.046875 -3.59375 2.609375 -3.0625 C 3.171875 -2.539062 3.984375 -2.328125 5.046875 -2.421875 C 6.097656 -2.546875 6.847656 -2.867188 7.296875 -3.390625 C 7.753906 -3.910156 7.945312 -4.476562 7.875 -5.09375 C 7.832031 -5.53125 7.648438 -5.925781 7.328125 -6.28125 C 7.015625 -6.644531 6.507812 -6.957031 5.8125 -7.21875 L 1.984375 -8.75 C 1.035156 -9.125 0.210938 -9.617188 -0.484375 -10.234375 C -1.191406 -10.847656 -1.613281 -11.769531 -1.75 -13 C -1.914062 -14.5 -1.398438 -15.847656 -0.203125 -17.046875 C 0.984375 -18.253906 2.878906 -19.003906 5.484375 -19.296875 C 7.003906 -19.460938 8.285156 -19.375 9.328125 -19.03125 C 10.378906 -18.6875 11.179688 -18.203125 11.734375 -17.578125 C 12.296875 -16.953125 12.613281 -16.316406 12.6875 -15.671875 C 12.757812 -14.984375 12.566406 -14.414062 12.109375 -13.96875 C 11.660156 -13.519531 11.117188 -13.257812 10.484375 -13.1875 C 9.867188 -13.113281 9.410156 -13.148438 9.109375 -13.296875 C 8.816406 -13.441406 8.671875 -13.515625 8.671875 -13.515625 C 8.671875 -13.515625 8.6875 -13.617188 8.71875 -13.828125 C 8.757812 -14.035156 8.757812 -14.300781 8.71875 -14.625 C 8.625 -15.476562 8.28125 -16.179688 7.6875 -16.734375 C 7.09375 -17.285156 6.273438 -17.503906 5.234375 -17.390625 C 4.234375 -17.285156 3.5 -16.976562 3.03125 -16.46875 C 2.570312 -15.957031 2.378906 -15.378906 2.453125 -14.734375 C 2.515625 -14.203125 2.710938 -13.773438 3.046875 -13.453125 C 3.390625 -13.140625 3.890625 -12.859375 4.546875 -12.609375 Z M 7.890625 -11.296875 "/></g></g></g></svg>